<?xml version="1.0" encoding="utf-8"?>
<!-- Generator: Adobe Illustrator 15.0.0, SVG Export Plug-In . SVG Version: 6.00 Build 0)  -->
<!DOCTYPE svg PUBLIC "-//W3C//DTD SVG 1.1//EN" "http://www.w3.org/Graphics/SVG/1.1/DTD/svg11.dtd">
<svg version="1.1" id="Layer_1" xmlns="http://www.w3.org/2000/svg" xmlns:xlink="http://www.w3.org/1999/xlink" x="0px" y="0px"
	 width="80px" height="50px" viewBox="0 0 80 50" enable-background="new 0 0 80 50" xml:space="preserve">
<path fill="#4369B2" d="M13.585,24.413L1.632,3.688C1.586,3.61,1.613,3.511,1.69,3.467c0.025-0.014,0.054-0.022,0.083-0.021
	l9.348,0.002c0.058,0.001,0.111,0.032,0.139,0.082l12.039,20.896c0.029,0.05,0.029,0.112,0,0.162L11.257,45.471
	c-0.029,0.051-0.082,0.081-0.139,0.083l-9.341-0.015c-0.089,0-0.162-0.072-0.161-0.162c0-0.029,0.007-0.055,0.022-0.08
	l11.947-20.722C13.614,24.525,13.614,24.463,13.585,24.413z"/>
<path fill="#FFFFFF" d="M34.783,3.452h7.893c0.056,0,0.102,0.045,0.102,0.1v41.89c0,0.056-0.046,0.102-0.102,0.102h-7.893
	c-0.055,0-0.1-0.046-0.1-0.102V3.552C34.683,3.497,34.728,3.452,34.783,3.452z"/>
<path fill="#FFFFFF" d="M46.824,3.642c0-0.116,0.094-0.21,0.21-0.21h10.945c11.721,0,21.223,9.408,21.223,21.014v0.116
	c0,11.605-9.502,21.013-21.223,21.013H47.034c-0.116,0-0.21-0.094-0.21-0.21V3.642z M54.919,11.763v25.481
	c0,0.125,0.101,0.224,0.224,0.224l0,0h2.895c7.219,0,13.07-5.772,13.07-12.893v-0.143c0-7.121-5.852-12.893-13.07-12.893l0,0h-2.895
	C55.02,11.54,54.919,11.64,54.919,11.763L54.919,11.763z"/>
<path fill="#4369B2" d="M22.738,37.465l7.693-0.013c0.108,0,0.197,0.086,0.198,0.196l0.013,7.691
	c0.001,0.11-0.087,0.199-0.197,0.199l-7.692,0.015c-0.109,0-0.198-0.089-0.198-0.199l-0.014-7.693
	C22.541,37.553,22.628,37.465,22.738,37.465z"/>
</svg>
