<?xml version="1.0" encoding="utf-8"?>
<!-- Generator: Adobe Illustrator 15.0.0, SVG Export Plug-In . SVG Version: 6.00 Build 0)  -->
<!DOCTYPE svg PUBLIC "-//W3C//DTD SVG 1.1//EN" "http://www.w3.org/Graphics/SVG/1.1/DTD/svg11.dtd">
<svg version="1.1" id="Layer_1" xmlns="http://www.w3.org/2000/svg" xmlns:xlink="http://www.w3.org/1999/xlink" x="0px" y="0px"
	 width="80px" height="80px" viewBox="0 0 80 80" enable-background="new 0 0 80 80" xml:space="preserve">
<path display="none" fill="#4369B2" d="M13.398,40.416L1.807,20.319c-0.043-0.075-0.018-0.171,0.057-0.214
	c0.024-0.014,0.053-0.022,0.081-0.021l9.064,0.002c0.056,0.001,0.107,0.031,0.135,0.079l11.674,20.263
	c0.028,0.049,0.028,0.108,0,0.157l-11.677,20.25c-0.028,0.049-0.08,0.079-0.135,0.081l-9.058-0.015c-0.086,0-0.157-0.07-0.156-0.157
	c0-0.028,0.007-0.053,0.021-0.077l11.585-20.094C13.426,40.524,13.426,40.464,13.398,40.416z"/>
<path display="none" fill="#FFFFFF" d="M33.953,20.089h7.654c0.054,0,0.098,0.044,0.098,0.097v40.62
	c0,0.055-0.044,0.099-0.098,0.099h-7.654c-0.053,0-0.097-0.044-0.097-0.099v-40.62C33.856,20.133,33.9,20.089,33.953,20.089z"/>
<path display="none" fill="#FFFFFF" d="M45.63,20.274c0-0.112,0.091-0.204,0.203-0.204h10.614c11.365,0,20.579,9.123,20.579,20.377
	v0.113c0,11.253-9.214,20.376-20.579,20.376H45.833c-0.112,0-0.203-0.091-0.203-0.203V20.274z M53.479,28.149v24.709
	c0,0.12,0.099,0.217,0.218,0.217l0,0h2.807c6.999,0,12.674-5.598,12.674-12.502v-0.139c0-6.905-5.675-12.501-12.674-12.501l0,0
	h-2.807C53.577,27.933,53.479,28.03,53.479,28.149L53.479,28.149z"/>
<path display="none" fill="#4369B2" d="M22.273,53.071l7.46-0.012c0.105,0,0.191,0.084,0.192,0.19l0.012,7.459
	c0.001,0.106-0.085,0.192-0.191,0.192l-7.459,0.015c-0.106,0-0.191-0.086-0.191-0.193l-0.013-7.46
	C22.083,53.157,22.167,53.071,22.273,53.071z"/>
<g>
	<path fill="#FFFFFF" d="M77.138,36.98c-0.117,0.403-0.445,0.786-0.799,0.961c-0.131,0.065-0.298,0.117-0.523,0.162
		c-0.031,0.007-0.059,0.01-0.089,0.008c-5.197-0.082-10.392-0.535-15.507-1.397c-1.506,1.244-2.974,2.522-4.409,3.865
		c1.431,1.307,2.867,2.549,4.367,3.79c5.152-0.821,10.352-1.313,15.593-1.355h0.003c0.195,0,0.415,0.059,0.551,0.105
		c1.066,0.354,1.03,1.945,0.351,2.647c-0.261,0.309-0.673,0.473-1.063,0.473c-4.092,0.078-8.145,0.368-12.197,0.905
		c3.226,2.443,6.594,4.743,10.104,6.861c0.006,0.005,0.012,0.008,0.017,0.011l0.017,0.011c0.106,0.072,0.278,0.187,0.409,0.362
		c0.176,0.189,0.237,0.379,0.281,0.504v0.008c0.017,0.045,0.022,0.09,0.022,0.134c0,0.022,0.003,0.039,0.006,0.064
		c0.003,0.024,0.006,0.059,0.011,0.114c0.006,0.077,0.012,0.217-0.033,0.355c-0.045,0.179-0.101,0.356-0.223,0.535
		c-0.014,0.021-0.03,0.044-0.05,0.066c-0.025,0.022-0.051,0.05-0.084,0.086v0.003c-0.033,0.034-0.069,0.072-0.111,0.114
		c-0.078,0.081-0.189,0.181-0.334,0.251c-0.226,0.114-0.456,0.17-0.731,0.17c-0.254,0-0.555-0.051-0.818-0.237
		c-4.44-2.655-8.677-5.598-12.668-8.826c-1.798,0.304-3.6,0.674-5.403,1.08c0.538,2.013,1.111,4.02,1.748,5.987
		c4.69,1.795,9.211,3.913,13.614,6.321c0.009,0.006,0.02,0.011,0.028,0.017c0.005,0.006,0.011,0.009,0.02,0.011
		c0.108,0.073,0.281,0.189,0.411,0.368c0.087,0.1,0.137,0.214,0.165,0.286c0.021,0.059,0.044,0.131,0.061,0.181
		c0.006,0.018,0.012,0.034,0.012,0.042c0.017,0.042,0.022,0.087,0.022,0.131c0,0.025,0.002,0.039,0.005,0.067
		c0.003,0.021,0.006,0.056,0.012,0.113c0.005,0.078,0.011,0.215-0.034,0.354c-0.041,0.173-0.094,0.34-0.205,0.516
		c-0.198,0.376-0.56,0.593-0.919,0.692c-0.017,0.006-0.039,0.012-0.056,0.015c-0.37,0.053-0.752,0.003-1.086-0.164
		c-0.005-0.006-0.011-0.006-0.014-0.012c-3.521-1.932-7.111-3.651-10.78-5.188c1.434,3.958,3.078,7.869,4.904,11.635
		c0.003,0.006,0.006,0.012,0.009,0.02c0.003,0.003,0.003,0.006,0.003,0.009c0.1,0.245,0.155,0.465,0.155,0.74
		s-0.125,0.563-0.211,0.735c-0.012,0.021-0.022,0.044-0.039,0.061c-0.006,0.012-0.012,0.017-0.017,0.028
		c-0.111,0.147-0.293,0.387-0.552,0.518c-0.226,0.111-0.456,0.167-0.731,0.167c-0.226,0-0.532-0.053-0.797-0.251
		c-0.228-0.172-0.393-0.395-0.501-0.606V71.6c-2.324-4.689-4.322-9.589-5.953-14.565c-2.021-0.758-4.075-1.447-6.169-2.099
		c-0.429,1.506-0.796,3.045-1.13,4.554c3.521,4.241,6.714,8.729,9.581,13.461c0.233,0.355,0.289,0.773,0.175,1.174
		c-0.002,0.006-0.002,0.015-0.005,0.02c-0.108,0.326-0.329,0.66-0.668,0.886c-0.159,0.108-0.368,0.17-0.474,0.203
		c-0.02,0.006-0.036,0.011-0.047,0.014c-0.212,0.069-0.474,0.069-0.686,0c-0.178-0.059-0.345-0.17-0.456-0.248l-0.02-0.011
		c-0.197-0.131-0.32-0.317-0.398-0.435l-0.011-0.017c0-0.003-0.003-0.005-0.006-0.008c0-0.003-0.003-0.006-0.005-0.009
		c-2.35-3.913-4.916-7.641-7.738-11.184c-0.827,4.42-1.392,8.876-1.626,13.366c-0.003,0.423-0.189,0.771-0.456,1.041
		c-0.272,0.27-0.626,0.456-1.053,0.456c-0.194,0-0.414-0.059-0.551-0.105c-0.2-0.066-0.409-0.2-0.552-0.415l-0.011-0.02
		c-0.075-0.111-0.187-0.278-0.247-0.456c-0.064-0.195-0.064-0.423-0.064-0.534v-0.018c0-0.005,0-0.005,0-0.011
		c0-0.003,0-0.006,0-0.011c0.25-5.483,0.991-10.967,2.104-16.328c-1.03-1.214-2.059-2.419-3.143-3.563
		c-1.357,1.514-2.678,3.028-3.965,4.573c0.864,5.068,1.358,10.218,1.524,15.367c0,0.003,0.001,0.006,0.001,0.011
		c0,0.189-0.056,0.401-0.102,0.538c-0.058,0.223-0.168,0.397-0.287,0.525c-0.142,0.195-0.338,0.317-0.527,0.385
		c-0.138,0.044-0.358,0.103-0.553,0.103c-0.235,0-0.415-0.059-0.542-0.103h-0.009c-0.035-0.015-0.068-0.031-0.101-0.051
		l-0.017-0.011c-0.103-0.069-0.242-0.161-0.354-0.265c-0.193-0.142-0.317-0.337-0.381-0.526c-0.044-0.139-0.104-0.354-0.105-0.545
		c-0.116-4.095-0.483-8.189-1.066-12.253c-2.484,3.229-4.785,6.6-6.871,10.115c-0.008,0.011-0.017,0.021-0.025,0.036
		c-0.007,0.008-0.013,0.014-0.02,0.024c-0.105,0.143-0.272,0.368-0.514,0.499c-0.246,0.175-0.5,0.23-0.767,0.23
		c-0.223,0-0.526-0.056-0.787-0.245c-0.002,0-0.005-0.003-0.008-0.005c-0.108-0.072-0.284-0.189-0.413-0.368
		c-0.086-0.1-0.135-0.211-0.163-0.283c-0.022-0.062-0.046-0.134-0.061-0.184c-0.005-0.018-0.01-0.028-0.014-0.039
		c-0.014-0.045-0.021-0.09-0.021-0.134v-0.418c0-0.25,0.065-0.45,0.189-0.64c2.618-4.403,5.563-8.641,8.796-12.632
		c-0.303-1.792-0.675-3.591-1.113-5.386c-1.761,0.528-3.517,1.094-5.273,1.723c-1.67,5.103-3.667,10.124-6.036,14.941
		c-0.003,0.006-0.007,0.012-0.01,0.018c-0.003,0.005-0.006,0.011-0.007,0.014c-0.159,0.262-0.323,0.426-0.527,0.579
		c-0.011,0.008-0.023,0.017-0.036,0.024c-0.274,0.165-0.517,0.229-0.802,0.229c-0.241,0-0.472-0.062-0.69-0.173
		c-0.015-0.005-0.03-0.017-0.046-0.024c-0.005-0.003-0.011-0.009-0.017-0.012c-0.108-0.072-0.282-0.187-0.412-0.364
		c-0.135-0.15-0.233-0.37-0.281-0.513c-0.003-0.008-0.006-0.017-0.008-0.027c-0.055-0.217-0.055-0.39-0.055-0.551v-0.012
		c0-0.189,0.056-0.429,0.178-0.623c1.91-3.938,3.601-7.983,5.04-12.103c-3.794,1.509-7.51,3.229-11.081,5.169
		c-0.199,0.125-0.439,0.184-0.633,0.184c-0.005,0-0.012,0-0.018,0c-0.114,0-0.341,0-0.533-0.064
		c-0.152-0.05-0.391-0.158-0.542-0.312c-0.114-0.111-0.219-0.268-0.294-0.381l-0.011-0.015c-0.134-0.206-0.195-0.453-0.195-0.651
		c0-0.008,0-0.014,0-0.02c-0.001-0.114-0.001-0.342,0.063-0.534c0.06-0.181,0.171-0.348,0.248-0.459
		c0.003-0.006,0.007-0.012,0.011-0.017c0.131-0.198,0.319-0.323,0.434-0.398c0.006-0.003,0.011-0.008,0.017-0.011
		c0.009-0.009,0.019-0.015,0.03-0.02c4.444-2.449,9.052-4.529,13.781-6.279c0.597-1.843,1.127-3.725,1.623-5.606
		c-1.804-0.409-3.604-0.779-5.403-1.086c-3.991,3.232-8.228,6.174-12.669,8.83c-0.263,0.188-0.565,0.236-0.818,0.236
		c-0.224,0-0.5-0.053-0.732-0.17c-0.198-0.101-0.451-0.271-0.594-0.54c-0.098-0.156-0.157-0.351-0.188-0.451
		c-0.005-0.022-0.011-0.036-0.015-0.047c-0.07-0.212-0.07-0.471,0-0.683c0.061-0.184,0.172-0.351,0.248-0.462l0.011-0.017
		c0.131-0.197,0.319-0.322,0.434-0.397c0.006-0.003,0.013-0.009,0.018-0.012c0.004-0.003,0.01-0.008,0.016-0.008
		c3.514-2.127,6.921-4.426,10.154-6.903c-4.063-0.546-8.154-0.868-12.244-0.907c-0.188,0-0.398-0.056-0.536-0.101
		c-0.232-0.062-0.437-0.189-0.582-0.384c-0.145-0.15-0.262-0.323-0.326-0.515l-0.004-0.009c-0.042-0.128-0.102-0.307-0.102-0.543
		c0-0.442,0.167-0.843,0.458-1.133c0.285-0.286,0.683-0.459,1.092-0.459h0.004c5.238,0.042,10.479,0.492,15.636,1.355
		c1.47-1.208,2.934-2.445,4.331-3.748c-1.401-1.342-2.868-2.621-4.375-3.866c-5.152,0.822-10.351,1.315-15.592,1.357H3.308
		c-0.195,0-0.413-0.059-0.551-0.104c-0.189-0.063-0.384-0.187-0.526-0.38c-0.145-0.15-0.262-0.321-0.326-0.514
		c-0.004-0.01-0.007-0.021-0.01-0.03c-0.004-0.021-0.011-0.043-0.017-0.067C1.844,36.887,1.8,36.719,1.8,36.521
		c0-0.408,0.172-0.784,0.364-1.07c0.014-0.023,0.032-0.044,0.052-0.064c0.271-0.271,0.624-0.458,1.049-0.458
		c4.133-0.039,8.231-0.327,12.327-0.867c-3.233-2.484-6.64-4.821-10.153-6.943c-0.015-0.01-0.031-0.02-0.044-0.031
		c-0.278-0.221-0.49-0.543-0.597-0.866c-0.129-0.384-0.059-0.812,0.174-1.161c0.216-0.323,0.504-0.558,0.905-0.672
		c0.404-0.115,0.806-0.056,1.141,0.111c0.01,0.006,0.02,0.011,0.029,0.017c4.445,2.7,8.686,5.686,12.722,8.959
		c1.805-0.338,3.602-0.678,5.365-1.079c-0.538-2.047-1.111-4.061-1.752-6.074c-4.685-1.832-9.247-3.95-13.603-6.313
		c-0.385-0.196-0.608-0.562-0.711-0.927c-0.006-0.018-0.01-0.036-0.013-0.056c-0.046-0.319-0.064-0.745,0.192-1.129
		c0.004-0.005,0.007-0.011,0.011-0.018c0.073-0.108,0.187-0.281,0.365-0.411c0.185-0.168,0.416-0.239,0.519-0.271
		c0.014-0.004,0.025-0.007,0.034-0.01c0.011-0.004,0.021-0.007,0.03-0.01c0.219-0.055,0.389-0.055,0.551-0.055h0.013
		c0.246,0,0.448,0.064,0.636,0.187c3.482,1.932,7.07,3.686,10.765,5.226c-1.428-3.959-3.037-7.872-4.863-11.638
		c-0.002-0.007-0.005-0.012-0.008-0.018c-0.153-0.356-0.218-0.751-0.102-1.159c0.113-0.394,0.388-0.736,0.738-0.918
		c0.198-0.125,0.437-0.183,0.629-0.183c0.006,0,0.011,0,0.018,0c0.114,0,0.341,0,0.533,0.064c0.181,0.06,0.348,0.171,0.46,0.247
		c0.006,0.004,0.011,0.008,0.017,0.011c0.023,0.017,0.044,0.033,0.064,0.053c0.114,0.114,0.218,0.27,0.293,0.383
		c0.003,0.005,0.007,0.011,0.01,0.017c0.011,0.015,0.021,0.032,0.029,0.049c2.284,4.69,4.281,9.586,5.911,14.566
		c1.975,0.754,3.987,1.442,6.036,2.093c0.405-1.517,0.803-3.057,1.138-4.596c-3.48-4.239-6.675-8.726-9.501-13.459
		c-0.102-0.157-0.163-0.359-0.195-0.463c-0.005-0.018-0.011-0.034-0.015-0.044c-0.063-0.192-0.07-0.425-0.017-0.625
		c0.012-0.123,0.054-0.226,0.093-0.302c0.043-0.087,0.097-0.168,0.135-0.227l0.006-0.007c0.132-0.197,0.32-0.321,0.434-0.398
		c0.007-0.004,0.013-0.008,0.018-0.011c0.159-0.107,0.367-0.169,0.473-0.203c0.018-0.005,0.033-0.01,0.044-0.014
		c0.208-0.068,0.461-0.071,0.669-0.006c0.116,0.031,0.213,0.074,0.284,0.106c0.02,0.01,0.038,0.018,0.053,0.025
		c0.047,0.022,0.072,0.034,0.098,0.042c0.036,0.013,0.069,0.029,0.1,0.05c0.197,0.131,0.321,0.319,0.398,0.433
		c0.004,0.007,0.008,0.013,0.011,0.018c0.005,0.005,0.008,0.013,0.012,0.02c2.308,3.907,4.87,7.632,7.656,11.174
		c0.82-4.383,1.347-8.838,1.583-13.329c0-0.013,0.001-0.025,0.002-0.038c0.056-0.383,0.223-0.718,0.496-0.991
		c0.312-0.312,0.727-0.416,1.094-0.416c0.397,0,0.777,0.164,1.005,0.335c0.029,0.021,0.054,0.046,0.077,0.072
		c0.216,0.27,0.384,0.653,0.384,1.058c0,0.008,0,0.016,0,0.022c-0.291,5.522-0.993,10.965-2.145,16.327
		c1.03,1.207,2.09,2.382,3.158,3.56c1.385-1.474,2.702-2.984,3.988-4.529c-0.862-5.07-1.355-10.22-1.48-15.371v-0.01
		c0-0.366,0.105-0.781,0.417-1.091c0.271-0.271,0.624-0.458,1.05-0.458c0.195,0,0.415,0.059,0.554,0.104
		c0.033,0.012,0.067,0.029,0.098,0.049l0.017,0.011c0.104,0.07,0.242,0.162,0.354,0.265c0.195,0.142,0.317,0.338,0.384,0.527
		c0.045,0.135,0.101,0.352,0.104,0.544c0.117,4.094,0.481,8.154,1.066,12.212c2.485-3.23,4.787-6.598,6.875-10.075
		c0-0.006,0.005-0.011,0.008-0.017c0.003-0.005,0.009-0.011,0.015-0.018c0.069-0.107,0.184-0.28,0.361-0.409
		c0.187-0.174,0.379-0.238,0.501-0.279l0.012-0.003c0.041-0.014,0.089-0.022,0.133-0.022c0.022,0,0.039-0.001,0.062-0.004
		c0.028-0.003,0.059-0.006,0.117-0.01c0.078-0.006,0.214-0.013,0.354,0.03c0.17,0.043,0.342,0.096,0.515,0.208
		c0.376,0.198,0.593,0.56,0.696,0.918c0.005,0.016,0.008,0.031,0.011,0.046c0.056,0.334,0.003,0.76-0.164,1.094
		c-0.006,0.01-0.012,0.02-0.017,0.029c-2.658,4.4-5.604,8.597-8.838,12.549c0.34,1.837,0.713,3.672,1.119,5.478
		c1.751-0.5,3.502-1.092,5.267-1.691c1.67-5.186,3.707-10.247,6.118-15.106V9.188c0.206-0.408,0.598-0.579,0.874-0.671
		c0.384-0.128,0.751-0.053,1.074,0.107c0.024,0.013,0.05,0.029,0.072,0.047c0.223,0.178,0.515,0.451,0.64,0.822
		c0,0.007,0.003,0.013,0.006,0.018c0.101,0.362,0.105,0.742-0.006,1.086c-0.005,0.017-0.014,0.033-0.021,0.05
		c-1.957,4.029-3.691,8.129-5.175,12.336c3.839-1.506,7.568-3.195,11.223-5.14c0.015-0.007,0.028-0.014,0.042-0.02
		c0.317-0.126,0.713-0.117,1.041-0.008c0.346,0.116,0.644,0.348,0.824,0.699c0.178,0.306,0.223,0.694,0.172,1.02
		c-0.063,0.433-0.316,0.728-0.573,0.933c-0.02,0.017-0.039,0.031-0.061,0.042c-4.487,2.408-9.133,4.486-13.904,6.238
		c-0.557,1.759-1.049,3.521-1.539,5.319c1.843,0.441,3.691,0.817,5.573,1.158c3.952-3.19,8.152-6.093,12.512-8.75
		c0.008-0.006,0.019-0.011,0.03-0.017c0.334-0.167,0.734-0.227,1.142-0.111c0.4,0.114,0.688,0.349,0.901,0.672
		c0.011,0.016,0.022,0.031,0.027,0.046c0.14,0.276,0.276,0.636,0.162,1.07c-0.069,0.429-0.326,0.723-0.641,0.931
		c-0.005,0.004-0.011,0.007-0.017,0.011c-3.468,2.081-6.797,4.375-9.984,6.819c4.022,0.543,8.069,0.867,12.119,0.906
		c0.187,0,0.398,0.056,0.535,0.1c0.23,0.061,0.437,0.185,0.581,0.384c0.145,0.15,0.262,0.32,0.329,0.513
		c0,0.01,0.005,0.021,0.005,0.031c0.006,0.021,0.012,0.043,0.02,0.067c0.033,0.129,0.081,0.298,0.081,0.496
		C77.243,36.621,77.188,36.834,77.138,36.98z M51.669,46.092c0.011-0.003,0.024-0.008,0.038-0.008
		c0.34-0.081,0.68-0.162,1.017-0.239c1.169-0.273,2.324-0.543,3.479-0.797c-1.289-1.102-2.547-2.263-3.772-3.451l-0.005-0.004
		c-0.271-0.271-0.457-0.625-0.457-1.051c0-0.426,0.187-0.778,0.457-1.051c0.005-0.003,0.005-0.006,0.011-0.009
		c1.264-1.191,2.527-2.352,3.847-3.51c-1.53-0.306-3.062-0.667-4.587-1.056c-0.011-0.003-0.02-0.006-0.027-0.01
		c-0.182-0.06-0.349-0.171-0.463-0.247l-0.017-0.011c-0.194-0.131-0.32-0.318-0.395-0.434c-0.006-0.005-0.012-0.011-0.012-0.017
		c-0.022-0.032-0.039-0.065-0.05-0.1c-0.006-0.014-0.012-0.031-0.025-0.063c-0.014-0.026-0.03-0.069-0.047-0.114
		c-0.033-0.081-0.067-0.189-0.072-0.32c-0.045-0.203-0.051-0.427,0.011-0.627c0.4-1.665,0.829-3.332,1.319-4.974
		c-1.626,0.533-3.231,1.033-4.871,1.47c-0.036,0.01-0.072,0.014-0.108,0.014h-0.253c-0.273,0-0.674-0.041-0.967-0.331
		c-0.008-0.007-0.014-0.014-0.019-0.021c-0.156-0.153-0.401-0.399-0.471-0.775c-0.393-1.567-0.755-3.163-1.086-4.737
		c-1.183,1.364-2.419,2.671-3.645,3.971l-0.004,0.004c-0.003,0.003-0.005,0.006-0.008,0.009c-0.271,0.271-0.625,0.458-1.051,0.458
		c-0.376,0-0.772-0.179-1.051-0.458c-0.003-0.003-0.007-0.007-0.01-0.011c-0.992-1.062-1.956-2.125-2.913-3.212
		c-0.328,1.336-0.685,2.671-1.071,4.007c-0.004,0.014-0.008,0.026-0.014,0.039c-0.099,0.247-0.269,0.554-0.593,0.749
		c-0.247,0.147-0.532,0.269-0.887,0.269h-0.293c-0.041,0-0.081-0.006-0.12-0.017c-1.84-0.552-3.683-1.137-5.527-1.783
		c0.533,1.798,1.005,3.599,1.445,5.429c0.007,0.034,0.011,0.065,0.011,0.099c0,0.039,0.002,0.063,0.005,0.1
		c0.003,0.023,0.005,0.056,0.01,0.1c0.005,0.083,0.008,0.188-0.017,0.309c-0.008,0.231-0.075,0.423-0.195,0.603
		c-0.004,0.005-0.007,0.011-0.011,0.017c-0.077,0.116-0.202,0.304-0.398,0.434c-0.174,0.116-0.344,0.173-0.466,0.213l-0.011,0.004
		c-0.013,0.003-0.023,0.007-0.035,0.01c-1.486,0.354-3.008,0.708-4.536,1.013c1.293,1.125,2.58,2.282,3.808,3.472l0.004,0.004
		c0.271,0.271,0.458,0.625,0.458,1.051s-0.186,0.779-0.458,1.05l-0.004,0.005c-1.23,1.194-2.491,2.324-3.778,3.443
		c1.503,0.317,2.988,0.646,4.474,1.035c0.125,0.012,0.232,0.054,0.311,0.092c0.086,0.045,0.168,0.098,0.226,0.137l0.008,0.006
		c0.196,0.131,0.321,0.317,0.398,0.434c0.004,0.006,0.007,0.012,0.011,0.018c0.021,0.03,0.038,0.066,0.049,0.1l0.001,0.003
		c0.042,0.125,0.088,0.265,0.134,0.448c0.054,0.212,0.064,0.456-0.003,0.674c-0.401,1.714-0.867,3.429-1.367,5.138
		c1.597-0.531,3.2-1.029,4.836-1.467c0.013-0.003,0.026-0.006,0.039-0.008c0.341-0.056,0.724,0,1.054,0.164
		c0.015,0.008,0.03,0.017,0.044,0.024c0.324,0.218,0.56,0.504,0.673,0.905c0.001,0.003,0.001,0.008,0.003,0.011
		c0.394,1.537,0.756,3.132,1.088,4.71c1.172-1.361,2.375-2.67,3.607-3.972c0.001,0,0.003,0,0.004-0.003
		c0.001-0.003,0.003-0.003,0.004-0.006c0.271-0.271,0.625-0.459,1.051-0.459s0.779,0.188,1.051,0.459l0.005,0.006
		c0.994,1.029,1.959,2.09,2.92,3.176c0.325-1.325,0.685-2.634,1.068-3.964c0.003-0.006,0.006-0.011,0.006-0.017
		c0.061-0.181,0.173-0.348,0.247-0.462l0.012-0.017c0.131-0.195,0.32-0.32,0.435-0.396c0.005-0.006,0.011-0.011,0.019-0.011
		c0.201-0.137,0.451-0.198,0.651-0.198c0.006,0,0.012,0,0.018,0c0.111,0,0.334-0.003,0.522,0.059
		c1.894,0.557,3.78,1.178,5.668,1.834c-0.513-1.806-1.02-3.644-1.462-5.48c-0.008-0.033-0.011-0.066-0.011-0.1
		c0-0.039-0.003-0.062-0.009-0.098c0-0.025-0.003-0.056-0.005-0.104c-0.006-0.083-0.012-0.187,0.014-0.306
		c0.008-0.234,0.075-0.423,0.197-0.604c0-0.005,0.006-0.011,0.012-0.017c0.074-0.114,0.2-0.303,0.395-0.434
		c0.173-0.114,0.346-0.173,0.468-0.215L51.669,46.092z"/>
</g>
</svg>
