<?xml version="1.0" encoding="utf-8"?>
<!-- Generator: Adobe Illustrator 15.0.0, SVG Export Plug-In . SVG Version: 6.00 Build 0)  -->
<!DOCTYPE svg PUBLIC "-//W3C//DTD SVG 1.1//EN" "http://www.w3.org/Graphics/SVG/1.1/DTD/svg11.dtd">
<svg version="1.1" id="Layer_1" xmlns="http://www.w3.org/2000/svg" xmlns:xlink="http://www.w3.org/1999/xlink" x="0px" y="0px"
	 width="300px" height="70px" viewBox="0 0 300 70" enable-background="new 0 0 300 70" xml:space="preserve">
<g>
	<path fill="#95CC7D" d="M29.052,9.9h0.988c0.473,0.023,0.964,0.01,1.414,0.055c1.94,0.195,3.506,0.484,5.216,1.001
		c0.072,0.021,0.133,0.045,0.187,0.073c0.035,0.016,0.04,0.041,0.013,0.071c-0.099,0.106-0.221,0.186-0.366,0.235
		c-0.985,0.347-1.928,0.685-2.875,1.17c-1.691,0.868-3.39,1.832-4.89,3.017c-1.464,1.156-2.837,2.394-4.056,3.812
		c-1.635,1.905-3.274,4.282-4.472,7.03c-0.395,0.907-0.672,1.603-0.828,2.087c-0.256,0.791-0.425,1.291-0.51,1.5
		c-0.067,0.165-0.114,0.399-0.142,0.705c-0.052,0.019-0.101,0.121-0.145,0.308c-0.12,0.25-0.305,0.477-0.416,0.705
		c-0.083,0.167-0.146,0.333-0.261,0.481c-0.077,0.101-0.099,0.25-0.151,0.339c-1.598,2.802-2.584,6.025-3.038,9.211
		c-0.136,0.954-0.196,2.036-0.266,3.054c-0.039,0.561-0.03,1.367,0.023,2.42c0.043,0.855,0.196,2.04,0.46,3.555
		c0.086,0.502,0.221,1.026,0.337,1.539c0.187,0.826,0.471,1.626,0.708,2.446c0.039,0.134,0.123,0.272,0.251,0.419
		c0.02,0.022,0.025,0.048,0.016,0.077c-0.021,0.062-0.066,0.128-0.139,0.195c-0.222-0.139-0.469-0.256-0.679-0.4
		c-4.166-2.853-7.448-7.078-9.164-11.865c-0.797-2.225-1.29-4.543-1.436-6.907c-0.02-0.327-0.04-0.653-0.06-0.979v-0.784
		c0.029-0.565,0.063-1.128,0.104-1.69c0.105-1.455,0.33-2.891,0.672-4.307c0.214-0.89,0.55-1.786,0.873-2.669
		c1.649-4.5,4.771-8.389,8.62-11.249c1.109-0.824,2.291-1.469,3.813-2.222C22.017,10.769,25.475,9.976,29.052,9.9z"/>
	<path fill="#81C77D" d="M23.971,30.128c-2.545,2.461-2.805,6.557-0.843,9.44c0.004,0.017,0.014,0.029,0.029,0.042
		c-0.029-0.007-0.056-0.01-0.082-0.007c-0.027,0-0.048,0.016-0.06,0.042c-0.084,0.182-0.225,0.394-0.299,0.521
		c-0.95,1.668-1.669,3.188-2.158,4.565c-0.167,0.47-0.447,1.31-0.643,2.122c-0.042,0.173-0.096,0.339-0.16,0.497l-0.073,0.006
		c-0.027,0.003-0.045-0.006-0.054-0.031c-0.474-1.342-0.828-2.54-1.062-3.6c-0.259-1.171-0.451-2.452-0.581-3.839
		c-0.138-1.504-0.087-3.045,0.006-4.554c0.072-1.13,0.313-2.296,0.436-3.197c0.014-0.099,0.081-0.173,0.094-0.29
		c0.03-0.25,0.084-0.517,0.166-0.804c0.008-0.031-0.01-0.063-0.041-0.07c-0.002,0-0.005-0.001-0.008-0.001l-0.053-0.007
		c0.044-0.187,0.093-0.289,0.145-0.308c0.381-0.45,0.742-0.908,1.08-1.375c0.518-0.713,0.86-1.17,1.026-1.373
		c4.863-5.884,11.858-9.438,19.478-10c0.681-0.05,1.673-0.06,2.977-0.031c1.588,0.038,3.153,0.25,4.694,0.642
		c0.077,0.02,0.125,0.034,0.142,0.042c0.126,0.066,0.122,0.117-0.017,0.154c-5.996,1.595-11.203,5.155-14.981,10.083
		c-0.051,0.067-0.144,0.086-0.216,0.045C30.003,27.203,26.334,27.729,23.971,30.128z"/>
	<path fill="#7CBC93" d="M38.469,36.404c-0.038,0.08-0.098,0.128-0.185,0.147c-0.575,0.199-1.141,0.431-1.694,0.695
		c-0.165,0.077-0.387,0.06-0.532,0.285c-0.016,0.023-0.039,0.039-0.068,0.042l-0.188,0.026c-0.01-0.006-0.018-0.012-0.024-0.018
		c-0.017-0.017-0.016-0.03,0.003-0.045c0.113-0.083,0.273-0.157,0.483-0.231c0.194-0.068,0.28-0.238,0.322-0.446
		c0.544-2.753-0.422-5.457-2.546-7.25c-0.023-0.02-0.027-0.056-0.007-0.079c0.006-0.007,0.013-0.013,0.022-0.016
		c0.231-0.094,0.456-0.194,0.671-0.298c2.186-1.046,4.468-1.794,6.852-2.245c2.44-0.461,4.923-0.533,7.394-0.365
		c1.273,0.087,2.532,0.305,3.78,0.574c0.057,0.012,0.099,0.027,0.129,0.045c0.027,0.015,0.038,0.05,0.021,0.08
		c-0.007,0.014-0.021,0.024-0.037,0.028c-4.082,1.081-7.962,3.04-11.135,5.799c-0.894,0.778-1.743,1.605-2.544,2.484
		C38.946,35.877,38.708,36.142,38.469,36.404z"/>
	<path fill="#E5F2E2" d="M23.971,30.128c-0.012,0.759,0.031,1.378,0.126,1.858c0.281,1.407,0.884,2.63,1.733,3.781
		c-0.043,0.07-0.083,0.142-0.121,0.218c-0.04,0.076-0.085,0.147-0.135,0.206c-0.712,0.842-1.21,1.483-1.496,1.924
		c-0.258,0.399-0.524,0.796-0.796,1.188c-0.017,0.021-0.025,0.052-0.026,0.08c-0.001,0.097-0.043,0.156-0.128,0.186
		C21.167,36.686,21.426,32.589,23.971,30.128z"/>
	<path fill="#7CBC93" d="M18.587,30.964l0.053,0.007c0.031,0.004,0.054,0.033,0.05,0.064c0,0.003-0.001,0.005-0.001,0.007
		c-0.081,0.287-0.136,0.554-0.166,0.804c-0.013,0.117-0.08,0.191-0.094,0.29c-0.123,0.901-0.364,2.066-0.436,3.197
		c-0.093,1.509-0.144,3.05-0.006,4.554c0.129,1.387,0.322,2.668,0.581,3.839c0.234,1.06,0.588,2.258,1.062,3.6
		c0.008,0.025,0.026,0.034,0.054,0.031l0.073-0.006c-0.551,2.288-0.872,4.484-0.86,6.845c0.005,0.905,0.005,1.463,0.081,2.212
		c0.011,0.109,0.004,0.224-0.019,0.343c-0.021,0.114-0.038,0.23-0.05,0.347c-0.783-0.382-1.584-0.823-2.402-1.323
		c-0.154-0.097-0.285-0.218-0.395-0.368c0.073-0.067,0.118-0.134,0.139-0.195c0.009-0.029,0.004-0.055-0.016-0.077
		c-0.128-0.146-0.212-0.285-0.251-0.419c-0.237-0.82-0.521-1.62-0.708-2.446c-0.117-0.513-0.251-1.037-0.337-1.539
		c-0.264-1.515-0.417-2.699-0.46-3.555c-0.053-1.053-0.062-1.859-0.023-2.42c0.07-1.018,0.13-2.1,0.266-3.054
		c0.453-3.187,1.44-6.409,3.038-9.211c0.052-0.09,0.074-0.238,0.151-0.339c0.115-0.149,0.178-0.314,0.261-0.481
		C18.282,31.441,18.467,31.215,18.587,30.964z"/>
	<path fill="#749F92" d="M54.2,35.611l-0.013,0.047c-0.006,0.015-0.015,0.024-0.03,0.027c-0.008,0-0.017,0.002-0.024,0.003
		c-3.139,0.804-6.193,2.134-8.846,3.996c-0.448,0.309-0.89,0.633-1.325,0.96c-0.289,0.22-1.019,0.887-1.205,1.091l-0.349,0.296
		c-0.121,0.069-0.194,0.117-0.222,0.14c-0.635,0.548-1.272,1.178-1.915,1.902c-2.727,3.057-4.692,6.551-5.899,10.473
		c-0.42,1.365-0.732,2.823-0.938,4.369c-0.004,0.029,0.003,0.055,0.021,0.077l0.051,0.073c-0.08,0.09-0.16,0.141-0.242,0.148
		c-0.28,0.015-0.534,0.05-0.761,0.101c-0.129-0.328-0.205-0.604-0.228-0.829c-0.085-0.866-0.201-1.757-0.238-2.603
		c-0.081-1.863-0.054-3.655,0.219-5.535c0.738-5.08,2.788-9.709,6.032-13.693c0.018-0.021,0.016-0.056-0.006-0.103
		c0.087-0.02,0.146-0.067,0.185-0.147c0.084,0.021,0.164,0.02,0.235-0.007c1.858-0.656,3.767-1.097,5.725-1.33
		c0.158-0.017,0.315-0.04,0.473-0.067c0.368-0.062,0.728-0.064,1.098-0.1c0.244-0.025,0.453-0.038,0.626-0.042
		c1.381-0.022,2.763-0.032,4.14,0.115c1.133,0.124,2.255,0.308,3.368,0.561C54.175,35.543,54.197,35.567,54.2,35.611z"/>
	<path fill="#95CC7D" d="M42.758,41.735c0.238-0.233,0.916-0.871,1.205-1.091c0.435-0.327,0.876-0.651,1.325-0.96
		c2.653-1.861,5.708-3.191,8.846-3.996c0.007-0.001,0.016-0.003,0.024-0.003c0.016-0.003,0.024-0.012,0.03-0.027l0.013-0.047
		c0.044,0.194,0.09,0.358,0.064,0.568c-0.036,0.291-0.088,0.764-0.16,1.422c-0.385,3.543-1.628,6.988-3.551,10.15
		c-0.187,0.311-0.419,0.654-0.694,1.034c-0.327,0.452-0.664,0.935-0.99,1.342c-0.755,0.941-1.58,1.821-2.472,2.639
		c-0.426,0.394-0.865,0.813-1.299,1.159c-2.368,1.903-4.994,3.328-7.875,4.276c-0.999,0.333-2.069,0.569-3.125,0.774
		c-0.123,0.022-0.292,0.006-0.513-0.061c-0.006,0-0.011,0.003-0.012,0.006c0,0,0,0,0,0.004c-0.012,0.054-0.034,0.103-0.068,0.141
		l-0.051-0.073c-0.018-0.022-0.024-0.048-0.021-0.077c0.206-1.546,0.518-3.004,0.938-4.369c1.207-3.922,3.172-7.416,5.899-10.473
		c0.643-0.725,1.279-1.354,1.915-1.902c0.028-0.022,0.101-0.07,0.222-0.14l-0.115,0.069"/>
	<path fill="#E1EAE8" d="M25.831,35.768c1.377,1.671,2.965,2.793,4.916,3.679c0.366,0.17,0.735,0.344,1.111,0.524
		c-0.912,0.674-1.64,1.253-2.186,1.75c-0.516,0.463-0.923,0.815-1.219,1.057c-2.233-0.315-3.998-1.368-5.296-3.167
		c-0.015-0.013-0.025-0.025-0.029-0.042c0.085-0.029,0.127-0.089,0.128-0.186c0.001-0.028,0.01-0.059,0.026-0.08
		c0.272-0.392,0.539-0.788,0.796-1.188c0.285-0.44,0.783-1.082,1.496-1.924c0.05-0.059,0.095-0.13,0.135-0.206
		C25.748,35.91,25.788,35.837,25.831,35.768z"/>
	<path fill="#627A6F" d="M38.284,36.552c0.022,0.047,0.024,0.081,0.006,0.103c-3.245,3.984-5.294,8.613-6.032,13.693
		c-0.273,1.88-0.3,3.672-0.219,5.535c0.037,0.846,0.153,1.736,0.238,2.603c0.023,0.225,0.098,0.501,0.228,0.829
		c-0.303,0.005-0.596,0.071-0.872,0.077c-0.401,0.014-0.846,0.074-1.196,0.087c-3.437,0.115-6.758-0.447-9.962-1.7
		c0.059-0.182,0.138-0.361,0.175-0.547c1.134-5.59,3.787-10.415,7.802-14.454c0.296-0.241,0.703-0.594,1.219-1.057
		c0.546-0.497,1.274-1.076,2.186-1.75c1.216-0.827,2.518-1.601,3.904-2.318c0.025-0.01,0.037-0.031,0.04-0.052l0.188-0.026
		c0.03-0.003,0.053-0.019,0.068-0.042c0.146-0.226,0.367-0.208,0.532-0.285C37.144,36.982,37.709,36.751,38.284,36.552z"/>
	<path fill="#749F92" d="M23.157,39.61c1.298,1.799,3.063,2.852,5.296,3.167c-4.015,4.039-6.668,8.864-7.802,14.454
		c-0.038,0.186-0.116,0.365-0.175,0.547l-1.567-0.681c0.013-0.116,0.029-0.232,0.05-0.347c0.022-0.119,0.029-0.233,0.019-0.343
		c-0.076-0.749-0.076-1.307-0.081-2.212c-0.012-2.36,0.309-4.557,0.86-6.845c0.064-0.158,0.118-0.324,0.16-0.497
		c0.196-0.813,0.477-1.652,0.643-2.122c0.489-1.377,1.208-2.897,2.158-4.565c0.074-0.128,0.215-0.34,0.299-0.521
		c0.012-0.026,0.033-0.042,0.06-0.042C23.101,39.601,23.128,39.604,23.157,39.61z"/>
</g>
<text transform="matrix(1 0 0 1 57.397 48.5205)" fill="#1F2A29" font-family="'Montserrat-ExtraBold'" font-size="42.6106">Grassroots</text>
</svg>
