<?xml version="1.0" encoding="utf-8"?>
<!-- Generator: Adobe Illustrator 15.0.0, SVG Export Plug-In . SVG Version: 6.00 Build 0)  -->
<!DOCTYPE svg PUBLIC "-//W3C//DTD SVG 1.1//EN" "http://www.w3.org/Graphics/SVG/1.1/DTD/svg11.dtd">
<svg version="1.1" id="Layer_1" xmlns="http://www.w3.org/2000/svg" xmlns:xlink="http://www.w3.org/1999/xlink" x="0px" y="0px"
	 width="550px" height="120px" viewBox="0 0 550 120" enable-background="new 0 0 550 120" xml:space="preserve">
<g>
	<path fill="#95CC7D" d="M68.425,7.171h1.876c0.898,0.043,1.827,0.02,2.684,0.106c3.68,0.371,6.649,0.918,9.892,1.897
		c0.137,0.041,0.256,0.087,0.356,0.138c0.068,0.033,0.075,0.079,0.025,0.135c-0.188,0.203-0.421,0.353-0.696,0.449
		c-1.87,0.657-3.656,1.301-5.453,2.219c-3.209,1.646-6.431,3.474-9.275,5.722c-2.777,2.194-5.384,4.542-7.696,7.232
		c-3.102,3.612-6.21,8.122-8.482,13.336c-0.75,1.721-1.273,3.041-1.571,3.96c-0.484,1.5-0.806,2.448-0.967,2.845
		c-0.127,0.312-0.216,0.758-0.269,1.338c-0.099,0.035-0.191,0.229-0.275,0.583c-0.227,0.475-0.578,0.903-0.79,1.334
		c-0.156,0.319-0.277,0.633-0.494,0.915c-0.148,0.192-0.187,0.473-0.286,0.644c-3.032,5.316-4.903,11.436-5.765,17.478
		c-0.256,1.804-0.372,3.858-0.503,5.79c-0.073,1.062-0.058,2.592,0.043,4.593c0.082,1.62,0.373,3.867,0.872,6.741
		c0.164,0.954,0.419,1.949,0.641,2.922c0.354,1.564,0.894,3.086,1.342,4.638c0.075,0.255,0.232,0.52,0.477,0.794
		c0.037,0.043,0.046,0.09,0.029,0.146c-0.039,0.118-0.126,0.243-0.263,0.375c-0.419-0.264-0.889-0.489-1.285-0.759
		c-7.906-5.414-14.131-13.431-17.384-22.509c-1.513-4.226-2.448-8.62-2.725-13.107c-0.038-0.618-0.076-1.236-0.114-1.855v-1.489
		c0.054-1.069,0.12-2.138,0.197-3.206c0.201-2.761,0.625-5.485,1.274-8.17c0.408-1.687,1.044-3.388,1.656-5.064
		c3.128-8.536,9.052-15.915,16.354-21.339c2.104-1.564,4.347-2.786,7.234-4.215C55.08,8.817,61.64,7.316,68.425,7.171z"/>
	<path fill="#81C77D" d="M58.79,45.545c-4.831,4.668-5.323,12.437-1.6,17.912c0.006,0.025,0.024,0.051,0.054,0.076
		c-0.054-0.014-0.106-0.019-0.154-0.014c-0.053,0.005-0.091,0.031-0.114,0.08c-0.159,0.348-0.428,0.745-0.567,0.989
		c-1.801,3.163-3.166,6.052-4.094,8.665c-0.315,0.889-0.848,2.48-1.219,4.021c-0.08,0.328-0.182,0.645-0.304,0.945l-0.138,0.012
		c-0.051,0.004-0.084-0.018-0.101-0.065c-0.899-2.54-1.571-4.813-2.014-6.825c-0.49-2.223-0.857-4.648-1.1-7.281
		c-0.264-2.854-0.167-5.779,0.011-8.641c0.133-2.141,0.592-4.355,0.825-6.063c0.026-0.187,0.151-0.329,0.177-0.549
		c0.057-0.473,0.162-0.981,0.314-1.525c0.016-0.058-0.019-0.118-0.076-0.133c-0.005-0.001-0.01-0.002-0.015-0.003l-0.1-0.013
		c0.084-0.354,0.176-0.549,0.275-0.584c0.724-0.853,1.405-1.724,2.048-2.608c0.981-1.352,1.629-2.219,1.947-2.603
		c9.225-11.163,22.495-17.906,36.948-18.969c1.294-0.096,3.177-0.115,5.648-0.059c3.014,0.07,5.982,0.477,8.906,1.217
		c0.147,0.037,0.239,0.064,0.271,0.082c0.24,0.125,0.229,0.222-0.032,0.291c-11.375,3.027-21.253,9.78-28.423,19.13
		c-0.096,0.126-0.272,0.163-0.41,0.084C70.231,39.996,63.271,40.995,58.79,45.545z"/>
	<path fill="#7CBC93" d="M86.293,57.455c-0.072,0.15-0.188,0.242-0.35,0.273c-1.091,0.379-2.163,0.818-3.216,1.32
		c-0.312,0.148-0.732,0.116-1.009,0.541c-0.03,0.048-0.073,0.074-0.129,0.082l-0.357,0.051c-0.019-0.01-0.033-0.021-0.045-0.033
		c-0.032-0.031-0.03-0.061,0.006-0.088c0.213-0.154,0.518-0.301,0.914-0.437c0.372-0.13,0.533-0.452,0.611-0.849
		c1.033-5.225-0.8-10.353-4.829-13.755c-0.045-0.039-0.051-0.106-0.014-0.151c0.011-0.013,0.025-0.023,0.042-0.029
		c0.438-0.179,0.863-0.367,1.274-0.564c4.144-1.985,8.476-3.405,12.995-4.259c4.629-0.876,9.341-1.013,14.029-0.692
		c2.417,0.164,4.803,0.578,7.171,1.089c0.105,0.022,0.186,0.05,0.242,0.083c0.054,0.03,0.073,0.099,0.042,0.152
		c-0.015,0.026-0.041,0.046-0.069,0.054c-7.743,2.05-15.105,5.766-21.124,11c-1.696,1.476-3.305,3.046-4.827,4.709
		C87.197,56.452,86.745,56.952,86.293,57.455z"/>
	<path fill="#E5F2E2" d="M58.79,45.545c-0.023,1.439,0.057,2.615,0.238,3.526c0.534,2.667,1.679,4.99,3.289,7.169
		c-0.081,0.136-0.157,0.273-0.229,0.414c-0.077,0.15-0.163,0.282-0.257,0.393c-1.352,1.598-2.297,2.813-2.837,3.649
		c-0.49,0.759-0.994,1.512-1.512,2.257c-0.031,0.045-0.047,0.094-0.048,0.148c-0.004,0.18-0.085,0.297-0.245,0.355
		C53.466,57.982,53.959,50.214,58.79,45.545z"/>
	<path fill="#7CBC93" d="M48.574,47.132l0.1,0.013c0.06,0.008,0.102,0.063,0.094,0.122c0,0.005-0.001,0.01-0.003,0.015
		c-0.152,0.543-0.257,1.051-0.314,1.524c-0.025,0.222-0.151,0.363-0.177,0.549c-0.233,1.708-0.692,3.923-0.825,6.063
		c-0.178,2.861-0.275,5.787-0.011,8.642c0.243,2.632,0.611,5.059,1.1,7.281c0.443,2.01,1.115,4.285,2.014,6.824
		c0.016,0.048,0.05,0.068,0.101,0.064l0.138-0.01c-1.045,4.338-1.655,8.506-1.63,12.98c0.01,1.725,0.01,2.774,0.153,4.197
		c0.02,0.206,0.01,0.426-0.034,0.656c-0.04,0.217-0.072,0.434-0.096,0.656c-1.486-0.724-3.005-1.561-4.557-2.514
		c-0.292-0.179-0.541-0.411-0.75-0.696c0.137-0.132,0.224-0.257,0.264-0.375c0.018-0.054,0.007-0.103-0.029-0.146
		c-0.244-0.274-0.402-0.539-0.476-0.794c-0.449-1.552-0.989-3.073-1.343-4.638c-0.221-0.973-0.476-1.968-0.641-2.922
		c-0.498-2.874-0.789-5.121-0.871-6.741c-0.102-2.001-0.117-3.531-0.043-4.593c0.132-1.932,0.247-3.986,0.504-5.79
		c0.861-6.042,2.733-12.162,5.764-17.478c0.1-0.171,0.139-0.452,0.287-0.644c0.218-0.283,0.338-0.597,0.494-0.915
		C47.997,48.036,48.347,47.606,48.574,47.132z"/>
	<path fill="#749F92" d="M116.134,55.943l-0.024,0.092c-0.009,0.029-0.028,0.047-0.057,0.051c-0.015,0.001-0.03,0.005-0.046,0.008
		c-5.953,1.525-11.746,4.05-16.782,7.574c-0.849,0.594-1.687,1.203-2.513,1.829c-0.55,0.415-1.934,1.68-2.285,2.069l-0.662,0.558
		c-0.228,0.136-0.368,0.226-0.419,0.271c-1.204,1.034-2.415,2.235-3.632,3.603c-5.172,5.803-8.903,12.426-11.192,19.867
		c-0.796,2.594-1.389,5.355-1.778,8.288c-0.007,0.055,0.005,0.104,0.04,0.149l0.099,0.137c-0.153,0.177-0.307,0.27-0.462,0.281
		c-0.53,0.033-1.012,0.098-1.443,0.191c-0.245-0.621-0.389-1.145-0.431-1.568c-0.163-1.648-0.383-3.336-0.451-4.936
		c-0.153-3.534-0.103-6.943,0.414-10.504c1.4-9.641,5.292-18.424,11.444-25.98c0.033-0.039,0.029-0.104-0.01-0.195
		c0.162-0.031,0.278-0.123,0.35-0.273c0.16,0.037,0.308,0.032,0.443-0.015c3.526-1.245,7.146-2.085,10.863-2.523
		c0.299-0.034,0.598-0.078,0.894-0.128c0.699-0.119,1.382-0.121,2.083-0.188c0.463-0.046,0.86-0.073,1.19-0.078
		c2.621-0.042,5.242-0.063,7.854,0.219c2.148,0.232,4.278,0.585,6.388,1.059C116.086,55.818,116.128,55.866,116.134,55.943z"/>
	<path fill="#95CC7D" d="M94.428,67.566c0.452-0.443,1.735-1.654,2.285-2.069c0.826-0.626,1.664-1.235,2.513-1.829
		c5.036-3.523,10.829-6.049,16.782-7.574c0.015-0.003,0.03-0.007,0.046-0.008c0.029-0.005,0.048-0.021,0.057-0.051l0.024-0.092
		c0.084,0.375,0.171,0.686,0.125,1.082c-0.067,0.552-0.168,1.45-0.304,2.695c-0.73,6.722-3.089,13.262-6.736,19.261
		c-0.356,0.585-0.795,1.238-1.318,1.96c-0.619,0.853-1.258,1.771-1.875,2.542c-1.434,1.789-2.997,3.459-4.689,5.011
		c-0.811,0.745-1.641,1.538-2.464,2.198c-4.494,3.606-9.474,6.312-14.938,8.114c-1.897,0.626-3.927,1.078-5.928,1.467
		c-0.231,0.046-0.557,0.009-0.975-0.112c-0.011-0.002-0.021,0.004-0.022,0.012c0,0.001,0,0.001,0,0.002
		c-0.022,0.105-0.063,0.195-0.126,0.266l-0.099-0.137c-0.034-0.045-0.047-0.094-0.04-0.148c0.39-2.934,0.982-5.695,1.779-8.288
		c2.289-7.442,6.02-14.064,11.192-19.868c1.217-1.367,2.428-2.567,3.632-3.603c0.051-0.046,0.191-0.136,0.419-0.271l-0.219,0.134"/>
	<path fill="#E1EAE8" d="M62.316,56.24c2.613,3.175,5.625,5.3,9.327,6.987c0.691,0.314,1.393,0.646,2.105,0.993
		c-1.729,1.271-3.109,2.376-4.146,3.312c-0.98,0.884-1.751,1.553-2.313,2.004c-4.237-0.592-7.586-2.593-10.047-6.003
		c-0.029-0.025-0.047-0.051-0.053-0.076c0.159-0.059,0.24-0.176,0.245-0.355c0.001-0.055,0.017-0.104,0.048-0.148
		c0.518-0.745,1.022-1.498,1.512-2.257c0.54-0.835,1.485-2.052,2.837-3.649c0.094-0.111,0.18-0.243,0.257-0.393
		C62.159,56.513,62.235,56.376,62.316,56.24z"/>
	<path fill="#627A6F" d="M85.943,57.729c0.04,0.091,0.043,0.156,0.01,0.195c-6.153,7.557-10.045,16.34-11.444,25.98
		c-0.517,3.561-0.567,6.971-0.414,10.504c0.068,1.6,0.289,3.287,0.451,4.936c0.042,0.424,0.187,0.947,0.431,1.568
		c-0.574,0.014-1.13,0.139-1.654,0.153c-0.76,0.02-1.603,0.133-2.267,0.155c-6.521,0.225-12.821-0.848-18.899-3.217
		c0.111-0.353,0.262-0.688,0.333-1.041c2.151-10.605,7.182-19.76,14.8-27.427c0.562-0.452,1.333-1.12,2.313-2.005
		c1.036-0.935,2.418-2.039,4.146-3.311c2.307-1.575,4.776-3.043,7.409-4.401c0.045-0.022,0.069-0.056,0.075-0.098l0.357-0.05
		c0.056-0.008,0.098-0.034,0.128-0.082c0.277-0.425,0.697-0.393,1.01-0.543C83.78,58.547,84.852,58.107,85.943,57.729z"/>
	<path fill="#749F92" d="M57.242,63.533c2.461,3.41,5.81,5.411,10.047,6.003c-7.618,7.667-12.649,16.823-14.8,27.428
		c-0.072,0.353-0.223,0.688-0.333,1.04l-2.973-1.293c0.024-0.223,0.056-0.439,0.096-0.656c0.043-0.23,0.054-0.449,0.034-0.656
		c-0.143-1.422-0.143-2.473-0.153-4.197c-0.024-4.475,0.585-8.643,1.63-12.981c0.122-0.302,0.224-0.616,0.304-0.945
		c0.371-1.542,0.904-3.134,1.219-4.021c0.928-2.615,2.292-5.503,4.094-8.666c0.14-0.244,0.408-0.641,0.567-0.988
		c0.023-0.05,0.061-0.076,0.114-0.08C57.137,63.515,57.188,63.52,57.242,63.533z"/>
</g>
<text transform="matrix(1 0 0 1 128.7671 83.457)" fill="#1F2A29" stroke="#010101" stroke-miterlimit="10" font-family="'Montserrat-ExtraBold'" font-size="70">Grassroots</text>
</svg>
