<?xml version="1.0" encoding="utf-8"?>
<!-- Generator: Adobe Illustrator 15.0.0, SVG Export Plug-In . SVG Version: 6.00 Build 0)  -->
<!DOCTYPE svg PUBLIC "-//W3C//DTD SVG 1.1//EN" "http://www.w3.org/Graphics/SVG/1.1/DTD/svg11.dtd">
<svg version="1.1" id="Layer_1" xmlns="http://www.w3.org/2000/svg" xmlns:xlink="http://www.w3.org/1999/xlink" x="0px" y="0px"
	 width="80px" height="50px" viewBox="0 0 80 50" enable-background="new 0 0 80 50" xml:space="preserve">
<path fill="#00AEEF" d="M73.063,13.602c0,3.84-3.113,6.954-6.953,6.954s-6.954-3.114-6.954-6.954l0,0
	c0-3.841,3.114-6.954,6.954-6.954l0,0C69.949,6.647,73.063,9.761,73.063,13.602z M64.858,7.284c0.241-0.141,0.224-0.197-0.056-0.169
	c-0.221,0.021-0.46,0.069-0.722,0.145c-0.105,0.03-0.124,0.088-0.057,0.176l0.076,0.099c0.065,0.088,0.147,0.104,0.242,0.047
	L64.858,7.284z M67.399,7.274l0.498,0.316c0.079,0.051,0.186,0.026,0.236-0.054c0.003-0.006,0.007-0.012,0.01-0.018
	c0.063-0.129,0.05-0.209-0.038-0.241c-0.216-0.077-0.488-0.182-0.69-0.114C67.33,7.188,67.324,7.227,67.399,7.274z M64.566,7.762
	c-0.034,0.02-0.047,0.065-0.028,0.101c0.007,0.01,0.015,0.019,0.023,0.025l0.33,0.214c0.031,0.023,0.077,0.015,0.101-0.017
	l0.482-0.675c0.021-0.034,0.012-0.08-0.022-0.103c-0.022-0.014-0.051-0.016-0.074-0.003L64.566,7.762z M66.935,7.333
	c-0.183-0.119-0.231-0.078-0.146,0.122c0.085,0.208,0.23,0.408,0.432,0.6c0.057,0.053,0.142,0.055,0.202,0.005l0.162-0.134
	c0.046-0.038,0.052-0.106,0.014-0.151c-0.008-0.008-0.016-0.016-0.024-0.021L66.935,7.333z M65.319,8.13
	c-0.028,0.037-0.021,0.089,0.018,0.118c0.011,0.008,0.023,0.013,0.036,0.016l0.521,0.09c0.044,0.008,0.088-0.022,0.098-0.069
	c0-0.004,0-0.007,0-0.011l0.025-0.809c0-0.046-0.037-0.085-0.082-0.086c-0.028,0-0.054,0.013-0.069,0.034L65.319,8.13z
	 M66.261,8.247c-0.002,0.054,0.042,0.098,0.096,0.099c0.007,0,0.011-0.001,0.016-0.001l0.46-0.067
	c0.054-0.008,0.09-0.058,0.082-0.11c-0.003-0.015-0.009-0.029-0.018-0.042l-0.455-0.631c-0.029-0.044-0.091-0.055-0.136-0.024
	c-0.024,0.018-0.041,0.049-0.041,0.081L66.261,8.247z M68.304,10.973c-0.137,0.012-0.222-0.049-0.255-0.182l-0.189-0.753
	c-0.019-0.075-0.065-0.107-0.142-0.097l-1.41,0.191c-0.025,0.002-0.046,0.024-0.046,0.05l0.016,1.097
	c0.002,0.06,0.032,0.086,0.092,0.08l1.259-0.122c0.056-0.007,0.104,0.033,0.11,0.089c0.002,0.02-0.002,0.039-0.011,0.058
	L67.68,11.48c-0.031,0.065-0.094,0.109-0.167,0.114l-1.1,0.109c-0.088,0.01-0.152,0.085-0.151,0.172l0.003,0.154
	c0.004,0.089-0.04,0.133-0.132,0.132l-0.098-0.005c-0.049,0-0.088-0.04-0.088-0.087l0,0l0.012-1.838
	c0.002-0.129-0.06-0.177-0.183-0.142c-0.255,0.075-0.458,0.018-0.608-0.171c-0.047-0.06-0.036-0.145,0.024-0.192
	c0.017-0.013,0.036-0.022,0.058-0.026c0.161-0.03,0.313-0.008,0.457,0.067c0.082,0.039,0.182,0.006,0.221-0.076
	c0.01-0.021,0.016-0.043,0.016-0.066l0.032-0.883c0-0.058-0.027-0.085-0.086-0.082c-0.204,0.009-0.403-0.028-0.592-0.107
	C65.2,8.511,65.085,8.55,65.033,8.645l-0.328,0.6c-0.031,0.063-0.079,0.075-0.139,0.035l-0.069-0.05
	c-0.088-0.059-0.113-0.176-0.057-0.266l0.271-0.433c0.047-0.074,0.024-0.172-0.048-0.22c-0.001-0.001-0.003-0.001-0.003-0.001
	l-0.288-0.181c-0.098-0.062-0.192-0.057-0.284,0.014L63.41,8.67c-0.06,0.047-0.146,0.045-0.202-0.006l-0.069-0.059
	c-0.034-0.03-0.037-0.085-0.006-0.121c0.003-0.004,0.006-0.007,0.013-0.011l0.668-0.537c0.074-0.059,0.085-0.167,0.026-0.241
	c-0.001-0.001-0.003-0.003-0.005-0.004l-0.099-0.11c-0.066-0.075-0.174-0.097-0.264-0.054c-2.348,1.09-3.674,2.923-3.983,5.496
	c-0.026,0.234,0.058,0.288,0.256,0.161l0.939-0.604c0.186-0.118,0.283-0.334,0.252-0.552c-0.051-0.366-0.183-0.788-0.167-1.149
	c0.151-3.803,5.997-1.373,4.071,1.06c-0.051,0.065-0.079,0.143-0.082,0.224c-0.025,0.606-0.275,1.08-0.752,1.419
	c-0.396,0.284-0.817,0.154-1.249,0.03c-0.133-0.04-0.274,0.037-0.315,0.171c-0.01,0.035-0.013,0.071-0.006,0.107l0.343,2.455
	c0.005,0.042,0.032,0.077,0.071,0.095c0.655,0.285,1.284,0.258,1.89-0.082c0.075-0.043,0.147-0.04,0.217,0.012
	c0.139,0.104,0.298,0.154,0.477,0.152c0.088-0.001,0.159,0.07,0.16,0.159c0.01,0.397-0.128,0.731-0.408,1
	c-0.064,0.062-0.152,0.091-0.244,0.082c-0.529-0.054-0.863-0.084-1.434,0.037c-0.521,0.109-1.04,0.101-1.564-0.027
	c-0.081-0.021-0.146,0-0.203,0.06c-0.23,0.234-0.221,0.483,0.028,0.746c0.636,0.668,1.282,0.527,2.146,0.211
	c0.749-0.273,1.507-0.483,2.272-0.627c0.211-0.039,0.35-0.243,0.309-0.455c-0.002-0.01-0.003-0.019-0.006-0.028
	c-0.144-0.552-0.061-1.256-0.428-1.694c-0.363-0.43-1.189-0.731-0.909-1.45c0.171-0.436,0.405-0.835,0.706-1.197
	c0.052-0.062,0.072-0.146,0.054-0.226L65.85,12.86c-0.029-0.126,0.02-0.198,0.147-0.217c0.703-0.099,1.217-0.316,1.541-0.651
	c2.665-2.748,6.518,1.599,4.04,4.368c-0.594,0.661-1.32,0.971-2.181,0.93c-0.071-0.002-0.129,0.052-0.132,0.122l0,0
	c-0.024,0.606,0.229,1.061,0.756,1.36c0.057,0.034,0.131,0.029,0.183-0.015c2.537-2.06,3.421-5.71,1.538-8.603
	c-0.051-0.078-0.113-0.093-0.193-0.044l-0.839,0.507c-0.067,0.041-0.101,0.119-0.085,0.196l0.047,0.221
	c0.025,0.11-0.006,0.128-0.094,0.057c-0.311-0.254-0.639-0.156-0.848-0.291c-0.025-0.015-0.043-0.033-0.049-0.054
	c-0.032-0.066-0.013-0.109,0.061-0.127l0.199-0.047c0.086-0.02,0.142-0.106,0.121-0.194c-0.003-0.019-0.011-0.036-0.022-0.053
	l-0.606-0.927c-0.049-0.075-0.146-0.103-0.226-0.064L68.25,9.779c-0.065,0.031-0.088,0.082-0.064,0.151l0.305,0.888
	c0.019,0.059-0.013,0.122-0.072,0.142c-0.009,0.002-0.017,0.005-0.025,0.005L68.304,10.973z M69.87,8.142l-1.153-0.622
	c-0.079-0.042-0.148-0.03-0.211,0.04L68.401,7.68c-0.07,0.08-0.065,0.156,0.013,0.229l0.831,0.761
	c0.14,0.127,0.283,0.133,0.433,0.017l0.221-0.174C70.078,8.374,70.068,8.25,69.87,8.142z M67.684,8.267
	c-0.082,0.012-0.144,0.05-0.187,0.117c-0.036,0.054-0.037,0.125-0.003,0.179l0.403,0.679c0.085,0.146,0.208,0.189,0.369,0.129
	l0.65-0.251c0.087-0.033,0.129-0.128,0.096-0.213c-0.009-0.025-0.023-0.047-0.044-0.065l-0.866-0.766
	c-0.051-0.045-0.101-0.043-0.153,0.002l-0.146,0.135C67.769,8.241,67.728,8.26,67.684,8.267z M66.269,9.635
	c-0.004,0.071,0.054,0.131,0.126,0.132c0.006,0.001,0.013,0,0.021,0l1.11-0.159c0.072-0.01,0.12-0.076,0.11-0.146
	c-0.001-0.014-0.006-0.028-0.013-0.041L67.194,8.6c-0.024-0.053-0.085-0.08-0.143-0.067l-0.677,0.164
	c-0.057,0.015-0.098,0.066-0.098,0.125L66.269,9.635z M70.381,10.209c0.054,0.079,0.157,0.103,0.239,0.054l0.725-0.433
	c0.082-0.05,0.11-0.158,0.061-0.242c-0.007-0.012-0.015-0.022-0.024-0.032l-0.864-0.903c-0.063-0.065-0.163-0.073-0.233-0.02
	l-0.506,0.383c-0.074,0.058-0.092,0.164-0.036,0.241L70.381,10.209z"/>
<path fill="#00AEEF" d="M49.402,11.798c0.034-0.585,0.046-1.171,0.034-1.756c-0.053-2.904,2.131-3.517,4.582-3.031
	c0.045,0.008,0.078,0.048,0.078,0.094l0.011,1.53c0,0.042-0.031,0.078-0.076,0.08c-0.003,0-0.006,0-0.009,0
	c-2.922-0.294-2.601,0.723-2.606,3.034c0,0.11,0.054,0.164,0.164,0.164l2.058-0.002c0.134-0.001,0.198,0.064,0.195,0.196
	l-0.013,1.048c-0.003,0.124-0.066,0.186-0.188,0.186l-2,0.002c-0.105,0-0.193,0.087-0.193,0.195l-0.021,8.575
	c0,0.086-0.068,0.154-0.153,0.154c-0.003,0-0.003,0-0.003,0l-1.728-0.024c-0.065-0.001-0.121-0.058-0.121-0.126l0.002-8.653
	c0-0.076-0.06-0.137-0.136-0.137c-0.002,0-0.003,0-0.003,0l-1.428,0.017c-0.169,0.002-0.252-0.082-0.252-0.25l0.006-0.93
	c0-0.163,0.082-0.243,0.243-0.241l1.418,0.013C49.352,11.933,49.399,11.888,49.402,11.798z"/>
<path fill="#FFFFFF" d="M64.858,7.284l-0.516,0.298c-0.095,0.057-0.177,0.041-0.242-0.047l-0.076-0.099
	c-0.067-0.088-0.049-0.146,0.057-0.176c0.262-0.075,0.501-0.123,0.722-0.145C65.082,7.087,65.1,7.143,64.858,7.284z"/>
<path fill="#FFFFFF" d="M67.415,7.163c0.202-0.068,0.475,0.037,0.69,0.114c0.088,0.032,0.101,0.112,0.038,0.241
	C68.103,7.604,68.002,7.64,67.915,7.6c-0.007-0.003-0.011-0.006-0.018-0.01l-0.498-0.316C67.324,7.227,67.33,7.188,67.415,7.163z"/>
<path fill="#FFFFFF" d="M64.566,7.762l0.812-0.458c0.036-0.02,0.08-0.006,0.1,0.031c0.013,0.024,0.013,0.053-0.003,0.075
	l-0.482,0.675c-0.023,0.032-0.069,0.04-0.101,0.017l-0.33-0.214c-0.033-0.023-0.042-0.069-0.021-0.103
	C64.548,7.775,64.557,7.768,64.566,7.762z"/>
<path fill="#FFFFFF" d="M66.935,7.333l0.639,0.421c0.05,0.032,0.063,0.099,0.031,0.148c-0.007,0.009-0.013,0.017-0.021,0.024
	L67.422,8.06c-0.061,0.05-0.146,0.048-0.202-0.005c-0.201-0.192-0.347-0.392-0.432-0.6C66.703,7.256,66.752,7.215,66.935,7.333z"/>
<path fill="#00AEEF" d="M24.67,7.331l2.12,0.007c0.081,0.001,0.146,0.066,0.146,0.147L26.929,9.4c0,0.082-0.066,0.147-0.147,0.146
	l-2.119-0.007c-0.08,0-0.146-0.066-0.146-0.147l0.006-1.916C24.524,7.396,24.589,7.33,24.67,7.331z"/>
<path fill="#FFFFFF" d="M65.319,8.13l0.546-0.716c0.028-0.038,0.082-0.044,0.119-0.016c0.021,0.016,0.032,0.041,0.032,0.067
	l-0.025,0.809c0,0.046-0.041,0.083-0.087,0.08c-0.005,0-0.008,0-0.011,0l-0.521-0.09c-0.047-0.008-0.077-0.052-0.069-0.099
	C65.307,8.153,65.313,8.14,65.319,8.13z"/>
<path fill="#FFFFFF" d="M66.261,8.247l0.004-0.696c0-0.054,0.041-0.098,0.095-0.099c0.033,0,0.063,0.015,0.082,0.042l0.455,0.631
	c0.032,0.044,0.021,0.105-0.023,0.136c-0.013,0.008-0.025,0.014-0.041,0.017l-0.46,0.067c-0.054,0.009-0.103-0.028-0.11-0.081
	C66.262,8.258,66.261,8.252,66.261,8.247z"/>
<path fill="#FFFFFF" d="M68.49,10.818L68.186,9.93c-0.023-0.069-0.001-0.12,0.064-0.151l0.958-0.445
	c0.079-0.038,0.177-0.01,0.226,0.064l0.606,0.927c0.051,0.075,0.028,0.175-0.047,0.224c-0.016,0.011-0.033,0.018-0.052,0.022
	l-0.199,0.047c-0.073,0.018-0.093,0.061-0.061,0.127c0.006,0.021,0.023,0.04,0.049,0.054c0.209,0.135,0.537,0.037,0.848,0.291
	c0.088,0.071,0.119,0.053,0.094-0.057l-0.047-0.221c-0.016-0.077,0.018-0.156,0.085-0.196l0.839-0.507
	c0.08-0.049,0.143-0.034,0.193,0.044c1.883,2.893,0.999,6.543-1.538,8.603c-0.052,0.043-0.126,0.049-0.183,0.015
	c-0.527-0.3-0.78-0.754-0.756-1.36c0.003-0.07,0.061-0.125,0.132-0.122l0,0c0.86,0.042,1.587-0.269,2.181-0.93
	c2.478-2.769-1.375-7.116-4.04-4.368c-0.324,0.335-0.838,0.552-1.541,0.651c-0.128,0.019-0.177,0.091-0.147,0.217l0.063,0.253
	c0.019,0.08-0.002,0.164-0.054,0.226c-0.301,0.362-0.535,0.761-0.706,1.197c-0.28,0.719,0.546,1.02,0.909,1.45
	c0.367,0.438,0.284,1.142,0.428,1.694c0.055,0.209-0.069,0.421-0.276,0.477c-0.008,0.002-0.018,0.004-0.026,0.006
	c-0.766,0.144-1.523,0.354-2.272,0.627c-0.863,0.316-1.51,0.458-2.146-0.211c-0.249-0.263-0.259-0.512-0.028-0.746
	c0.057-0.06,0.122-0.081,0.203-0.06c0.524,0.127,1.044,0.136,1.564,0.027c0.57-0.122,0.904-0.091,1.434-0.037
	c0.092,0.009,0.18-0.021,0.244-0.082c0.28-0.269,0.418-0.602,0.408-1c-0.001-0.089-0.072-0.161-0.16-0.159
	c-0.179,0.001-0.338-0.049-0.477-0.152c-0.069-0.051-0.142-0.055-0.217-0.012c-0.605,0.34-1.234,0.367-1.89,0.082
	c-0.039-0.018-0.066-0.053-0.071-0.095l-0.343-2.455c-0.021-0.139,0.075-0.267,0.214-0.287c0.038-0.004,0.072-0.002,0.107,0.008
	c0.432,0.124,0.854,0.253,1.249-0.03c0.477-0.339,0.727-0.813,0.752-1.419c0.003-0.081,0.031-0.159,0.082-0.224
	c1.926-2.433-3.92-4.862-4.071-1.06c-0.016,0.361,0.116,0.783,0.167,1.149c0.031,0.218-0.066,0.434-0.252,0.552l-0.939,0.604
	c-0.198,0.126-0.282,0.073-0.256-0.161c0.31-2.573,1.636-4.406,3.983-5.496c0.09-0.042,0.197-0.021,0.264,0.054l0.099,0.11
	c0.063,0.071,0.054,0.179-0.017,0.242c-0.002,0.001-0.003,0.003-0.005,0.004l-0.668,0.537c-0.038,0.03-0.046,0.084-0.016,0.122
	c0.003,0.004,0.006,0.007,0.009,0.011l0.069,0.059c0.057,0.051,0.143,0.053,0.202,0.006l0.679-0.528
	c0.092-0.071,0.187-0.076,0.284-0.014l0.288,0.181c0.075,0.046,0.098,0.145,0.051,0.219c0,0.001,0,0.002,0,0.002L64.44,8.963
	c-0.057,0.09-0.031,0.207,0.057,0.266l0.069,0.05c0.06,0.04,0.107,0.028,0.139-0.035l0.328-0.6c0.052-0.095,0.167-0.134,0.265-0.092
	c0.188,0.08,0.388,0.116,0.592,0.107c0.059-0.003,0.086,0.024,0.086,0.082l-0.032,0.883c-0.003,0.091-0.078,0.162-0.168,0.159
	c-0.024-0.001-0.046-0.006-0.068-0.017C65.563,9.691,65.411,9.669,65.25,9.7c-0.073,0.014-0.122,0.085-0.108,0.16
	c0.005,0.021,0.015,0.042,0.026,0.059c0.15,0.189,0.354,0.247,0.608,0.171c0.123-0.035,0.185,0.013,0.183,0.142l-0.012,1.838
	c0,0.048,0.039,0.087,0.088,0.087l0,0l0.098,0.005c0.092,0.001,0.136-0.042,0.132-0.132l-0.003-0.154
	c-0.001-0.086,0.063-0.162,0.151-0.172l1.1-0.109c0.073-0.005,0.136-0.049,0.167-0.114l0.048-0.097
	c0.025-0.051,0.006-0.112-0.043-0.137c-0.018-0.009-0.036-0.012-0.057-0.01l-1.259,0.122c-0.06,0.007-0.09-0.02-0.092-0.08
	l-0.016-1.097c0-0.025,0.021-0.047,0.046-0.05l1.41-0.191c0.076-0.01,0.123,0.022,0.142,0.097l0.189,0.753
	c0.033,0.133,0.118,0.194,0.255,0.182l0.089-0.007c0.062-0.005,0.106-0.06,0.103-0.121C68.493,10.835,68.491,10.827,68.49,10.818z"
	/>
<path fill="#FFFFFF" d="M69.87,8.142c0.198,0.108,0.208,0.231,0.028,0.371l-0.221,0.174c-0.149,0.116-0.293,0.11-0.433-0.017
	l-0.831-0.761c-0.078-0.073-0.083-0.149-0.013-0.229l0.104-0.119c0.063-0.07,0.132-0.083,0.211-0.04L69.87,8.142z"/>
<path fill="#FFFFFF" d="M67.803,8.212l0.146-0.135c0.053-0.045,0.103-0.047,0.153-0.002l0.866,0.766
	c0.069,0.059,0.076,0.163,0.015,0.232c-0.018,0.021-0.041,0.037-0.066,0.046l-0.65,0.251c-0.161,0.06-0.284,0.017-0.369-0.129
	l-0.403-0.679c-0.034-0.054-0.033-0.125,0.003-0.179c0.043-0.067,0.104-0.105,0.187-0.117C67.728,8.26,67.769,8.241,67.803,8.212z"
	/>
<path fill="#00AEEF" d="M57.153,10.726c0.175-0.882,0.606-1.611,1.3-2.188c0.17-0.141,0.229-0.104,0.186,0.112
	c-0.063,0.28-0.146,0.598-0.252,0.953c-0.213,0.712-0.507,1.172-0.883,1.38C57.203,11.147,57.087,11.062,57.153,10.726z"/>
<path fill="#FFFFFF" d="M66.269,9.635l0.009-0.813c0-0.059,0.041-0.11,0.098-0.125l0.677-0.164C67.109,8.52,67.17,8.547,67.194,8.6
	l0.429,0.821c0.032,0.064,0.007,0.142-0.057,0.174c-0.013,0.006-0.025,0.01-0.041,0.013l-1.11,0.159
	c-0.071,0.009-0.138-0.041-0.146-0.111C66.269,9.648,66.269,9.642,66.269,9.635z"/>
<path fill="#00AEEF" d="M74.802,11.139c-0.665-0.551-1.093-1.69-1.197-2.531c-0.016-0.129,0.028-0.156,0.136-0.08
	c0.76,0.544,1.418,1.572,1.21,2.559C74.928,11.186,74.879,11.204,74.802,11.139z"/>
<path fill="#FFFFFF" d="M70.381,10.209l-0.64-0.95c-0.056-0.077-0.038-0.184,0.036-0.241l0.506-0.383
	c0.07-0.054,0.17-0.046,0.233,0.02l0.864,0.903c0.068,0.07,0.065,0.182-0.004,0.25c-0.01,0.008-0.022,0.016-0.032,0.023
	l-0.725,0.433C70.538,10.313,70.435,10.289,70.381,10.209z"/>
<path fill="#00AEEF" d="M73.142,9.956c0.961,0.515,1.613,1.338,1.651,2.467c0.013,0.329-0.085,0.374-0.293,0.135
	c-0.651-0.745-1.138-1.582-1.463-2.513c-0.013-0.039,0.007-0.081,0.044-0.094C73.102,9.942,73.124,9.944,73.142,9.956z"/>
<path fill="#00AEEF" d="M57.419,12.246c0.192-1.066,0.754-1.794,1.682-2.186c0.129-0.054,0.169-0.016,0.116,0.117
	c-0.351,0.904-0.855,1.713-1.509,2.427c-0.059,0.063-0.156,0.067-0.22,0.01c-0.013-0.013-0.023-0.028-0.031-0.044
	C57.408,12.478,57.396,12.37,57.419,12.246z"/>
<path fill="#00AEEF" d="M56.761,10.403c0.441,0.597,0.419,2.624,0.318,3.246c-0.063,0.38-0.182,0.397-0.354,0.052
	c-0.532-1.056-0.583-2.146-0.154-3.27C56.619,10.306,56.682,10.297,56.761,10.403z"/>
<path fill="#00AEEF" d="M75.323,10.276c0-0.006,0.005-0.01,0.01-0.01l0,0l0.013,0.003c0.401,0.032,0.66,0.859,0.58,1.845
	l-0.008,0.105c-0.081,0.986-0.472,1.761-0.873,1.728l0,0l-0.013-0.003c-0.007,0-0.01-0.004-0.01-0.009L75.323,10.276z"/>
<path fill="#00AEEF" d="M15.755,13.094c-0.002,0.052,0.037,0.096,0.089,0.099c0.033,0.002,0.064-0.013,0.083-0.039
	c1.828-2.53,6.867-1.958,6.927,1.619c0.041,2.492,0.059,4.952,0.052,7.379c0,0.123-0.062,0.185-0.184,0.185l-1.625,0.002
	c-0.111,0-0.203-0.088-0.204-0.199c0-0.001,0-0.002,0-0.002c0.015-3.661,0.005-5.991-0.032-6.989
	c-0.042-1.166-0.897-1.895-2.037-1.989c-1.835-0.152-2.932,1.151-2.962,2.917c-0.035,2.063-0.047,4.083-0.035,6.063
	c0.001,0.121-0.059,0.183-0.179,0.184l-1.682,0.005c-0.104,0.001-0.156-0.05-0.156-0.154l-0.01-9.938
	c0-0.226,0.112-0.339,0.335-0.339l1.341,0.005c0.228,0.002,0.337,0.116,0.325,0.343L15.755,13.094z"/>
<path fill="#00AEEF" d="M36.943,18.782c0.046,0,0.068,0.023,0.065,0.07c-0.247,3.171-3.4,4.415-6.104,3.417
	c-3.363-1.236-3.41-6.75-1.541-9.067c2.171-2.691,7.266-2,7.571,1.91c0.007,0.094-0.064,0.176-0.159,0.184c-0.005,0-0.009,0-0.015,0
	l-1.612-0.027c-0.134-0.002-0.216-0.068-0.248-0.2c-0.298-1.29-0.804-2.079-2.276-1.967c-2.945,0.229-2.902,5.712-1.49,7.3
	c1.41,1.587,3.753,0.547,3.86-1.542c0.001-0.051,0.027-0.077,0.08-0.077H36.943z"/>
<path fill="#00AEEF" d="M39.958,17.541c-0.092,1.034,0.156,2.226,0.943,2.972c1.278,1.218,3.92,0.646,4.063-1.313
	c0.008-0.129,0.077-0.194,0.209-0.194l1.781,0.002c0.124,0,0.176,0.061,0.157,0.183c-0.277,1.729-1.404,2.796-3.098,3.219
	c-1.597,0.397-3.619,0.191-4.813-1.052c-1.208-1.262-1.378-3.025-1.32-4.783c0.082-2.567,1.619-4.752,4.31-4.944
	c3.799-0.269,5.249,2.342,5.039,5.688c-0.007,0.099-0.087,0.174-0.185,0.174l-7.013-0.02C39.993,17.474,39.961,17.503,39.958,17.541
	z M40.114,16.118l4.91-0.044c0.08,0,0.144-0.064,0.144-0.144v-0.038c-0.013-1.56-1.097-2.813-2.423-2.803c-0.001,0-0.001,0-0.001,0
	l-0.398,0.005c-1.325,0.012-2.388,1.284-2.375,2.843v0.037C39.97,16.053,40.034,16.118,40.114,16.118z"/>
<path fill="#00AEEF" d="M9.929,21.18c0.021-0.352-0.071-0.385-0.277-0.1c-1.38,1.92-4.794,2.216-6.177,0.083
	c-0.411-0.632-0.62-1.354-0.627-2.164c-0.018-2.378-0.024-4.707-0.018-6.987c0.001-0.086,0.046-0.129,0.132-0.129l1.778-0.002
	c0.074,0,0.134,0.061,0.134,0.135c0.003,1.983,0.008,3.924,0.013,5.824c0.005,1.781,0.273,3.552,2.475,3.285
	c2.176-0.263,2.494-2.191,2.477-3.992c-0.018-1.74-0.022-3.444-0.013-5.108c0-0.087,0.044-0.131,0.132-0.131l1.776,0.022
	c0.084,0.002,0.127,0.045,0.127,0.13v9.948c0,0.224-0.112,0.335-0.336,0.333l-1.34-0.002c-0.216,0-0.317-0.109-0.306-0.326
	L9.929,21.18z"/>
<path fill="#00AEEF" d="M24.841,11.893h1.771c0.067,0,0.122,0.054,0.122,0.122v10.197c0,0.067-0.055,0.121-0.122,0.121h-1.771
	c-0.067,0-0.122-0.054-0.122-0.121V12.015C24.719,11.947,24.774,11.893,24.841,11.893z"/>
<path fill="#00AEEF" d="M74.524,15.141c-0.488-0.869-0.795-1.801-0.92-2.795c-0.025-0.201,0.043-0.239,0.202-0.115
	c0.726,0.575,1.459,1.997,1.023,2.9C74.736,15.33,74.632,15.333,74.524,15.141z"/>
<path fill="#00AEEF" d="M57.313,14.922c-0.022-1.176,0.265-1.915,1.105-2.743c0.041-0.038,0.103-0.039,0.141,0
	c0.014,0.015,0.023,0.033,0.026,0.053c0.136,0.808-0.51,2.256-0.885,2.992c-0.051,0.101-0.123,0.117-0.215,0.049
	C57.374,15.19,57.315,15.073,57.313,14.922z"/>
<path fill="#00AEEF" d="M74.72,16.521c0.235-1.229,0.701-2.36,1.399-3.395c0.085-0.126,0.142-0.113,0.164,0.037
	c0.197,1.221-0.288,2.843-1.431,3.457C74.739,16.682,74.695,16.649,74.72,16.521z"/>
<path fill="#FFFFFF" d="M40.114,16.118c-0.08,0-0.144-0.065-0.144-0.145v-0.037c-0.013-1.559,1.05-2.831,2.375-2.843l0.398-0.005
	c1.325-0.012,2.411,1.242,2.424,2.801c0,0.001,0,0.002,0,0.002v0.038c0,0.08-0.063,0.144-0.144,0.144L40.114,16.118z"/>
<path fill="#00AEEF" d="M56.198,13.23c0.55,0.854,1.213,2.219,1.355,3.249c0.009,0.083-0.05,0.158-0.135,0.168
	c-0.037,0.004-0.075-0.006-0.106-0.029c-1.075-0.826-1.535-1.934-1.384-3.325C55.96,13.02,56.049,12.999,56.198,13.23z"/>
<path fill="#00AEEF" d="M73.767,14.288c0.696,0.935,0.925,2.298,0.28,3.328c-0.045,0.074-0.145,0.096-0.219,0.05
	c-0.034-0.022-0.06-0.055-0.069-0.095c-0.285-1.058-0.362-2.13-0.233-3.218C73.551,14.13,73.633,14.109,73.767,14.288z"/>
<path fill="#00AEEF" d="M58.292,17.67c-0.799-0.908-0.524-2.389,0.134-3.307c0.189-0.264,0.297-0.234,0.32,0.089
	c0.082,1.07-0.003,2.125-0.252,3.169c-0.016,0.063-0.079,0.102-0.142,0.086C58.33,17.702,58.308,17.688,58.292,17.67z"/>
<path fill="#00AEEF" d="M56.474,16.248c0.983,0.788,1.944,1.85,2.452,2.944c0.116,0.251,0.05,0.318-0.202,0.204
	c-1.295-0.595-2.132-1.587-2.515-2.977C56.121,16.093,56.209,16.035,56.474,16.248z"/>
<path fill="#00AEEF" d="M73.458,19.416c-0.134,0.058-0.197,0.014-0.188-0.132c0.057-0.778,1.888-2.549,2.499-3.044
	c0.243-0.197,0.324-0.145,0.246,0.159C75.646,17.824,74.793,18.829,73.458,19.416z"/>
<path fill="#00AEEF" d="M60.387,19.841c0,0.001-0.002,0.002-0.002,0.002l0,0l-0.01,0.003c-0.522,0.152-1.169-0.493-1.443-1.44
	c0-0.001,0-0.001,0-0.002l-0.021-0.072c-0.272-0.947-0.07-1.838,0.452-1.99l0.01-0.003c0.003,0,0.003,0.001,0.003,0.003l0,0
	L60.387,19.841z"/>
<path fill="#00AEEF" d="M71.979,19.737c0.063-1.085,0.508-2.321,1.015-3.303c0.031-0.059,0.104-0.083,0.164-0.053
	c0.026,0.014,0.047,0.039,0.057,0.067c0.471,1.392,0.164,2.54-0.925,3.445c-0.08,0.067-0.2,0.056-0.267-0.026
	C71.991,19.832,71.976,19.785,71.979,19.737z"/>
<path fill="#00AEEF" d="M71.687,18.648c0.063-0.047,0.123-0.064,0.18-0.052c0.058,0.011,0.094,0.066,0.082,0.123
	c-0.001,0.003-0.001,0.005-0.001,0.009c-0.426,1.455-0.713,2.564-2.543,2.472c-0.166-0.009-0.212-0.087-0.135-0.234
	C69.705,20.135,70.933,19.198,71.687,18.648z"/>
<path fill="#00AEEF" d="M63.13,20.965c0.003,0.002,0.003,0.007,0.001,0.01c0,0.001-0.001,0.002-0.001,0.002l0,0
	c-0.424,0.441-1.337,0.252-2.039-0.422v0l-0.056-0.052c-0.704-0.673-0.931-1.578-0.507-2.019l0,0l0,0
	c0.001-0.004,0.006-0.005,0.011-0.002c0,0.001,0,0.001,0.002,0.002L63.13,20.965z"/>
<path fill="#00AEEF" d="M57.829,19.237c1.159,0.396,2.335,1.045,3.259,1.816c0.072,0.061,0.081,0.168,0.021,0.241
	c-0.025,0.03-0.06,0.051-0.099,0.057c-1.512,0.267-2.681-0.606-3.412-1.83C57.416,19.217,57.492,19.123,57.829,19.237z"/>
<path fill="#00AEEF" d="M71.123,21.092c0.947-0.768,2.322-1.662,3.519-1.851c0.088-0.013,0.11,0.02,0.066,0.098
	c-0.779,1.368-1.866,2.271-3.525,1.982c-0.07-0.012-0.118-0.078-0.107-0.149C71.08,21.141,71.098,21.113,71.123,21.092z"/>
<path fill="#00AEEF" d="M65.348,22.316c0.223-0.134,0.208-0.24-0.041-0.316l-0.354-0.106c-0.252-0.078-0.476-0.028-0.673,0.149
	c-0.831,0.751-2.931,0.406-3.794,0.067c-0.474-0.185-0.46-0.322,0.043-0.41c1.624-0.283,3.354-0.517,4.669-0.124
	c0.573,0.171,0.75,0.333,1.354,0.151c1.705-0.515,3.634-0.42,5.304-0.005c0.325,0.082,0.331,0.186,0.023,0.314
	c-0.953,0.39-3.029,0.795-3.946,0.007c-0.199-0.172-0.426-0.224-0.68-0.154l-0.413,0.115c-0.247,0.066-0.258,0.159-0.032,0.278
	c0.737,0.39,1.354,0.918,1.855,1.584c0.066,0.089,0.048,0.216-0.042,0.284c-0.002,0.001-0.005,0.003-0.008,0.004l-0.073,0.05
	c-0.069,0.045-0.159,0.039-0.221-0.018l-1.932-1.735c-0.105-0.094-0.26-0.105-0.375-0.028c-0.753,0.498-1.424,1.087-2.014,1.769
	c-0.067,0.079-0.186,0.09-0.268,0.024l-0.063-0.05c-0.15-0.12-0.162-0.253-0.037-0.4C64.124,23.193,64.695,22.709,65.348,22.316z"/>
<path fill="#00AEEF" d="M5.897,27.861L8.2,31.133c0.018,0.027,0.018,0.063,0,0.09l-1.475,2.109
	c-0.026,0.035-0.076,0.045-0.111,0.018c-0.007-0.004-0.014-0.012-0.018-0.018l-3.781-5.377c-0.024-0.033-0.015-0.084,0.021-0.109
	c0.014-0.01,0.03-0.012,0.046-0.012l2.947-0.008C5.856,27.826,5.881,27.84,5.897,27.861z"/>
<path fill="#00AEEF" d="M15.581,41.951h-2.87c-0.041,0-0.078-0.02-0.102-0.053l-4.874-6.947c-0.032-0.043-0.032-0.102,0-0.145
	l4.864-6.92c0.024-0.031,0.062-0.053,0.103-0.053l2.865-0.014c0.069,0,0.125,0.055,0.125,0.123c0,0.027-0.008,0.053-0.022,0.072
	l-4.783,6.801c-0.031,0.043-0.031,0.102,0,0.145l4.795,6.795c0.04,0.055,0.027,0.133-0.029,0.174
	C15.631,41.943,15.606,41.951,15.581,41.951z"/>
<path fill="#00AEEF" d="M17.991,41.898l-4.867-6.908c-0.041-0.061-0.041-0.139,0-0.199l4.845-6.879
	c0.032-0.047,0.085-0.074,0.142-0.074l58.154,0.01c0.094,0,0.173,0.076,0.173,0.174l0,0l0.005,13.756
	c0,0.096-0.077,0.174-0.175,0.174l0,0l-58.134,0.021C18.076,41.973,18.023,41.945,17.991,41.898z M65.956,34.646
	c0.005-1.162-0.933-2.109-2.094-2.115l0,0l-0.528-0.002c-1.161-0.008-2.107,0.93-2.114,2.092l0,0l-0.006,1.166
	c-0.007,1.162,0.931,2.107,2.092,2.115l0,0l0.528,0.002c1.161,0.006,2.109-0.932,2.116-2.094l0,0L65.956,34.646z M21.792,32.709
	c0-0.08-0.065-0.143-0.145-0.143l0,0h-1.099c-0.081,0-0.145,0.063-0.145,0.143l0,0v4.965c0,0.08,0.064,0.145,0.145,0.145l0,0h1.099
	c0.08,0,0.145-0.064,0.145-0.145l0,0V32.709z M24.814,35.223c-0.007-0.305,0.076-0.33,0.248-0.082
	c0.493,0.713,0.993,1.453,1.5,2.223c0.333,0.502,0.721,0.57,1.273,0.443c0.081-0.018,0.122-0.068,0.122-0.152l-0.006-4.914
	c0-0.123-0.061-0.186-0.183-0.186h-0.883c-0.129,0-0.194,0.064-0.194,0.195l0.017,2.412c0.002,0.305-0.083,0.332-0.256,0.08
	l-1.751-2.563c-0.054-0.078-0.13-0.119-0.226-0.123l-0.768-0.01c-0.1,0-0.15,0.049-0.15,0.148l-0.012,5.006
	c-0.002,0.07,0.033,0.105,0.104,0.105l1.087,0.016c0.068,0,0.125-0.055,0.125-0.123c0-0.002,0-0.002,0-0.002L24.814,35.223z
	 M32.881,35.1c0.001,0.322-0.088,0.35-0.271,0.086c-0.567-0.826-1.124-1.604-1.668-2.342c-0.194-0.262-0.505-0.354-0.933-0.273
	c-0.138,0.025-0.206,0.105-0.206,0.246l-0.02,4.736c0,0.137,0.109,0.248,0.246,0.252l0.791,0.023
	c0.169,0.004,0.252-0.078,0.249-0.246l-0.032-2.297c-0.004-0.334,0.086-0.363,0.273-0.086c0.476,0.705,0.963,1.426,1.46,2.166
	c0.331,0.488,0.739,0.535,1.271,0.441c0.086-0.014,0.13-0.064,0.13-0.15l0.004-4.916c0-0.129-0.063-0.191-0.191-0.189l-0.93,0.01
	c-0.098,0.002-0.177,0.08-0.177,0.176L32.881,35.1z M40.492,34.633c0-1.152-0.935-2.088-2.089-2.088h-0.546
	c-1.154,0-2.089,0.936-2.089,2.088l0,0v1.176c0,1.154,0.935,2.09,2.089,2.09l0,0h0.546c1.154,0,2.089-0.936,2.089-2.09l0,0V34.633z
	 M45.11,32.57c-0.063,0.002-0.12,0.047-0.134,0.109l-0.765,3.363c-0.019,0.074-0.095,0.123-0.17,0.104
	c-0.053-0.014-0.094-0.053-0.105-0.107l-0.762-3.369c-0.013-0.066-0.071-0.113-0.139-0.113l-1.313,0.012
	c-0.078-0.002-0.143,0.061-0.143,0.141c0,0.014,0.002,0.027,0.006,0.041l1.518,4.953c0.019,0.059,0.071,0.098,0.132,0.102
	l1.591,0.031c0.063,0.002,0.12-0.039,0.139-0.1l1.521-5.018c0.024-0.074-0.017-0.152-0.093-0.178
	c-0.016-0.004-0.031-0.006-0.047-0.006L45.11,32.57z M48.617,36.783c0.015-0.066,0.073-0.113,0.143-0.113l1.38,0.006
	c0.069,0,0.129,0.051,0.142,0.119l0.151,0.887c0.013,0.068,0.069,0.117,0.139,0.119l1.242,0.035
	c0.078,0.002,0.145-0.064,0.146-0.143c0-0.016-0.002-0.031-0.008-0.047l-1.573-4.992c-0.019-0.059-0.075-0.102-0.14-0.1
	l-1.489,0.014c-0.063,0-0.118,0.039-0.139,0.1l-1.579,4.943c-0.025,0.076,0.018,0.158,0.093,0.184
	c0.013,0.002,0.027,0.006,0.04,0.006l1.112,0.041c0.069,0.004,0.132-0.045,0.145-0.113L48.617,36.783z M55.497,33.893
	c0-0.092,0.074-0.166,0.167-0.168l1.086-0.014c0.093-0.004,0.167-0.08,0.167-0.17l0.005-0.783c0.001-0.092-0.073-0.17-0.168-0.17
	c0,0-0.003,0-0.004,0l-3.885,0.027c-0.091,0.002-0.165,0.074-0.167,0.166l-0.008,0.768c-0.001,0.092,0.074,0.17,0.167,0.172
	c0.002,0,0.004,0,0.005,0l1.104-0.008c0.091,0,0.168,0.074,0.168,0.168c0,0.002,0,0.002,0,0.002l-0.042,3.781
	c-0.002,0.092,0.072,0.17,0.167,0.172c0,0,0,0,0.001,0l1.076-0.004c0.095,0,0.171-0.076,0.171-0.168l0,0L55.497,33.893z
	 M59.604,32.738c0-0.094-0.074-0.168-0.167-0.168h-1.045c-0.091,0-0.167,0.074-0.167,0.166l-0.008,4.91
	c0,0.092,0.074,0.166,0.166,0.166h1.046c0.092,0,0.167-0.072,0.167-0.164L59.604,32.738z M68.83,35.166
	c-0.003-0.264,0.068-0.285,0.215-0.066l1.717,2.559c0.059,0.086,0.139,0.133,0.241,0.139l0.812,0.025
	c0.076,0.004,0.142-0.053,0.146-0.131c0-0.002,0-0.004,0-0.008l0.005-4.885c0.002-0.133-0.105-0.242-0.239-0.244h-0.003
	l-0.812,0.002c-0.166,0.004-0.248,0.086-0.248,0.25l0.016,2.355c0.002,0.273-0.075,0.297-0.232,0.074
	c-0.508-0.719-1.02-1.473-1.535-2.26c-0.312-0.479-0.702-0.537-1.212-0.381c-0.08,0.023-0.119,0.08-0.121,0.162l-0.021,4.885
	c0,0.121,0.06,0.18,0.178,0.184l0.901,0.002c0.123,0.002,0.225-0.096,0.225-0.219c0-0.002,0-0.006,0-0.008L68.83,35.166z"/>
<path fill="#FFFFFF" d="M65.95,35.811c-0.007,1.162-0.955,2.1-2.116,2.094l0,0l-0.528-0.002c-1.161-0.008-2.099-0.953-2.092-2.115
	l0,0l0.006-1.166c0.007-1.162,0.953-2.1,2.114-2.092l0,0l0.528,0.002c1.161,0.006,2.099,0.953,2.094,2.115l0,0L65.95,35.811z
	 M63.583,36.855c0.577,0.002,1.043-0.738,1.047-1.652l0,0c0-0.912-0.464-1.654-1.04-1.654l0,0c-0.575-0.002-1.043,0.738-1.045,1.652
	l0,0C62.543,36.113,63.008,36.855,63.583,36.855L63.583,36.855z"/>
<path fill="#FFFFFF" d="M20.549,32.566h1.099c0.08,0,0.145,0.063,0.145,0.143v4.965c0,0.08-0.065,0.145-0.145,0.145h-1.099
	c-0.081,0-0.145-0.064-0.145-0.145v-4.965C20.404,32.629,20.468,32.566,20.549,32.566z"/>
<path fill="#FFFFFF" d="M24.814,35.223l0.047,2.475c0,0.066-0.054,0.123-0.122,0.125c-0.001,0-0.002,0-0.002,0l-1.087-0.016
	c-0.071,0-0.106-0.035-0.104-0.105l0.012-5.006c0-0.1,0.05-0.148,0.15-0.148l0.768,0.01c0.096,0.004,0.172,0.045,0.226,0.123
	l1.751,2.563c0.172,0.252,0.258,0.225,0.256-0.08l-0.017-2.412c0-0.131,0.064-0.195,0.194-0.195h0.883
	c0.123,0,0.183,0.063,0.183,0.186l0.006,4.914c0,0.084-0.041,0.135-0.122,0.152c-0.552,0.127-0.94,0.059-1.273-0.443
	c-0.507-0.77-1.007-1.51-1.5-2.223C24.89,34.893,24.807,34.918,24.814,35.223z"/>
<path fill="#FFFFFF" d="M32.881,35.1l-0.005-2.363c0-0.096,0.079-0.174,0.177-0.176l0.93-0.01c0.128-0.002,0.191,0.061,0.191,0.189
	l-0.004,4.916c0,0.086-0.043,0.137-0.13,0.15c-0.532,0.094-0.94,0.047-1.271-0.441c-0.497-0.74-0.984-1.461-1.46-2.166
	c-0.188-0.277-0.278-0.248-0.273,0.086l0.032,2.297c0.003,0.168-0.08,0.25-0.249,0.246l-0.791-0.023
	c-0.137-0.004-0.246-0.115-0.246-0.252l0.02-4.736c0-0.141,0.068-0.221,0.206-0.246c0.428-0.08,0.739,0.012,0.933,0.273
	c0.545,0.738,1.101,1.516,1.668,2.342C32.793,35.449,32.883,35.422,32.881,35.1z"/>
<path fill="#FFFFFF" d="M40.492,35.809c0,1.154-0.935,2.09-2.089,2.09l0,0h-0.546c-1.154,0-2.089-0.936-2.089-2.09l0,0v-1.176
	c0-1.152,0.935-2.088,2.089-2.088l0,0h0.546c1.154,0,2.089,0.936,2.089,2.088V35.809z M39.102,34.52
	c0.001-0.494-0.398-0.895-0.893-0.896l0,0h-0.125c-0.494-0.002-0.896,0.396-0.898,0.891l-0.005,1.393
	c-0.002,0.496,0.397,0.898,0.892,0.898l0,0h0.124c0.494,0.004,0.897-0.396,0.898-0.891L39.102,34.52z"/>
<path fill="#FFFFFF" d="M45.11,32.57l1.235-0.035c0.078-0.002,0.145,0.061,0.146,0.139c0.001,0.016-0.002,0.031-0.007,0.045
	l-1.521,5.018c-0.019,0.061-0.075,0.102-0.139,0.1l-1.591-0.031c-0.061-0.004-0.113-0.043-0.132-0.102l-1.518-4.953
	c-0.021-0.076,0.021-0.154,0.096-0.178c0.014-0.002,0.027-0.004,0.041-0.004l1.313-0.012c0.067,0,0.126,0.047,0.139,0.113
	l0.762,3.369c0.018,0.078,0.093,0.127,0.168,0.107c0.054-0.012,0.095-0.053,0.107-0.104l0.765-3.363
	C44.99,32.617,45.047,32.572,45.11,32.57z"/>
<path fill="#FFFFFF" d="M48.617,36.783l-0.195,0.945c-0.013,0.068-0.075,0.117-0.145,0.113l-1.112-0.041
	c-0.079-0.004-0.142-0.068-0.139-0.15c0-0.014,0.003-0.025,0.006-0.039l1.579-4.943c0.021-0.061,0.075-0.1,0.139-0.1l1.489-0.014
	c0.064-0.002,0.121,0.041,0.14,0.1l1.573,4.992c0.024,0.076-0.017,0.158-0.092,0.184c-0.016,0.002-0.031,0.006-0.047,0.006
	l-1.242-0.035c-0.069-0.002-0.126-0.051-0.139-0.119l-0.151-0.887c-0.013-0.068-0.072-0.119-0.142-0.119l-1.38-0.006
	C48.69,36.67,48.632,36.717,48.617,36.783z M49.155,35.701c0.232,0.045,0.458,0.021,0.673-0.072c0.063-0.027,0.098-0.096,0.08-0.16
	l-0.421-1.563c-0.006-0.029-0.034-0.047-0.063-0.039c-0.02,0.004-0.035,0.02-0.038,0.039l-0.41,1.512
	c-0.031,0.121,0.038,0.246,0.161,0.279C49.144,35.699,49.148,35.701,49.155,35.701z"/>
<path fill="#FFFFFF" d="M55.497,33.893l0.01,3.771c0,0.092-0.076,0.168-0.171,0.168l0,0l-1.076,0.004
	c-0.093,0-0.168-0.076-0.168-0.17c0,0,0,0,0-0.002l0.042-3.781c0.002-0.094-0.074-0.17-0.167-0.17c-0.001,0-0.001,0-0.001,0
	l-1.104,0.008c-0.093,0-0.17-0.074-0.172-0.168c0-0.002,0-0.004,0-0.004l0.008-0.768c0.002-0.092,0.076-0.164,0.167-0.166
	l3.885-0.027c0.093-0.002,0.172,0.072,0.172,0.166c0,0.002,0,0.004,0,0.004l-0.005,0.783c0,0.09-0.074,0.166-0.167,0.17
	l-1.086,0.014C55.571,33.727,55.497,33.801,55.497,33.893z"/>
<path fill="#FFFFFF" d="M58.393,32.57h1.047c0.091,0,0.165,0.074,0.165,0.168l-0.008,4.91c0,0.092-0.075,0.164-0.167,0.164h-1.046
	c-0.092,0-0.166-0.074-0.166-0.168l0.008-4.908C58.226,32.645,58.302,32.57,58.393,32.57z"/>
<path fill="#FFFFFF" d="M68.83,35.166l0.032,2.436c0.003,0.121-0.095,0.225-0.217,0.227c-0.001,0.002-0.004,0.002-0.008,0
	l-0.901-0.002c-0.118-0.004-0.178-0.063-0.178-0.184l0.021-4.885c0.002-0.082,0.041-0.139,0.121-0.162
	c0.51-0.156,0.9-0.098,1.212,0.381c0.516,0.787,1.027,1.541,1.535,2.26c0.157,0.223,0.234,0.199,0.232-0.074l-0.016-2.355
	c0-0.164,0.082-0.246,0.248-0.25l0.812-0.002c0.132,0,0.24,0.105,0.242,0.238c0,0.004,0,0.004,0,0.006l-0.005,4.885
	c0,0.076-0.062,0.139-0.14,0.139c-0.002,0-0.004,0-0.007,0l-0.812-0.025c-0.103-0.006-0.183-0.053-0.241-0.139L69.045,35.1
	C68.898,34.881,68.827,34.902,68.83,35.166z"/>
<path fill="#00AEEF" d="M38.085,33.623h0.125c0.495,0.002,0.894,0.402,0.892,0.896l-0.005,1.395
	c-0.001,0.494-0.404,0.895-0.898,0.891h-0.124c-0.495,0-0.895-0.402-0.892-0.898l0.005-1.393
	C37.188,34.02,37.591,33.621,38.085,33.623z"/>
<ellipse fill="#00AEEF" cx="63.587" cy="35.202" rx="1.042" ry="1.653"/>
<path fill="#00AEEF" d="M49.155,35.701c-0.125-0.023-0.205-0.145-0.182-0.268c0.002-0.004,0.003-0.01,0.003-0.016l0.41-1.512
	c0.006-0.029,0.033-0.047,0.062-0.039c0.021,0.004,0.036,0.02,0.039,0.039l0.421,1.563c0.018,0.064-0.018,0.133-0.08,0.16
	C49.613,35.723,49.388,35.746,49.155,35.701z"/>
<path fill="#00AEEF" d="M2.877,41.73l3.678-5.258c0.042-0.061,0.124-0.074,0.184-0.033c0.013,0.01,0.024,0.02,0.033,0.033
	l1.423,2.063c0.031,0.045,0.03,0.107-0.003,0.15L5.87,41.912c-0.025,0.035-0.064,0.055-0.107,0.055l-2.78-0.029
	c-0.073-0.002-0.13-0.064-0.128-0.137C2.855,41.775,2.863,41.752,2.877,41.73z"/>
</svg>
