<?xml version="1.0" encoding="utf-8"?>
<!-- Generator: Adobe Illustrator 15.0.0, SVG Export Plug-In . SVG Version: 6.00 Build 0)  -->
<!DOCTYPE svg PUBLIC "-//W3C//DTD SVG 1.1//EN" "http://www.w3.org/Graphics/SVG/1.1/DTD/svg11.dtd">
<svg version="1.1" id="Layer_1" xmlns="http://www.w3.org/2000/svg" xmlns:xlink="http://www.w3.org/1999/xlink" x="0px" y="0px"
	 width="200px" height="200px" viewBox="0 0 200 200" enable-background="new 0 0 200 200" xml:space="preserve">
<g display="none">
	<path vector-effect="non-scaling-stroke" display="inline" fill="none" stroke="#C5F1BF" stroke-width="2" d="M98.038,0
		C83.62,0.308,69.682,3.499,56.939,9.81c-6.135,3.036-10.901,5.634-15.371,8.957C26.052,30.293,13.465,45.972,6.819,64.11
		c-1.302,3.562-2.653,7.175-3.52,10.76c-1.379,5.706-2.282,11.493-2.708,17.361c-0.164,2.268-0.303,4.539-0.418,6.812"/>
	<path vector-effect="non-scaling-stroke" display="inline" fill="none" stroke="#C5F1BF" stroke-width="2" d="M102.024,0
		c1.91,0.093,3.882,0.042,5.702,0.225c7.82,0.788,14.129,1.952,21.02,4.031c0.29,0.087,0.543,0.185,0.756,0.293
		c0.144,0.071,0.16,0.167,0.053,0.287c-0.4,0.431-0.894,0.749-1.479,0.953c-3.973,1.396-7.769,2.764-11.586,4.715
		c-6.818,3.496-13.664,7.382-19.709,12.159c-5.9,4.663-11.44,9.651-16.353,15.368c-6.59,7.675-13.195,17.257-18.024,28.338
		c-1.594,3.657-2.706,6.462-3.337,8.415c-1.029,3.187-1.714,5.202-2.055,6.045c-0.27,0.663-0.459,1.611-0.57,2.843"/>
	<path vector-effect="non-scaling-stroke" display="inline" fill="none" stroke="#83DB7E" stroke-width="2" d="M56.442,83.672
		c-0.212,0.074-0.407,0.487-0.584,1.24"/>
	<path vector-effect="non-scaling-stroke" display="inline" fill="none" stroke="#84CF89" stroke-width="2" d="M55.858,84.912
		c-0.483,1.008-1.229,1.92-1.679,2.836c-0.332,0.677-0.587,1.344-1.05,1.944c-0.314,0.408-0.397,1.005-0.608,1.368
		c-6.442,11.295-10.418,24.297-12.249,37.137c-0.546,3.834-0.791,8.2-1.071,12.304c-0.154,2.255-0.123,5.507,0.093,9.759
		c0.175,3.441,0.792,8.217,1.852,14.324c0.349,2.027,0.891,4.142,1.361,6.207c0.753,3.326,1.9,6.557,2.853,9.855
		c0.157,0.543,0.494,1.105,1.012,1.688c0.078,0.09,0.099,0.192,0.062,0.308c-0.083,0.251-0.269,0.518-0.56,0.798"/>
	<path vector-effect="non-scaling-stroke" display="inline" fill="none" stroke="#C5F1BF" stroke-width="2" d="M45.875,183.44
		c-0.891-0.56-1.889-1.04-2.732-1.613C26.345,170.324,13.116,153.289,6.204,134c-3.216-8.98-5.202-18.318-5.789-27.852
		c-0.081-1.313-0.161-2.627-0.242-3.941"/>
	<path vector-effect="non-scaling-stroke" display="inline" fill="none" stroke="#BEDDC9" stroke-width="2" d="M45.875,183.44
		c0.442,0.605,0.973,1.099,1.593,1.479c3.297,2.024,6.525,3.804,9.682,5.341"/>
	<path vector-effect="non-scaling-stroke" display="inline" fill="none" stroke="#BACFC8" stroke-width="2" d="M57.15,190.26
		l6.318,2.749"/>
	<path vector-effect="non-scaling-stroke" display="inline" fill="none" stroke="#B0BCB7" stroke-width="2" d="M63.468,193.009
		c12.917,5.034,26.303,7.313,40.159,6.836c1.412-0.048,3.202-0.29,4.818-0.331c1.112-0.031,2.294-0.295,3.514-0.325"/>
	<path vector-effect="non-scaling-stroke" display="inline" fill="none" stroke="#BACFC8" stroke-width="2" d="M111.959,199.188
		c0.916-0.2,1.938-0.337,3.066-0.407c0.33-0.023,0.656-0.223,0.981-0.598"/>
	<path vector-effect="non-scaling-stroke" display="inline" fill="none" stroke="#C5F1BF" stroke-width="2" d="M116.007,198.184
		c0.132-0.152,0.22-0.342,0.267-0.566c0.002-0.02,0.021-0.032,0.045-0.029c0,0,0.002,0.001,0.003,0.001
		c0.889,0.256,1.579,0.335,2.072,0.238c4.249-0.825,8.563-1.786,12.595-3.116c11.61-3.831,22.191-9.579,31.74-17.242
		c1.748-1.403,3.514-3.089,5.236-4.671c3.596-3.298,6.916-6.847,9.963-10.646c1.313-1.641,2.67-3.593,3.986-5.402
		c1.111-1.534,2.045-2.923,2.801-4.166c7.752-12.746,12.764-26.643,14.314-40.926c0.288-2.645,0.504-4.553,0.646-5.728
		c0.1-0.839-0.084-1.499-0.264-2.297"/>
	<path vector-effect="non-scaling-stroke" display="inline" fill="none" stroke="#BACFC8" stroke-width="2" d="M199.412,103.634
		c-0.011-0.163-0.102-0.265-0.271-0.304c-4.482-1.006-9.006-1.756-13.572-2.249c-5.548-0.598-11.119-0.556-16.688-0.466
		c-0.7,0.012-1.543,0.066-2.528,0.166c-1.489,0.145-2.94,0.148-4.425,0.4c-0.631,0.107-1.265,0.199-1.9,0.272
		c-7.896,0.931-15.59,2.718-23.081,5.361c-0.288,0.101-0.603,0.111-0.942,0.03"/>
	<path vector-effect="non-scaling-stroke" display="inline" fill="none" stroke="#BEDDC9" stroke-width="2" d="M136.004,106.846
		c0.96-1.068,1.922-2.131,2.887-3.188c3.231-3.535,6.65-6.871,10.256-10.007c12.788-11.123,28.432-19.019,44.885-23.375
		c0.127-0.032,0.205-0.162,0.172-0.29c-0.016-0.063-0.057-0.117-0.113-0.149c-0.119-0.069-0.291-0.128-0.515-0.176
		c-5.032-1.085-10.104-1.966-15.237-2.314c-9.961-0.681-19.975-0.39-29.81,1.472c-9.603,1.814-18.808,4.831-27.612,9.05
		c-0.875,0.419-1.778,0.819-2.709,1.199c-0.115,0.046-0.17,0.177-0.123,0.294c0.014,0.035,0.036,0.065,0.064,0.089
		c8.56,7.23,12.456,18.125,10.26,29.227c-0.166,0.842-0.508,1.525-1.299,1.803c-0.842,0.29-1.488,0.6-1.941,0.929
		c-0.076,0.056-0.081,0.118-0.014,0.187c0.025,0.025,0.057,0.049,0.096,0.069"/>
	<path vector-effect="non-scaling-stroke" display="inline" fill="none" stroke="#B0BCB7" stroke-width="2" d="M125.25,111.665
		c-0.012,0.09-0.064,0.159-0.158,0.207c-5.594,2.888-10.842,6.005-15.744,9.351"/>
	<path vector-effect="non-scaling-stroke" display="inline" fill="none" stroke="#F1F5F4" stroke-width="2" d="M109.348,121.223
		c-1.514-0.739-3.004-1.442-4.474-2.11c-7.865-3.585-14.266-8.101-19.817-14.847"/>
	<path vector-effect="non-scaling-stroke" display="inline" fill="none" stroke="#F1FBF1" stroke-width="2" d="M85.057,104.266
		c-3.42-4.628-5.855-9.564-6.988-15.233c-0.387-1.937-0.556-4.434-0.507-7.492"/>
	<path vector-effect="non-scaling-stroke" display="inline" fill="none" stroke="#BDEABE" stroke-width="2" d="M77.562,81.541
		c9.523-9.668,24.313-11.792,36.045-5.167c0.293,0.167,0.665,0.09,0.87-0.18c15.233-19.869,36.225-34.218,60.395-40.649
		c0.555-0.147,0.577-0.354,0.068-0.618c-0.068-0.037-0.262-0.094-0.576-0.173c-6.211-1.575-12.519-2.438-18.923-2.587
		c-5.251-0.12-9.251-0.079-12,0.124c-30.712,2.259-58.909,16.587-78.511,40.308c-0.672,0.815-2.051,2.659-4.135,5.53
		c-1.366,1.881-2.816,3.729-4.352,5.544"/>
	<path vector-effect="non-scaling-stroke" display="inline" fill="none" stroke="#AFE5B0" stroke-width="2" d="M77.562,81.541
		c-10.263,9.92-11.31,26.428-3.399,38.059"/>
	<path vector-effect="non-scaling-stroke" display="inline" fill="none" stroke="#AEE0B3" stroke-width="2" d="M74.162,119.6
		c0.014,0.055,0.052,0.109,0.114,0.162"/>
	<path vector-effect="non-scaling-stroke" display="inline" fill="none" stroke="#77BA87" stroke-width="2" d="M74.276,119.762
		c-0.115-0.029-0.225-0.039-0.328-0.027c-0.113,0.009-0.193,0.065-0.242,0.169c-0.339,0.739-0.909,1.582-1.206,2.101
		c-3.828,6.722-6.727,12.859-8.698,18.414c-0.67,1.886-1.803,5.268-2.591,8.543c-0.17,0.699-0.386,1.369-0.646,2.01"/>
	<path vector-effect="non-scaling-stroke" display="inline" fill="none" stroke="#7BC888" stroke-width="2" d="M60.566,150.971
		l-0.293,0.023c-0.108,0.01-0.18-0.036-0.214-0.138c-1.911-5.396-3.338-10.229-4.28-14.501c-1.041-4.723-1.82-9.88-2.338-15.471
		c-0.56-6.066-0.353-12.283,0.024-18.363c0.283-4.549,1.257-9.254,1.754-12.884c0.055-0.397,0.321-0.698,0.376-1.167
		c0.12-1.006,0.342-2.086,0.667-3.24c0.033-0.123-0.04-0.25-0.163-0.284c-0.01-0.003-0.02-0.005-0.03-0.006l-0.211-0.027"/>
	<path vector-effect="non-scaling-stroke" display="inline" fill="none" stroke="#78AD92" stroke-width="2" d="M136.004,106.846
		c-0.152,0.32-0.4,0.516-0.743,0.584"/>
	<path vector-effect="non-scaling-stroke" display="inline" fill="none" stroke="#6F9A80" stroke-width="2" d="M135.261,107.43
		c-2.319,0.805-4.597,1.738-6.833,2.802c-0.662,0.317-1.557,0.249-2.145,1.153c-0.064,0.1-0.155,0.157-0.273,0.173l-0.76,0.107"/>
	<path vector-effect="non-scaling-stroke" display="inline" fill="none" stroke="#E3F1E6" stroke-width="2" d="M85.057,104.266
		c-0.173,0.288-0.335,0.58-0.487,0.878c-0.164,0.319-0.345,0.599-0.545,0.836c-2.872,3.394-4.881,5.979-6.028,7.755
		c-1.041,1.613-2.112,3.212-3.212,4.794c-0.067,0.095-0.102,0.2-0.104,0.317c-0.007,0.381-0.18,0.631-0.519,0.754"/>
	<path vector-effect="non-scaling-stroke" display="inline" fill="none" stroke="#78AD92" stroke-width="2" d="M60.566,150.971
		c-2.221,9.219-3.516,18.076-3.464,27.582c0.021,3.665,0.021,5.896,0.325,8.919c0.043,0.439,0.02,0.905-0.073,1.396
		c-0.085,0.458-0.153,0.922-0.204,1.393"/>
	<path vector-effect="non-scaling-stroke" display="inline" fill="none" stroke="#80C188" stroke-width="2" d="M199.412,103.634
		l-0.051,0.196c-0.019,0.063-0.059,0.099-0.121,0.107c-0.032,0.005-0.064,0.011-0.097,0.018c-12.649,3.24-24.96,8.607-35.658,16.094
		c-1.806,1.262-3.585,2.557-5.341,3.886c-1.167,0.884-4.479,3.326-4.855,4.397"/>
	<path vector-effect="non-scaling-stroke" display="inline" fill="none" stroke="#ACCBBA" stroke-width="2" d="M153.289,128.332
		l-1.406,1.185"/>
	<path vector-effect="non-scaling-stroke" display="inline" fill="none" stroke="#80C188" stroke-width="2" d="M151.883,129.517
		c-0.484,0.288-0.781,0.479-0.892,0.577c-2.558,2.199-5.13,4.75-7.717,7.654c-10.991,12.332-18.919,26.404-23.782,42.217
		c-1.692,5.509-2.952,11.379-3.779,17.61c-0.016,0.117,0.012,0.224,0.084,0.317l0.21,0.291"/>
	<path vector-effect="non-scaling-stroke" display="inline" fill="none" stroke="#6B8C80" stroke-width="2" d="M111.959,199.188
		c-0.521-1.322-0.826-2.433-0.916-3.333c-0.346-3.503-0.814-7.089-0.96-10.488c-0.325-7.509-0.218-14.752,0.881-22.32
		c2.974-20.484,11.243-39.146,24.317-55.202c0.069-0.085,0.063-0.224-0.021-0.415"/>
	<path vector-effect="non-scaling-stroke" display="inline" fill="none" stroke="#B7ECB1" stroke-width="2" d="M151.883,129.517
		l-0.056,0.12c-0.018,0.041-0.021,0.086-0.007,0.129c0.037,0.099,0.111,0.154,0.225,0.169c0.117,0.014,0.219-0.022,0.304-0.107
		l1.229-1.22c0.074-0.071,0.076-0.189,0.004-0.264c-0.019-0.019-0.041-0.033-0.065-0.043c-0.079-0.033-0.154-0.021-0.228,0.031"/>
	<path vector-effect="non-scaling-stroke" display="inline" fill="none" stroke="#A2B2AB" stroke-width="2" d="M109.348,121.223
		c-3.672,2.703-6.607,5.049-8.809,7.037c-2.082,1.879-3.72,3.298-4.916,4.258"/>
	<path vector-effect="non-scaling-stroke" display="inline" fill="none" stroke="#ABC5BD" stroke-width="2" d="M95.624,132.518
		c-9.002-1.257-16.118-5.509-21.347-12.756"/>
	<path vector-effect="non-scaling-stroke" display="inline" fill="none" stroke="#6B8C80" stroke-width="2" d="M63.468,193.009
		c0.235-0.749,0.556-1.462,0.708-2.211c4.57-22.535,15.261-41.989,31.447-58.28"/>
</g>
<path fill="#8BE27F" d="M98.038,0h3.986c1.91,0.093,3.882,0.042,5.702,0.225c7.82,0.788,14.129,1.952,21.02,4.031
	c0.29,0.087,0.543,0.185,0.756,0.293c0.144,0.071,0.16,0.167,0.053,0.287c-0.4,0.431-0.894,0.749-1.479,0.953
	c-3.973,1.396-7.769,2.764-11.586,4.715c-6.818,3.496-13.664,7.382-19.709,12.159c-5.9,4.663-11.44,9.651-16.353,15.368
	c-6.59,7.675-13.195,17.257-18.024,28.338c-1.594,3.657-2.706,6.462-3.337,8.415c-1.029,3.187-1.714,5.202-2.055,6.045
	c-0.27,0.663-0.459,1.611-0.57,2.843c-0.212,0.074-0.407,0.487-0.584,1.24c-0.483,1.008-1.229,1.92-1.679,2.836
	c-0.332,0.677-0.587,1.344-1.05,1.944c-0.314,0.408-0.397,1.005-0.608,1.368c-6.442,11.295-10.418,24.297-12.249,37.137
	c-0.546,3.834-0.791,8.2-1.071,12.304c-0.154,2.255-0.123,5.507,0.093,9.759c0.175,3.441,0.792,8.217,1.852,14.324
	c0.349,2.027,0.891,4.142,1.361,6.207c0.753,3.326,1.9,6.557,2.853,9.855c0.157,0.543,0.494,1.105,1.012,1.688
	c0.078,0.09,0.099,0.192,0.062,0.308c-0.083,0.251-0.269,0.518-0.56,0.798c-0.891-0.56-1.889-1.04-2.732-1.613
	C26.345,170.324,13.116,153.289,6.204,134c-3.216-8.98-5.202-18.318-5.789-27.852c-0.081-1.313-0.161-2.627-0.242-3.941v-3.164
	c0.115-2.272,0.254-4.543,0.418-6.812c0.426-5.868,1.329-11.655,2.708-17.361c0.867-3.585,2.218-7.199,3.52-10.76
	c6.646-18.138,19.233-33.817,34.75-45.344c4.47-3.323,9.236-5.92,15.371-8.957C69.682,3.499,83.62,0.308,98.038,0z"/>
<path fill="#7AD47D" d="M77.562,81.541c-10.263,9.92-11.31,26.428-3.399,38.059c0.014,0.055,0.052,0.109,0.114,0.162
	c-0.115-0.029-0.225-0.039-0.328-0.027c-0.113,0.009-0.193,0.065-0.242,0.169c-0.339,0.739-0.909,1.582-1.206,2.101
	c-3.828,6.722-6.727,12.859-8.698,18.414c-0.67,1.886-1.803,5.268-2.591,8.543c-0.17,0.699-0.386,1.369-0.646,2.01l-0.293,0.023
	c-0.108,0.01-0.18-0.036-0.214-0.138c-1.911-5.396-3.338-10.229-4.28-14.501c-1.041-4.723-1.82-9.88-2.338-15.471
	c-0.56-6.066-0.353-12.283,0.024-18.363c0.283-4.549,1.257-9.254,1.754-12.884c0.055-0.397,0.321-0.698,0.376-1.167
	c0.12-1.006,0.342-2.086,0.667-3.24c0.033-0.123-0.04-0.25-0.163-0.284c-0.01-0.003-0.02-0.005-0.03-0.006l-0.211-0.027
	c0.177-0.753,0.372-1.167,0.584-1.24c1.536-1.814,2.986-3.663,4.352-5.544c2.084-2.872,3.462-4.715,4.135-5.53
	c19.603-23.72,47.799-38.048,78.511-40.308c2.749-0.203,6.749-0.244,12-0.124c6.404,0.149,12.712,1.012,18.923,2.587
	c0.314,0.079,0.508,0.136,0.576,0.173c0.509,0.265,0.486,0.471-0.068,0.618c-24.17,6.432-45.161,20.781-60.395,40.649
	c-0.205,0.27-0.577,0.346-0.87,0.18C101.875,69.748,87.084,71.872,77.562,81.541z"/>
<path fill="#7CBB92" d="M136.004,106.846c-0.152,0.32-0.4,0.516-0.743,0.584c-2.319,0.805-4.597,1.738-6.833,2.802
	c-0.662,0.317-1.557,0.249-2.145,1.153c-0.064,0.1-0.155,0.157-0.273,0.173l-0.76,0.107c-0.039-0.021-0.07-0.044-0.096-0.069
	c-0.067-0.068-0.063-0.131,0.014-0.187c0.453-0.329,1.1-0.639,1.941-0.929c0.791-0.277,1.133-0.961,1.299-1.803
	c2.196-11.103-1.7-21.997-10.26-29.227c-0.096-0.082-0.109-0.225-0.029-0.32c0.023-0.028,0.054-0.05,0.088-0.063
	c0.931-0.38,1.834-0.779,2.709-1.199c8.805-4.219,18.01-7.235,27.612-9.05c9.835-1.862,19.849-2.152,29.81-1.472
	c5.134,0.349,10.205,1.229,15.237,2.314c0.224,0.048,0.396,0.107,0.515,0.176c0.115,0.064,0.155,0.21,0.09,0.324
	c-0.031,0.057-0.086,0.098-0.148,0.114c-16.453,4.356-32.097,12.252-44.885,23.375c-3.605,3.136-7.024,6.472-10.256,10.007
	C137.926,104.715,136.964,105.777,136.004,106.846z"/>
<path fill="#E3F6E3" d="M77.562,81.541c-0.048,3.058,0.121,5.556,0.507,7.492c1.133,5.668,3.568,10.604,6.988,15.233
	c-0.173,0.288-0.335,0.58-0.487,0.878c-0.164,0.319-0.345,0.599-0.545,0.836c-2.872,3.394-4.881,5.979-6.028,7.755
	c-1.041,1.613-2.112,3.212-3.212,4.794c-0.067,0.095-0.102,0.2-0.104,0.317c-0.007,0.381-0.18,0.631-0.519,0.754
	C66.252,107.969,67.299,91.461,77.562,81.541z"/>
<path fill="#7CBB92" d="M55.858,84.912l0.211,0.027c0.126,0.017,0.216,0.133,0.199,0.259c-0.001,0.011-0.003,0.021-0.006,0.031
	c-0.325,1.154-0.547,2.234-0.667,3.24c-0.055,0.47-0.321,0.771-0.376,1.167c-0.497,3.63-1.471,8.335-1.754,12.884
	c-0.377,6.08-0.584,12.297-0.024,18.363c0.518,5.591,1.298,10.748,2.338,15.471c0.942,4.271,2.369,9.105,4.28,14.501
	c0.035,0.102,0.106,0.147,0.214,0.138l0.293-0.023c-2.221,9.219-3.516,18.076-3.464,27.582c0.021,3.665,0.021,5.896,0.325,8.919
	c0.043,0.439,0.02,0.905-0.073,1.396c-0.085,0.458-0.153,0.922-0.204,1.393c-3.157-1.537-6.385-3.316-9.682-5.341
	c-0.62-0.38-1.15-0.873-1.593-1.479c0.291-0.28,0.477-0.547,0.56-0.798c0.037-0.115,0.016-0.218-0.062-0.308
	c-0.518-0.583-0.855-1.146-1.012-1.688c-0.953-3.299-2.1-6.529-2.853-9.855c-0.47-2.065-1.012-4.18-1.361-6.207
	c-1.06-6.107-1.677-10.883-1.852-14.324c-0.216-4.252-0.248-7.504-0.093-9.759c0.28-4.104,0.525-8.47,1.071-12.304
	c1.831-12.84,5.807-25.842,12.249-37.137c0.211-0.363,0.294-0.96,0.608-1.368c0.463-0.601,0.719-1.268,1.05-1.944
	C54.629,86.833,55.375,85.92,55.858,84.912z"/>
<path fill="#749F91" d="M199.412,103.634l-0.051,0.196c-0.019,0.063-0.059,0.099-0.121,0.107c-0.032,0.005-0.064,0.011-0.097,0.018
	c-12.649,3.24-24.96,8.607-35.658,16.094c-1.806,1.262-3.585,2.557-5.341,3.886c-1.167,0.884-4.108,3.57-4.855,4.397l-1.406,1.185
	c-0.484,0.288-0.781,0.479-0.892,0.577c-2.558,2.199-5.13,4.75-7.717,7.654c-10.991,12.332-18.919,26.404-23.782,42.217
	c-1.692,5.509-2.952,11.379-3.779,17.61c-0.016,0.117,0.012,0.224,0.084,0.317l0.21,0.291c-0.325,0.375-0.651,0.574-0.981,0.598
	c-1.128,0.07-2.15,0.207-3.066,0.407c-0.521-1.322-0.826-2.433-0.916-3.333c-0.346-3.503-0.814-7.089-0.96-10.488
	c-0.325-7.509-0.218-14.752,0.881-22.32c2.974-20.484,11.243-39.146,24.317-55.202c0.069-0.085,0.063-0.224-0.021-0.415
	c0.343-0.068,0.591-0.264,0.743-0.584c0.34,0.081,0.654,0.07,0.942-0.03c7.491-2.644,15.185-4.431,23.081-5.361
	c0.636-0.073,1.27-0.165,1.9-0.272c1.484-0.252,2.936-0.256,4.425-0.4c0.985-0.1,1.828-0.154,2.528-0.166
	c5.568-0.09,11.14-0.132,16.688,0.466c4.566,0.493,9.09,1.243,13.572,2.249C199.311,103.369,199.401,103.471,199.412,103.634z"/>
<path fill="#8BE27F" d="M153.289,128.332c0.961-0.941,3.688-3.514,4.855-4.397c1.756-1.329,3.535-2.624,5.341-3.886
	c10.698-7.486,23.009-12.854,35.658-16.094c0.032-0.007,0.064-0.013,0.097-0.018c0.063-0.009,0.103-0.045,0.121-0.107l0.051-0.196
	c0.18,0.798,0.363,1.458,0.264,2.297c-0.143,1.175-0.358,3.083-0.646,5.728c-1.551,14.283-6.563,28.18-14.314,40.926
	c-0.756,1.243-1.689,2.632-2.801,4.166c-1.316,1.81-2.674,3.762-3.986,5.402c-3.047,3.799-6.367,7.348-9.963,10.646
	c-1.723,1.582-3.488,3.268-5.236,4.671c-9.549,7.663-20.13,13.411-31.74,17.242c-4.031,1.33-8.346,2.291-12.595,3.116
	c-0.493,0.097-1.184,0.018-2.072-0.238c-0.022-0.005-0.044,0.007-0.048,0.024c0,0.002,0,0.002,0,0.004
	c-0.047,0.225-0.135,0.414-0.267,0.566l-0.21-0.291c-0.072-0.094-0.1-0.2-0.084-0.317c0.827-6.231,2.087-12.102,3.779-17.61
	c4.863-15.813,12.791-29.885,23.782-42.217c2.587-2.904,5.159-5.455,7.717-7.654c0.11-0.098,0.407-0.289,0.892-0.577l-0.466,0.284"
	/>
<path fill="#E2EBE8" d="M85.057,104.266c5.551,6.746,11.952,11.262,19.817,14.847c1.47,0.668,2.96,1.371,4.474,2.11
	c-3.672,2.703-6.607,5.049-8.809,7.037c-2.082,1.879-3.72,3.298-4.916,4.258c-9.002-1.257-16.118-5.509-21.347-12.756
	c-0.062-0.053-0.1-0.107-0.114-0.162c0.339-0.123,0.511-0.373,0.519-0.754c0.002-0.117,0.037-0.223,0.104-0.317
	c1.101-1.582,2.171-3.181,3.212-4.794c1.147-1.775,3.156-4.361,6.028-7.755c0.2-0.237,0.382-0.517,0.545-0.836
	C84.722,104.846,84.884,104.554,85.057,104.266z"/>
<path fill="#61796E" d="M135.261,107.43c0.083,0.191,0.09,0.33,0.021,0.415c-13.074,16.056-21.344,34.718-24.317,55.202
	c-1.099,7.568-1.206,14.812-0.881,22.32c0.146,3.399,0.614,6.985,0.96,10.488c0.09,0.9,0.395,2.011,0.916,3.333
	c-1.22,0.03-2.401,0.294-3.514,0.325c-1.616,0.041-3.406,0.283-4.818,0.331c-13.856,0.477-27.242-1.802-40.159-6.836
	c0.235-0.749,0.556-1.462,0.708-2.211c4.57-22.535,15.261-41.989,31.447-58.28c1.195-0.96,2.833-2.379,4.916-4.258
	c2.201-1.988,5.137-4.334,8.809-7.037c4.902-3.346,10.15-6.463,15.744-9.351c0.094-0.048,0.146-0.117,0.158-0.207l0.76-0.107
	c0.118-0.016,0.209-0.073,0.273-0.173c0.588-0.904,1.482-0.836,2.145-1.153C130.664,109.168,132.941,108.234,135.261,107.43z"/>
<path fill="#749F91" d="M74.276,119.762c5.229,7.247,12.345,11.499,21.347,12.756c-16.187,16.291-26.877,35.745-31.447,58.28
	c-0.152,0.749-0.473,1.462-0.708,2.211l-6.318-2.749c0.051-0.471,0.119-0.935,0.204-1.393c0.092-0.49,0.116-0.956,0.073-1.396
	c-0.304-3.022-0.304-5.254-0.325-8.919c-0.052-9.506,1.243-18.363,3.464-27.582c0.26-0.641,0.476-1.311,0.646-2.01
	c0.788-3.275,1.92-6.657,2.591-8.543c1.971-5.555,4.87-11.692,8.698-18.414c0.297-0.519,0.867-1.361,1.206-2.101
	c0.048-0.104,0.129-0.16,0.242-0.169C74.052,119.723,74.161,119.732,74.276,119.762z"/>
</svg>
