<?xml version="1.0" encoding="utf-8"?>
<!-- Generator: Adobe Illustrator 15.0.0, SVG Export Plug-In . SVG Version: 6.00 Build 0)  -->
<!DOCTYPE svg PUBLIC "-//W3C//DTD SVG 1.1//EN" "http://www.w3.org/Graphics/SVG/1.1/DTD/svg11.dtd">
<svg version="1.1" id="Layer_1" xmlns="http://www.w3.org/2000/svg" xmlns:xlink="http://www.w3.org/1999/xlink" x="0px" y="0px"
	 width="80px" height="50px" viewBox="0 0 80 50" enable-background="new 0 0 80 50" xml:space="preserve">
<path fill="#00AEEF" d="M73.063,13.602c0,3.84-3.112,6.954-6.953,6.954c-3.84,0-6.953-3.114-6.953-6.954l0,0
	c0-3.841,3.113-6.954,6.953-6.954l0,0C69.949,6.647,73.063,9.761,73.063,13.602z M64.857,7.284c0.242-0.141,0.225-0.197-0.056-0.169
	c-0.221,0.021-0.46,0.069-0.722,0.145c-0.105,0.03-0.124,0.088-0.057,0.176L64.1,7.535c0.064,0.088,0.146,0.104,0.241,0.047
	L64.857,7.284z M67.398,7.274l0.498,0.316c0.08,0.051,0.187,0.026,0.236-0.054c0.003-0.006,0.008-0.012,0.01-0.018
	c0.063-0.129,0.051-0.209-0.037-0.241c-0.217-0.077-0.488-0.182-0.69-0.114C67.33,7.188,67.324,7.227,67.398,7.274z M64.566,7.762
	c-0.034,0.02-0.047,0.065-0.028,0.101c0.007,0.01,0.015,0.019,0.022,0.025l0.33,0.214c0.031,0.023,0.077,0.015,0.102-0.017
	l0.482-0.675c0.021-0.034,0.012-0.08-0.022-0.103C65.43,7.293,65.4,7.291,65.378,7.304L64.566,7.762z M66.936,7.333
	c-0.184-0.119-0.231-0.078-0.146,0.122c0.085,0.208,0.23,0.408,0.432,0.6c0.057,0.053,0.143,0.055,0.202,0.005l0.162-0.134
	c0.046-0.038,0.052-0.106,0.015-0.151c-0.009-0.008-0.017-0.016-0.024-0.021L66.936,7.333z M65.318,8.13
	c-0.027,0.037-0.021,0.089,0.019,0.118c0.011,0.008,0.022,0.013,0.036,0.016l0.521,0.09c0.043,0.008,0.088-0.022,0.098-0.069
	c0-0.004,0-0.007,0-0.011l0.025-0.809c0-0.046-0.037-0.085-0.082-0.086c-0.028,0-0.055,0.013-0.069,0.034L65.318,8.13z
	 M66.261,8.247c-0.002,0.054,0.042,0.098,0.097,0.099c0.007,0,0.011-0.001,0.016-0.001l0.46-0.067
	c0.054-0.008,0.09-0.058,0.082-0.11c-0.003-0.015-0.009-0.029-0.019-0.042l-0.455-0.631c-0.028-0.044-0.09-0.055-0.135-0.024
	c-0.024,0.018-0.041,0.049-0.041,0.081L66.261,8.247z M68.305,10.973c-0.138,0.012-0.223-0.049-0.256-0.182l-0.189-0.753
	c-0.019-0.075-0.064-0.107-0.142-0.097l-1.409,0.191c-0.025,0.002-0.047,0.024-0.047,0.05l0.016,1.097
	c0.002,0.06,0.033,0.086,0.093,0.08l1.259-0.122c0.057-0.007,0.104,0.033,0.11,0.089c0.002,0.02-0.003,0.039-0.011,0.058
	L67.68,11.48c-0.031,0.065-0.094,0.109-0.166,0.114l-1.101,0.109c-0.088,0.01-0.152,0.085-0.151,0.172l0.004,0.154
	c0.004,0.089-0.041,0.133-0.133,0.132l-0.098-0.005c-0.049,0-0.088-0.04-0.088-0.087l0,0l0.012-1.838
	c0.002-0.129-0.061-0.177-0.184-0.142c-0.254,0.075-0.457,0.018-0.607-0.171c-0.047-0.06-0.036-0.145,0.023-0.192
	c0.018-0.013,0.037-0.022,0.059-0.026c0.161-0.03,0.313-0.008,0.457,0.067c0.082,0.039,0.182,0.006,0.221-0.076
	c0.01-0.021,0.016-0.043,0.016-0.066l0.033-0.883c0-0.058-0.027-0.085-0.086-0.082c-0.205,0.009-0.404-0.028-0.593-0.107
	C65.2,8.511,65.085,8.55,65.033,8.645l-0.328,0.6c-0.031,0.063-0.079,0.075-0.139,0.035l-0.069-0.05
	c-0.088-0.059-0.113-0.176-0.058-0.266l0.271-0.433c0.047-0.074,0.023-0.172-0.048-0.22C64.662,8.31,64.66,8.31,64.66,8.31
	l-0.288-0.181c-0.099-0.062-0.192-0.057-0.284,0.014L63.41,8.67c-0.061,0.047-0.146,0.045-0.202-0.006l-0.069-0.059
	c-0.033-0.03-0.037-0.085-0.006-0.121c0.003-0.004,0.006-0.007,0.014-0.011l0.668-0.537c0.074-0.059,0.084-0.167,0.025-0.241
	c-0.001-0.001-0.003-0.003-0.005-0.004l-0.099-0.11c-0.066-0.075-0.174-0.097-0.264-0.054c-2.349,1.09-3.675,2.923-3.983,5.496
	c-0.026,0.234,0.058,0.288,0.256,0.161l0.938-0.604c0.187-0.118,0.283-0.334,0.252-0.552c-0.051-0.366-0.183-0.788-0.166-1.149
	c0.15-3.803,5.996-1.373,4.07,1.06c-0.051,0.065-0.079,0.143-0.082,0.224c-0.025,0.606-0.275,1.08-0.752,1.419
	c-0.396,0.284-0.816,0.154-1.249,0.03c-0.133-0.04-0.274,0.037-0.315,0.171c-0.01,0.035-0.012,0.071-0.006,0.107l0.344,2.455
	c0.005,0.042,0.031,0.077,0.07,0.095c0.655,0.285,1.284,0.258,1.891-0.082c0.074-0.043,0.146-0.04,0.217,0.012
	c0.139,0.104,0.298,0.154,0.477,0.152c0.088-0.001,0.159,0.07,0.16,0.159c0.01,0.397-0.128,0.731-0.408,1
	c-0.063,0.062-0.151,0.091-0.244,0.082c-0.528-0.054-0.862-0.084-1.434,0.037c-0.521,0.109-1.04,0.101-1.564-0.027
	c-0.08-0.021-0.146,0-0.202,0.06c-0.229,0.234-0.222,0.483,0.028,0.746c0.635,0.668,1.281,0.527,2.146,0.211
	c0.749-0.273,1.507-0.483,2.272-0.627c0.211-0.039,0.35-0.243,0.309-0.455c-0.002-0.01-0.003-0.019-0.006-0.028
	c-0.145-0.552-0.061-1.256-0.428-1.694c-0.363-0.43-1.189-0.731-0.91-1.45c0.172-0.436,0.406-0.835,0.707-1.197
	c0.052-0.062,0.072-0.146,0.054-0.226L65.85,12.86c-0.029-0.126,0.021-0.198,0.147-0.217c0.703-0.099,1.217-0.316,1.541-0.651
	c2.665-2.748,6.519,1.599,4.04,4.368c-0.594,0.661-1.32,0.971-2.182,0.93c-0.07-0.002-0.129,0.052-0.131,0.122l0,0
	c-0.024,0.606,0.229,1.061,0.756,1.36c0.057,0.034,0.131,0.029,0.183-0.015c2.537-2.06,3.421-5.71,1.538-8.603
	c-0.051-0.078-0.113-0.093-0.193-0.044l-0.839,0.507c-0.067,0.041-0.101,0.119-0.085,0.196l0.047,0.221
	c0.025,0.11-0.006,0.128-0.094,0.057c-0.311-0.254-0.639-0.156-0.848-0.291c-0.025-0.015-0.043-0.033-0.049-0.054
	c-0.033-0.066-0.014-0.109,0.061-0.127l0.199-0.047c0.086-0.02,0.142-0.106,0.121-0.194c-0.004-0.019-0.012-0.036-0.022-0.053
	l-0.606-0.927c-0.049-0.075-0.146-0.103-0.226-0.064L68.25,9.779c-0.064,0.031-0.088,0.082-0.064,0.151l0.306,0.888
	c0.019,0.059-0.013,0.122-0.072,0.142c-0.009,0.002-0.017,0.005-0.024,0.005L68.305,10.973z M69.87,8.142L68.717,7.52
	c-0.078-0.042-0.148-0.03-0.211,0.04L68.4,7.68c-0.069,0.08-0.064,0.156,0.014,0.229l0.831,0.761
	c0.14,0.127,0.282,0.133,0.433,0.017l0.221-0.174C70.078,8.374,70.068,8.25,69.87,8.142z M67.684,8.267
	c-0.082,0.012-0.144,0.05-0.187,0.117c-0.036,0.054-0.037,0.125-0.003,0.179l0.402,0.679c0.086,0.146,0.209,0.189,0.369,0.129
	l0.65-0.251c0.087-0.033,0.129-0.128,0.096-0.213c-0.009-0.025-0.022-0.047-0.044-0.065l-0.866-0.766
	c-0.051-0.045-0.101-0.043-0.152,0.002l-0.146,0.135C67.77,8.241,67.729,8.26,67.684,8.267z M66.27,9.635
	c-0.004,0.071,0.054,0.131,0.125,0.132c0.006,0.001,0.014,0,0.021,0l1.109-0.159c0.072-0.01,0.121-0.076,0.11-0.146
	c-0.001-0.014-0.006-0.028-0.013-0.041L67.193,8.6c-0.023-0.053-0.084-0.08-0.143-0.067l-0.677,0.164
	c-0.058,0.015-0.099,0.066-0.099,0.125L66.27,9.635z M70.381,10.209c0.055,0.079,0.157,0.103,0.239,0.054l0.726-0.433
	c0.081-0.05,0.109-0.158,0.061-0.242c-0.008-0.012-0.016-0.022-0.024-0.032l-0.864-0.903c-0.063-0.065-0.162-0.073-0.232-0.02
	l-0.506,0.383c-0.074,0.058-0.092,0.164-0.036,0.241L70.381,10.209z"/>
<path fill="#00AEEF" d="M49.402,11.798c0.033-0.585,0.046-1.171,0.033-1.756c-0.053-2.904,2.131-3.517,4.582-3.031
	c0.045,0.008,0.078,0.048,0.078,0.094l0.012,1.53c0,0.042-0.031,0.078-0.076,0.08c-0.004,0-0.006,0-0.01,0
	c-2.922-0.294-2.601,0.723-2.605,3.034c0,0.11,0.055,0.164,0.164,0.164l2.059-0.002c0.133-0.001,0.197,0.064,0.194,0.196
	l-0.013,1.048c-0.004,0.124-0.066,0.186-0.188,0.186l-2,0.002c-0.104,0-0.192,0.087-0.192,0.195l-0.021,8.575
	c0,0.086-0.068,0.154-0.152,0.154c-0.004,0-0.004,0-0.004,0l-1.728-0.024c-0.065-0.001-0.121-0.058-0.121-0.126l0.002-8.653
	c0-0.076-0.06-0.137-0.136-0.137c-0.002,0-0.004,0-0.004,0l-1.428,0.017c-0.168,0.002-0.252-0.082-0.252-0.25l0.006-0.93
	c0-0.163,0.082-0.243,0.244-0.241l1.418,0.013C49.352,11.933,49.398,11.888,49.402,11.798z"/>
<path fill="#00AEEF" d="M24.67,7.331l2.12,0.007c0.081,0.001,0.146,0.066,0.146,0.147L26.929,9.4c0,0.082-0.066,0.147-0.147,0.146
	l-2.119-0.007c-0.08,0-0.146-0.066-0.146-0.147l0.006-1.916C24.524,7.396,24.589,7.33,24.67,7.331z"/>
<path fill="#00AEEF" d="M57.152,10.726c0.176-0.882,0.606-1.611,1.301-2.188c0.17-0.141,0.229-0.104,0.186,0.112
	c-0.063,0.28-0.146,0.598-0.252,0.953c-0.213,0.712-0.507,1.172-0.883,1.38C57.203,11.147,57.087,11.062,57.152,10.726z"/>
<path fill="#00AEEF" d="M74.802,11.139c-0.665-0.551-1.093-1.69-1.196-2.531c-0.017-0.129,0.027-0.156,0.136-0.08
	c0.76,0.544,1.418,1.572,1.21,2.559C74.928,11.186,74.879,11.204,74.802,11.139z"/>
<path fill="#00AEEF" d="M73.143,9.956c0.961,0.515,1.612,1.338,1.65,2.467c0.014,0.329-0.085,0.374-0.293,0.135
	c-0.65-0.745-1.139-1.582-1.463-2.513c-0.014-0.039,0.007-0.081,0.044-0.094C73.102,9.942,73.124,9.944,73.143,9.956z"/>
<path fill="#00AEEF" d="M57.419,12.246c0.192-1.066,0.754-1.794,1.683-2.186c0.129-0.054,0.168-0.016,0.115,0.117
	c-0.351,0.904-0.855,1.713-1.509,2.427c-0.06,0.063-0.156,0.067-0.22,0.01c-0.014-0.013-0.023-0.028-0.031-0.044
	C57.408,12.478,57.396,12.37,57.419,12.246z"/>
<path fill="#00AEEF" d="M56.761,10.403c0.441,0.597,0.419,2.624,0.318,3.246c-0.063,0.38-0.183,0.397-0.354,0.052
	c-0.531-1.056-0.582-2.146-0.154-3.27C56.619,10.306,56.682,10.297,56.761,10.403z"/>
<path fill="#00AEEF" d="M75.323,10.276c0-0.006,0.005-0.01,0.01-0.01l0,0l0.013,0.003c0.401,0.032,0.66,0.859,0.58,1.845
	l-0.008,0.104c-0.081,0.986-0.473,1.761-0.873,1.728l0,0l-0.013-0.003c-0.007,0-0.011-0.004-0.011-0.009L75.323,10.276z"/>
<path fill="#00AEEF" d="M15.755,13.094c-0.002,0.052,0.037,0.096,0.089,0.099c0.033,0.002,0.064-0.013,0.083-0.039
	c1.828-2.53,6.867-1.958,6.927,1.619c0.041,2.492,0.059,4.952,0.052,7.379c0,0.123-0.063,0.185-0.184,0.185l-1.625,0.002
	c-0.111,0-0.203-0.088-0.204-0.199c0-0.001,0-0.002,0-0.002c0.015-3.661,0.005-5.991-0.032-6.989
	c-0.042-1.166-0.897-1.895-2.037-1.989c-1.835-0.152-2.932,1.151-2.962,2.917c-0.035,2.063-0.047,4.083-0.035,6.063
	c0.001,0.121-0.059,0.183-0.179,0.184l-1.682,0.005c-0.104,0.001-0.156-0.05-0.156-0.154l-0.01-9.938
	c0-0.226,0.112-0.339,0.335-0.339l1.341,0.005c0.228,0.002,0.337,0.116,0.325,0.343L15.755,13.094z"/>
<path fill="#00AEEF" d="M36.943,18.782c0.046,0,0.068,0.023,0.065,0.07c-0.247,3.171-3.4,4.415-6.104,3.417
	c-3.363-1.236-3.41-6.75-1.541-9.067c2.171-2.691,7.266-2,7.571,1.91c0.007,0.094-0.064,0.176-0.159,0.184c-0.005,0-0.009,0-0.015,0
	l-1.612-0.027c-0.134-0.002-0.216-0.068-0.248-0.2c-0.298-1.29-0.804-2.079-2.276-1.967c-2.945,0.229-2.902,5.712-1.49,7.3
	c1.41,1.587,3.753,0.547,3.86-1.542c0.001-0.051,0.027-0.077,0.08-0.077L36.943,18.782L36.943,18.782z"/>
<path fill="#00AEEF" d="M39.958,17.541c-0.092,1.034,0.156,2.226,0.942,2.972c1.279,1.218,3.92,0.646,4.063-1.313
	c0.009-0.129,0.077-0.194,0.209-0.194l1.781,0.002c0.124,0,0.176,0.061,0.157,0.183c-0.277,1.729-1.404,2.796-3.098,3.219
	c-1.598,0.397-3.62,0.191-4.813-1.052c-1.208-1.262-1.378-3.025-1.32-4.783c0.082-2.567,1.619-4.752,4.31-4.944
	c3.8-0.269,5.25,2.342,5.039,5.688c-0.006,0.099-0.086,0.174-0.185,0.174l-7.013-0.02C39.993,17.474,39.961,17.503,39.958,17.541z
	 M40.114,16.118l4.909-0.044c0.08,0,0.145-0.064,0.145-0.144v-0.038c-0.014-1.56-1.098-2.813-2.423-2.803c-0.001,0-0.001,0-0.001,0
	l-0.398,0.005c-1.324,0.012-2.388,1.284-2.375,2.843v0.037C39.97,16.053,40.034,16.118,40.114,16.118z"/>
<path fill="#00AEEF" d="M9.929,21.18c0.021-0.352-0.071-0.385-0.277-0.1c-1.38,1.92-4.794,2.216-6.177,0.083
	c-0.411-0.632-0.62-1.354-0.627-2.164c-0.018-2.378-0.024-4.707-0.018-6.987c0.001-0.086,0.046-0.129,0.132-0.129l1.778-0.002
	c0.074,0,0.134,0.061,0.134,0.135c0.003,1.983,0.008,3.924,0.013,5.824c0.005,1.781,0.273,3.552,2.475,3.285
	c2.176-0.263,2.494-2.191,2.477-3.992c-0.018-1.74-0.022-3.444-0.013-5.108c0-0.087,0.044-0.131,0.132-0.131l1.776,0.022
	c0.084,0.002,0.127,0.045,0.127,0.13v9.948c0,0.224-0.112,0.335-0.336,0.333l-1.34-0.002c-0.216,0-0.317-0.109-0.306-0.326
	L9.929,21.18z"/>
<path fill="#00AEEF" d="M24.841,11.893h1.771c0.067,0,0.122,0.054,0.122,0.122v10.197c0,0.067-0.055,0.121-0.122,0.121h-1.771
	c-0.067,0-0.122-0.054-0.122-0.121V12.015C24.719,11.947,24.774,11.893,24.841,11.893z"/>
<path fill="#00AEEF" d="M74.523,15.141c-0.487-0.869-0.795-1.801-0.92-2.795c-0.024-0.201,0.043-0.239,0.203-0.115
	c0.726,0.575,1.459,1.997,1.022,2.9C74.736,15.33,74.632,15.333,74.523,15.141z"/>
<path fill="#00AEEF" d="M57.313,14.922c-0.021-1.176,0.266-1.915,1.105-2.743c0.041-0.038,0.104-0.039,0.141,0
	c0.015,0.015,0.023,0.033,0.026,0.053c0.136,0.808-0.51,2.256-0.885,2.992c-0.052,0.101-0.123,0.117-0.216,0.049
	C57.374,15.19,57.314,15.073,57.313,14.922z"/>
<path fill="#00AEEF" d="M74.721,16.521c0.234-1.229,0.7-2.36,1.398-3.395c0.085-0.126,0.142-0.113,0.164,0.037
	c0.197,1.221-0.288,2.843-1.432,3.457C74.739,16.682,74.695,16.649,74.721,16.521z"/>
<path fill="#00AEEF" d="M56.198,13.23c0.55,0.854,1.213,2.219,1.354,3.249c0.01,0.083-0.05,0.158-0.135,0.168
	c-0.037,0.004-0.075-0.006-0.105-0.029c-1.076-0.826-1.535-1.934-1.385-3.325C55.96,13.02,56.049,12.999,56.198,13.23z"/>
<path fill="#00AEEF" d="M73.768,14.288c0.695,0.935,0.924,2.298,0.279,3.328c-0.045,0.074-0.145,0.096-0.219,0.05
	c-0.034-0.022-0.061-0.055-0.069-0.095c-0.284-1.058-0.362-2.13-0.233-3.218C73.551,14.13,73.633,14.109,73.768,14.288z"/>
<path fill="#00AEEF" d="M58.292,17.67c-0.799-0.908-0.524-2.389,0.134-3.307c0.189-0.264,0.297-0.234,0.32,0.089
	c0.082,1.07-0.003,2.125-0.252,3.169c-0.016,0.063-0.079,0.102-0.143,0.086C58.33,17.702,58.309,17.688,58.292,17.67z"/>
<path fill="#00AEEF" d="M56.475,16.248c0.982,0.788,1.943,1.85,2.451,2.944c0.116,0.251,0.051,0.318-0.201,0.204
	c-1.295-0.595-2.133-1.587-2.516-2.977C56.121,16.093,56.209,16.035,56.475,16.248z"/>
<path fill="#00AEEF" d="M73.458,19.416c-0.134,0.058-0.197,0.014-0.188-0.132c0.058-0.778,1.889-2.549,2.5-3.044
	c0.242-0.197,0.323-0.145,0.246,0.159C75.646,17.824,74.793,18.829,73.458,19.416z"/>
<path fill="#00AEEF" d="M60.387,19.841c0,0.001-0.002,0.002-0.002,0.002l0,0l-0.01,0.003c-0.521,0.152-1.169-0.493-1.443-1.44
	c0-0.001,0-0.001,0-0.002l-0.021-0.072c-0.272-0.947-0.07-1.838,0.452-1.99l0.01-0.003c0.003,0,0.003,0.001,0.003,0.003l0,0
	L60.387,19.841z"/>
<path fill="#00AEEF" d="M71.979,19.737c0.063-1.085,0.508-2.321,1.016-3.303c0.031-0.059,0.104-0.083,0.164-0.053
	c0.025,0.014,0.047,0.039,0.057,0.067c0.471,1.392,0.164,2.54-0.925,3.445c-0.08,0.067-0.2,0.056-0.267-0.026
	C71.991,19.832,71.977,19.785,71.979,19.737z"/>
<path fill="#00AEEF" d="M71.688,18.648c0.063-0.047,0.123-0.064,0.18-0.052c0.058,0.011,0.094,0.066,0.082,0.123
	c-0.001,0.003-0.001,0.005-0.001,0.009c-0.427,1.455-0.714,2.564-2.544,2.472c-0.165-0.009-0.211-0.087-0.135-0.234
	C69.705,20.135,70.934,19.198,71.688,18.648z"/>
<path fill="#00AEEF" d="M63.13,20.965c0.003,0.002,0.003,0.007,0.001,0.01c0,0.001-0.001,0.002-0.001,0.002l0,0
	c-0.424,0.441-1.337,0.252-2.039-0.422l0,0l-0.056-0.052c-0.704-0.673-0.932-1.578-0.508-2.019l0,0l0,0
	c0.002-0.004,0.007-0.005,0.012-0.002c0,0.001,0,0.001,0.002,0.002L63.13,20.965z"/>
<path fill="#00AEEF" d="M57.829,19.237c1.159,0.396,2.335,1.045,3.259,1.816c0.072,0.061,0.081,0.168,0.021,0.241
	c-0.025,0.03-0.061,0.051-0.1,0.057c-1.512,0.267-2.681-0.606-3.412-1.83C57.416,19.217,57.492,19.123,57.829,19.237z"/>
<path fill="#00AEEF" d="M71.123,21.092c0.947-0.768,2.322-1.662,3.52-1.851c0.088-0.013,0.109,0.02,0.065,0.098
	c-0.778,1.368-1.866,2.271-3.524,1.982c-0.07-0.012-0.119-0.078-0.107-0.149C71.08,21.141,71.098,21.113,71.123,21.092z"/>
<path fill="#00AEEF" d="M65.348,22.316c0.223-0.134,0.209-0.24-0.041-0.316l-0.354-0.106c-0.252-0.078-0.477-0.028-0.674,0.149
	c-0.83,0.751-2.93,0.406-3.793,0.067c-0.475-0.185-0.461-0.322,0.043-0.41c1.623-0.283,3.354-0.517,4.669-0.124
	c0.573,0.171,0.75,0.333,1.354,0.151c1.705-0.515,3.634-0.42,5.304-0.005c0.326,0.082,0.332,0.186,0.023,0.314
	c-0.953,0.39-3.029,0.795-3.945,0.007c-0.199-0.172-0.427-0.224-0.681-0.154l-0.413,0.115c-0.247,0.066-0.258,0.159-0.031,0.278
	c0.736,0.39,1.354,0.918,1.854,1.584c0.065,0.089,0.048,0.216-0.042,0.284c-0.002,0.001-0.005,0.003-0.008,0.004l-0.073,0.05
	c-0.069,0.045-0.159,0.039-0.222-0.018l-1.932-1.735c-0.104-0.094-0.26-0.105-0.375-0.028c-0.753,0.498-1.424,1.087-2.014,1.769
	c-0.066,0.079-0.186,0.09-0.268,0.024l-0.063-0.05c-0.149-0.12-0.162-0.253-0.037-0.4C64.124,23.193,64.695,22.709,65.348,22.316z"
	/>
<path fill="#00AEEF" d="M5.897,27.861L8.2,31.133c0.018,0.027,0.018,0.063,0,0.09l-1.475,2.109
	c-0.026,0.035-0.076,0.045-0.111,0.018c-0.007-0.004-0.014-0.012-0.018-0.018l-3.781-5.377c-0.024-0.033-0.015-0.084,0.021-0.109
	c0.014-0.01,0.03-0.012,0.046-0.012l2.947-0.008C5.856,27.826,5.881,27.84,5.897,27.861z"/>
<path fill="#00AEEF" d="M15.581,41.951h-2.87c-0.041,0-0.078-0.02-0.102-0.053l-4.874-6.947c-0.032-0.043-0.032-0.102,0-0.145
	l4.864-6.921c0.024-0.03,0.062-0.053,0.103-0.053l2.865-0.015c0.069,0,0.125,0.056,0.125,0.123c0,0.027-0.008,0.054-0.022,0.072
	l-4.783,6.801c-0.031,0.043-0.031,0.103,0,0.146l4.795,6.795c0.04,0.056,0.027,0.134-0.029,0.175
	C15.631,41.943,15.606,41.951,15.581,41.951z"/>
<path fill="#00AEEF" d="M17.991,41.898l-4.867-6.908c-0.041-0.061-0.041-0.139,0-0.199l4.845-6.879
	c0.032-0.047,0.085-0.074,0.142-0.074l58.155,0.01c0.094,0,0.172,0.076,0.172,0.174l0,0l0.006,13.756
	c0,0.097-0.077,0.175-0.176,0.175l0,0l-58.134,0.021C18.076,41.973,18.023,41.945,17.991,41.898z M65.956,34.646
	c0.005-1.162-0.933-2.109-2.095-2.115l0,0l-0.527-0.002c-1.161-0.008-2.107,0.93-2.113,2.092l0,0l-0.007,1.166
	c-0.007,1.162,0.931,2.107,2.093,2.115l0,0l0.527,0.002c1.161,0.006,2.109-0.932,2.116-2.094l0,0L65.956,34.646z M21.792,32.709
	c0-0.08-0.065-0.143-0.145-0.143l0,0h-1.099c-0.081,0-0.145,0.063-0.145,0.143l0,0v4.965c0,0.08,0.064,0.145,0.145,0.145l0,0h1.099
	c0.08,0,0.145-0.063,0.145-0.145l0,0V32.709z M24.814,35.223c-0.007-0.305,0.076-0.33,0.248-0.082
	c0.493,0.713,0.993,1.453,1.5,2.224c0.333,0.502,0.721,0.569,1.273,0.442c0.081-0.018,0.122-0.067,0.122-0.152l-0.006-4.913
	c0-0.123-0.061-0.187-0.183-0.187h-0.883c-0.129,0-0.194,0.064-0.194,0.195l0.017,2.412c0.002,0.305-0.083,0.332-0.256,0.08
	l-1.751-2.563c-0.054-0.078-0.13-0.119-0.226-0.123l-0.768-0.011c-0.1,0-0.15,0.05-0.15,0.147L23.545,37.7
	c-0.002,0.069,0.033,0.104,0.104,0.104l1.087,0.016c0.068,0,0.125-0.055,0.125-0.122c0-0.003,0-0.003,0-0.003L24.814,35.223z
	 M32.881,35.1c0.001,0.322-0.088,0.351-0.271,0.086c-0.567-0.826-1.124-1.604-1.668-2.342c-0.194-0.262-0.505-0.354-0.933-0.273
	c-0.138,0.025-0.206,0.105-0.206,0.246l-0.02,4.736c0,0.137,0.109,0.248,0.246,0.252l0.791,0.023
	c0.169,0.004,0.252-0.078,0.249-0.246l-0.032-2.297c-0.004-0.334,0.086-0.363,0.273-0.086c0.476,0.705,0.963,1.426,1.46,2.166
	c0.331,0.488,0.739,0.535,1.271,0.441c0.086-0.015,0.13-0.064,0.13-0.15l0.004-4.916c0-0.129-0.063-0.191-0.191-0.189l-0.93,0.01
	c-0.098,0.002-0.177,0.08-0.177,0.176L32.881,35.1z M40.492,34.633c0-1.152-0.935-2.088-2.089-2.088h-0.546
	c-1.154,0-2.089,0.936-2.089,2.088l0,0v1.176c0,1.154,0.935,2.09,2.089,2.09l0,0h0.546c1.154,0,2.089-0.936,2.089-2.09l0,0V34.633z
	 M45.109,32.57c-0.063,0.002-0.119,0.047-0.133,0.109l-0.766,3.362c-0.02,0.074-0.095,0.123-0.17,0.104
	c-0.053-0.015-0.094-0.054-0.105-0.107l-0.762-3.369c-0.013-0.066-0.07-0.113-0.139-0.113l-1.313,0.012
	c-0.078-0.002-0.144,0.062-0.144,0.142c0,0.015,0.002,0.026,0.006,0.041l1.519,4.953c0.019,0.06,0.07,0.098,0.131,0.103l1.592,0.03
	c0.063,0.002,0.119-0.039,0.139-0.101l1.521-5.018c0.023-0.074-0.018-0.152-0.094-0.178c-0.016-0.004-0.031-0.006-0.047-0.006
	L45.109,32.57z M48.617,36.783c0.015-0.066,0.072-0.113,0.143-0.113l1.381,0.006c0.068,0,0.129,0.051,0.142,0.119l0.151,0.887
	c0.012,0.068,0.068,0.117,0.139,0.119l1.242,0.035c0.078,0.002,0.145-0.064,0.146-0.143c0-0.017-0.002-0.031-0.008-0.047
	l-1.573-4.992c-0.02-0.059-0.074-0.103-0.14-0.1l-1.489,0.014c-0.063,0-0.118,0.039-0.139,0.1l-1.579,4.943
	c-0.025,0.076,0.018,0.158,0.093,0.184c0.014,0.002,0.027,0.006,0.04,0.006l1.112,0.041c0.068,0.004,0.132-0.045,0.145-0.113
	L48.617,36.783z M55.497,33.893c0-0.092,0.073-0.166,0.167-0.168l1.086-0.014c0.093-0.004,0.167-0.08,0.167-0.17l0.005-0.783
	c0.001-0.092-0.072-0.17-0.168-0.17c0,0-0.003,0-0.004,0l-3.885,0.027c-0.092,0.002-0.165,0.074-0.167,0.166l-0.009,0.768
	c0,0.092,0.074,0.17,0.168,0.172c0.002,0,0.004,0,0.004,0l1.104-0.008c0.091,0,0.168,0.074,0.168,0.168c0,0.002,0,0.002,0,0.002
	l-0.042,3.781c-0.002,0.092,0.072,0.17,0.167,0.172c0,0,0,0,0.001,0l1.076-0.004c0.096,0,0.171-0.076,0.171-0.168l0,0L55.497,33.893
	z M59.604,32.738c0-0.094-0.074-0.168-0.166-0.168h-1.045c-0.092,0-0.168,0.074-0.168,0.166l-0.008,4.91
	c0,0.092,0.074,0.166,0.166,0.166h1.047c0.092,0,0.166-0.072,0.166-0.164L59.604,32.738z M68.83,35.166
	c-0.003-0.264,0.068-0.285,0.215-0.066l1.717,2.56c0.059,0.086,0.139,0.133,0.241,0.139l0.812,0.025
	c0.076,0.004,0.143-0.054,0.146-0.132c0-0.002,0-0.004,0-0.008l0.005-4.885c0.002-0.133-0.104-0.242-0.239-0.244h-0.002
	l-0.813,0.002c-0.166,0.004-0.248,0.086-0.248,0.25l0.016,2.355c0.002,0.273-0.074,0.297-0.231,0.074
	c-0.509-0.719-1.021-1.473-1.535-2.26c-0.312-0.479-0.702-0.537-1.212-0.381c-0.08,0.022-0.119,0.079-0.121,0.161l-0.021,4.886
	c0,0.121,0.061,0.18,0.178,0.184l0.902,0.002c0.122,0.002,0.225-0.096,0.225-0.219c0-0.002,0-0.006,0-0.008L68.83,35.166z"/>
<path fill="#FFFFFF" d="M65.95,35.811c-0.007,1.162-0.955,2.101-2.116,2.094l0,0l-0.527-0.002c-1.162-0.008-2.1-0.952-2.093-2.114
	l0,0l0.007-1.166c0.006-1.162,0.952-2.101,2.113-2.093l0,0l0.527,0.003c1.162,0.006,2.1,0.952,2.095,2.114l0,0L65.95,35.811z
	 M63.583,36.855c0.577,0.002,1.043-0.738,1.047-1.652l0,0c0-0.912-0.464-1.654-1.04-1.654l0,0c-0.574-0.002-1.043,0.738-1.045,1.652
	l0,0C62.543,36.113,63.008,36.855,63.583,36.855L63.583,36.855z"/>
<path fill="#FFFFFF" d="M20.549,32.566h1.099c0.08,0,0.145,0.063,0.145,0.143v4.965c0,0.08-0.065,0.145-0.145,0.145h-1.099
	c-0.081,0-0.145-0.063-0.145-0.145v-4.965C20.404,32.629,20.468,32.566,20.549,32.566z"/>
<path fill="#FFFFFF" d="M24.814,35.223l0.047,2.476c0,0.065-0.054,0.122-0.122,0.125c-0.001,0-0.002,0-0.002,0l-1.087-0.017
	c-0.071,0-0.106-0.035-0.104-0.104l0.012-5.007c0-0.1,0.05-0.147,0.15-0.147l0.768,0.011c0.096,0.004,0.172,0.045,0.226,0.123
	l1.751,2.563c0.172,0.252,0.258,0.225,0.256-0.08l-0.017-2.412c0-0.131,0.064-0.195,0.194-0.195h0.883
	c0.123,0,0.183,0.063,0.183,0.187l0.006,4.914c0,0.084-0.041,0.135-0.122,0.151c-0.552,0.127-0.94,0.06-1.273-0.442
	c-0.507-0.771-1.007-1.511-1.5-2.224C24.89,34.893,24.807,34.918,24.814,35.223z"/>
<path fill="#FFFFFF" d="M32.881,35.1l-0.005-2.363c0-0.096,0.079-0.174,0.177-0.176l0.93-0.01c0.128-0.002,0.191,0.061,0.191,0.189
	l-0.004,4.916c0,0.086-0.043,0.137-0.13,0.15c-0.532,0.094-0.94,0.047-1.271-0.441c-0.497-0.74-0.984-1.461-1.46-2.166
	c-0.188-0.277-0.278-0.248-0.273,0.086l0.032,2.297c0.003,0.168-0.08,0.25-0.249,0.246l-0.791-0.023
	c-0.137-0.004-0.246-0.115-0.246-0.252l0.02-4.736c0-0.141,0.068-0.221,0.206-0.246c0.428-0.079,0.739,0.013,0.933,0.273
	c0.545,0.738,1.101,1.516,1.668,2.342C32.793,35.449,32.883,35.422,32.881,35.1z"/>
<path fill="#FFFFFF" d="M40.492,35.809c0,1.154-0.935,2.09-2.089,2.09l0,0h-0.546c-1.154,0-2.089-0.936-2.089-2.09l0,0v-1.176
	c0-1.152,0.935-2.088,2.089-2.088l0,0h0.546c1.154,0,2.089,0.936,2.089,2.088V35.809z M39.102,34.52
	c0.001-0.494-0.398-0.895-0.893-0.896l0,0h-0.125c-0.494-0.002-0.896,0.396-0.898,0.892l-0.005,1.393
	c-0.002,0.496,0.397,0.898,0.892,0.898l0,0h0.124c0.494,0.004,0.897-0.396,0.898-0.892L39.102,34.52z"/>
<path fill="#FFFFFF" d="M45.109,32.57l1.236-0.035c0.077-0.002,0.145,0.061,0.146,0.139c0.001,0.016-0.002,0.031-0.007,0.045
	l-1.521,5.018c-0.02,0.062-0.074,0.103-0.139,0.101l-1.592-0.03c-0.061-0.005-0.112-0.043-0.131-0.103l-1.519-4.953
	c-0.021-0.076,0.021-0.153,0.097-0.178c0.014-0.003,0.026-0.005,0.041-0.005l1.313-0.012c0.066,0,0.126,0.047,0.139,0.113
	l0.762,3.369c0.019,0.078,0.094,0.127,0.168,0.107c0.055-0.013,0.096-0.054,0.107-0.104l0.766-3.362
	C44.99,32.617,45.047,32.572,45.109,32.57z"/>
<path fill="#FFFFFF" d="M48.617,36.783l-0.195,0.945c-0.013,0.067-0.074,0.117-0.145,0.112L47.165,37.8
	c-0.079-0.004-0.142-0.067-0.14-0.149c0-0.015,0.004-0.025,0.007-0.039l1.579-4.943c0.021-0.061,0.074-0.1,0.139-0.1l1.489-0.014
	c0.063-0.003,0.12,0.041,0.14,0.1l1.573,4.992c0.024,0.076-0.017,0.158-0.093,0.184c-0.016,0.002-0.03,0.006-0.047,0.006
	l-1.242-0.035c-0.068-0.002-0.125-0.051-0.139-0.119l-0.15-0.887c-0.014-0.068-0.072-0.119-0.143-0.119l-1.38-0.006
	C48.689,36.67,48.632,36.717,48.617,36.783z M49.154,35.701c0.232,0.045,0.459,0.021,0.674-0.072c0.063-0.027,0.098-0.096,0.08-0.16
	l-0.422-1.563c-0.006-0.029-0.033-0.047-0.063-0.039c-0.02,0.004-0.035,0.02-0.038,0.039l-0.409,1.512
	c-0.031,0.121,0.037,0.246,0.16,0.279C49.145,35.699,49.148,35.701,49.154,35.701z"/>
<path fill="#FFFFFF" d="M55.497,33.893l0.01,3.771c0,0.092-0.075,0.168-0.171,0.168l0,0l-1.076,0.004
	c-0.093,0-0.168-0.076-0.168-0.17c0,0,0,0,0-0.002l0.042-3.781c0.002-0.094-0.073-0.17-0.167-0.17c-0.001,0-0.001,0-0.001,0
	l-1.104,0.008c-0.092,0-0.17-0.074-0.172-0.168c0-0.002,0-0.004,0-0.004l0.009-0.768c0.002-0.092,0.075-0.164,0.167-0.166
	l3.885-0.027c0.093-0.002,0.172,0.072,0.172,0.166c0,0.002,0,0.004,0,0.004l-0.005,0.783c0,0.09-0.074,0.166-0.167,0.17
	l-1.086,0.014C55.57,33.727,55.497,33.801,55.497,33.893z"/>
<path fill="#FFFFFF" d="M58.393,32.57h1.047c0.092,0,0.166,0.074,0.166,0.168l-0.008,4.91c0,0.092-0.076,0.164-0.168,0.164h-1.046
	c-0.092,0-0.166-0.074-0.166-0.168l0.009-4.908C58.227,32.645,58.302,32.57,58.393,32.57z"/>
<path fill="#FFFFFF" d="M68.83,35.166l0.031,2.436c0.004,0.121-0.094,0.226-0.217,0.228c0,0.002-0.004,0.002-0.008,0l-0.9-0.002
	c-0.118-0.004-0.178-0.063-0.178-0.185l0.021-4.885c0.002-0.082,0.041-0.139,0.121-0.162c0.51-0.156,0.899-0.098,1.212,0.381
	c0.516,0.787,1.027,1.541,1.535,2.26c0.156,0.224,0.234,0.199,0.232-0.073l-0.017-2.354c0-0.164,0.082-0.246,0.248-0.25l0.812-0.002
	c0.133,0,0.24,0.104,0.242,0.237c0,0.004,0,0.004,0,0.006l-0.005,4.886c0,0.076-0.062,0.139-0.14,0.139c-0.002,0-0.004,0-0.008,0
	l-0.812-0.025c-0.103-0.006-0.183-0.053-0.241-0.139L69.045,35.1C68.898,34.881,68.827,34.902,68.83,35.166z"/>
<path fill="#00AEEF" d="M38.085,33.623h0.125c0.495,0.002,0.894,0.402,0.892,0.896l-0.005,1.395
	c-0.001,0.494-0.404,0.895-0.898,0.891h-0.124c-0.495,0-0.895-0.402-0.892-0.897l0.005-1.394
	C37.188,34.02,37.591,33.621,38.085,33.623z"/>
<ellipse fill="#00AEEF" cx="63.587" cy="35.202" rx="1.042" ry="1.653"/>
<path fill="#00AEEF" d="M49.154,35.701c-0.125-0.023-0.204-0.145-0.182-0.268c0.002-0.004,0.004-0.011,0.004-0.017l0.409-1.513
	c0.007-0.028,0.033-0.047,0.063-0.038c0.021,0.004,0.036,0.02,0.038,0.038l0.422,1.563c0.018,0.064-0.018,0.134-0.08,0.16
	C49.613,35.723,49.389,35.746,49.154,35.701z"/>
<path fill="#00AEEF" d="M2.877,41.73l3.678-5.258c0.042-0.062,0.124-0.074,0.184-0.033c0.013,0.01,0.024,0.02,0.033,0.033
	l1.423,2.063c0.031,0.045,0.03,0.107-0.003,0.15L5.87,41.912c-0.025,0.035-0.064,0.055-0.107,0.055l-2.78-0.029
	c-0.073-0.002-0.13-0.063-0.128-0.137C2.855,41.775,2.863,41.752,2.877,41.73z"/>
</svg>
