<?xml version="1.0" encoding="utf-8"?>
<!-- Generator: Adobe Illustrator 15.0.0, SVG Export Plug-In . SVG Version: 6.00 Build 0)  -->
<!DOCTYPE svg PUBLIC "-//W3C//DTD SVG 1.1//EN" "http://www.w3.org/Graphics/SVG/1.1/DTD/svg11.dtd">
<svg version="1.1" id="Layer_1" xmlns="http://www.w3.org/2000/svg" xmlns:xlink="http://www.w3.org/1999/xlink" x="0px" y="0px"
	 width="300px" height="70px" viewBox="0 0 300 70" enable-background="new 0 0 300 70" xml:space="preserve">
<g>
	<path fill="#95CC7D" d="M29.052,9.9h0.988c0.473,0.023,0.964,0.01,1.414,0.055c1.94,0.195,3.506,0.484,5.216,1.001
		c0.072,0.021,0.133,0.045,0.187,0.073c0.035,0.016,0.04,0.041,0.013,0.071c-0.099,0.106-0.221,0.186-0.366,0.235
		c-0.985,0.347-1.928,0.685-2.875,1.17c-1.691,0.868-3.39,1.832-4.89,3.017c-1.464,1.156-2.837,2.394-4.056,3.812
		c-1.635,1.905-3.274,4.282-4.472,7.03c-0.395,0.907-0.672,1.603-0.828,2.087c-0.256,0.791-0.425,1.291-0.51,1.5
		c-0.067,0.165-0.114,0.399-0.142,0.705c-0.052,0.019-0.101,0.121-0.145,0.308c-0.12,0.25-0.305,0.477-0.416,0.705
		c-0.083,0.167-0.146,0.333-0.261,0.481c-0.077,0.101-0.099,0.25-0.151,0.339c-1.598,2.802-2.584,6.024-3.038,9.211
		c-0.136,0.954-0.196,2.036-0.266,3.054c-0.039,0.561-0.03,1.367,0.023,2.42c0.043,0.855,0.196,2.04,0.46,3.555
		c0.086,0.502,0.221,1.026,0.337,1.539c0.187,0.826,0.471,1.627,0.708,2.446c0.039,0.134,0.123,0.272,0.251,0.419
		c0.02,0.021,0.025,0.049,0.016,0.077c-0.021,0.062-0.066,0.128-0.139,0.194c-0.222-0.139-0.469-0.256-0.679-0.399
		c-4.166-2.853-7.448-7.078-9.164-11.864c-0.797-2.226-1.29-4.543-1.436-6.908c-0.02-0.326-0.04-0.652-0.06-0.979V34.47
		c0.029-0.565,0.063-1.128,0.104-1.69c0.105-1.455,0.33-2.891,0.672-4.307c0.214-0.89,0.55-1.786,0.873-2.669
		c1.649-4.5,4.771-8.389,8.62-11.249c1.109-0.824,2.291-1.469,3.813-2.222C22.017,10.769,25.475,9.976,29.052,9.9z"/>
	<path fill="#81C77D" d="M23.971,30.128c-2.545,2.461-2.805,6.558-0.843,9.44c0.004,0.017,0.014,0.029,0.029,0.041
		c-0.029-0.006-0.056-0.01-0.082-0.006c-0.027,0-0.048,0.016-0.06,0.041c-0.084,0.183-0.225,0.395-0.299,0.521
		c-0.95,1.668-1.669,3.188-2.158,4.564c-0.167,0.471-0.447,1.311-0.643,2.123c-0.042,0.172-0.096,0.338-0.16,0.496l-0.073,0.006
		c-0.027,0.004-0.045-0.006-0.054-0.03c-0.474-1.343-0.828-2.54-1.062-3.601c-0.259-1.17-0.451-2.451-0.581-3.838
		c-0.138-1.505-0.087-3.046,0.006-4.555c0.072-1.13,0.313-2.296,0.436-3.197c0.014-0.099,0.081-0.173,0.094-0.29
		c0.03-0.25,0.084-0.517,0.166-0.804c0.008-0.031-0.01-0.063-0.041-0.07c-0.002,0-0.005-0.001-0.008-0.001l-0.053-0.007
		c0.044-0.187,0.093-0.289,0.145-0.308c0.381-0.45,0.742-0.908,1.08-1.375c0.518-0.713,0.86-1.17,1.026-1.373
		c4.863-5.884,11.858-9.438,19.478-10c0.681-0.05,1.673-0.06,2.977-0.031c1.588,0.038,3.153,0.25,4.694,0.642
		c0.077,0.02,0.125,0.034,0.142,0.042c0.126,0.066,0.122,0.117-0.017,0.154c-5.996,1.595-11.203,5.155-14.981,10.083
		c-0.051,0.067-0.144,0.086-0.216,0.045C30.003,27.203,26.334,27.729,23.971,30.128z"/>
	<path fill="#7CBC93" d="M38.469,36.404c-0.038,0.08-0.098,0.128-0.185,0.146c-0.575,0.199-1.141,0.432-1.694,0.695
		c-0.165,0.077-0.387,0.061-0.532,0.285c-0.016,0.023-0.039,0.039-0.068,0.042L35.802,37.6c-0.01-0.007-0.018-0.013-0.024-0.019
		c-0.017-0.017-0.016-0.03,0.003-0.045c0.113-0.083,0.273-0.157,0.483-0.231c0.194-0.068,0.28-0.238,0.322-0.445
		c0.544-2.753-0.422-5.458-2.546-7.25c-0.023-0.02-0.027-0.056-0.007-0.079c0.006-0.007,0.013-0.013,0.022-0.016
		c0.231-0.094,0.456-0.194,0.671-0.298c2.186-1.046,4.468-1.794,6.852-2.245c2.44-0.461,4.923-0.533,7.394-0.365
		c1.273,0.087,2.532,0.305,3.78,0.574c0.057,0.012,0.099,0.027,0.129,0.045c0.027,0.015,0.038,0.05,0.021,0.08
		c-0.007,0.014-0.021,0.024-0.037,0.028c-4.082,1.081-7.962,3.04-11.135,5.799c-0.894,0.778-1.743,1.605-2.544,2.484
		C38.946,35.877,38.708,36.143,38.469,36.404z"/>
	<path fill="#E5F2E2" d="M23.971,30.128c-0.012,0.759,0.031,1.378,0.126,1.858c0.281,1.407,0.884,2.63,1.733,3.782
		c-0.043,0.069-0.083,0.142-0.121,0.217c-0.04,0.076-0.085,0.147-0.135,0.207c-0.712,0.842-1.21,1.482-1.496,1.924
		c-0.258,0.398-0.524,0.796-0.796,1.188c-0.017,0.021-0.025,0.053-0.026,0.08c-0.001,0.098-0.043,0.156-0.128,0.186
		C21.167,36.686,21.426,32.589,23.971,30.128z"/>
	<path fill="#7CBC93" d="M18.587,30.964l0.053,0.007c0.031,0.004,0.054,0.033,0.05,0.064c0,0.003-0.001,0.005-0.001,0.007
		c-0.081,0.287-0.136,0.554-0.166,0.804c-0.013,0.117-0.08,0.191-0.094,0.29c-0.123,0.901-0.364,2.066-0.436,3.197
		c-0.093,1.509-0.144,3.05-0.006,4.554c0.129,1.387,0.322,2.668,0.581,3.84c0.234,1.06,0.588,2.258,1.062,3.6
		c0.008,0.025,0.026,0.033,0.054,0.031l0.073-0.006c-0.551,2.287-0.872,4.483-0.86,6.844c0.005,0.906,0.005,1.464,0.081,2.213
		c0.011,0.109,0.004,0.224-0.019,0.343c-0.021,0.114-0.038,0.229-0.05,0.347c-0.783-0.382-1.584-0.822-2.402-1.322
		c-0.154-0.098-0.285-0.219-0.395-0.368c0.073-0.067,0.118-0.134,0.139-0.195c0.009-0.028,0.004-0.055-0.016-0.077
		c-0.128-0.146-0.212-0.285-0.251-0.419c-0.237-0.819-0.521-1.62-0.708-2.446c-0.117-0.513-0.251-1.037-0.337-1.539
		c-0.264-1.515-0.417-2.698-0.46-3.555c-0.053-1.053-0.062-1.859-0.023-2.42c0.07-1.018,0.13-2.1,0.266-3.054
		c0.453-3.187,1.44-6.409,3.038-9.211c0.052-0.09,0.074-0.238,0.151-0.339c0.115-0.149,0.178-0.314,0.261-0.481
		C18.282,31.441,18.467,31.215,18.587,30.964z"/>
	<path fill="#749F92" d="M54.2,35.611l-0.013,0.047c-0.006,0.015-0.015,0.023-0.03,0.027c-0.008,0-0.017,0.002-0.024,0.002
		c-3.139,0.805-6.193,2.135-8.846,3.996c-0.448,0.31-0.89,0.633-1.325,0.961c-0.289,0.22-1.019,0.887-1.205,1.09l-0.349,0.297
		c-0.121,0.068-0.194,0.117-0.222,0.14c-0.635,0.548-1.272,1.179-1.915,1.902c-2.727,3.057-4.692,6.551-5.899,10.473
		c-0.42,1.365-0.732,2.823-0.938,4.369c-0.004,0.028,0.003,0.056,0.021,0.077l0.051,0.072c-0.08,0.09-0.16,0.142-0.242,0.148
		c-0.28,0.016-0.534,0.051-0.761,0.102c-0.129-0.328-0.205-0.604-0.228-0.83c-0.085-0.865-0.201-1.756-0.238-2.603
		c-0.081-1.862-0.054-3.655,0.219-5.534c0.738-5.08,2.788-9.709,6.032-13.693c0.018-0.021,0.016-0.057-0.006-0.104
		c0.087-0.02,0.146-0.066,0.185-0.146c0.084,0.021,0.164,0.02,0.235-0.008c1.858-0.655,3.767-1.097,5.725-1.33
		c0.158-0.017,0.315-0.04,0.473-0.067c0.368-0.062,0.728-0.064,1.098-0.1c0.244-0.025,0.453-0.038,0.626-0.042
		c1.381-0.022,2.763-0.032,4.14,0.115c1.133,0.124,2.255,0.308,3.368,0.561C54.175,35.543,54.197,35.566,54.2,35.611z"/>
	<path fill="#95CC7D" d="M42.758,41.734c0.238-0.232,0.916-0.87,1.205-1.09c0.435-0.328,0.876-0.651,1.325-0.961
		c2.653-1.86,5.708-3.19,8.846-3.996c0.007,0,0.016-0.002,0.024-0.002c0.016-0.004,0.024-0.013,0.03-0.027l0.013-0.047
		c0.044,0.193,0.09,0.357,0.064,0.568c-0.036,0.291-0.088,0.764-0.16,1.422c-0.385,3.543-1.628,6.987-3.551,10.149
		c-0.187,0.312-0.419,0.653-0.694,1.034c-0.327,0.451-0.664,0.936-0.99,1.342c-0.755,0.941-1.58,1.821-2.472,2.639
		c-0.426,0.395-0.865,0.813-1.299,1.159c-2.368,1.903-4.994,3.328-7.875,4.276c-0.999,0.333-2.069,0.568-3.125,0.773
		c-0.123,0.022-0.292,0.006-0.513-0.061c-0.006,0-0.011,0.003-0.012,0.006c0,0,0,0,0,0.004c-0.012,0.055-0.034,0.104-0.068,0.141
		l-0.051-0.072c-0.018-0.021-0.024-0.049-0.021-0.077c0.206-1.546,0.518-3.004,0.938-4.369c1.207-3.922,3.172-7.416,5.899-10.473
		c0.643-0.726,1.279-1.354,1.915-1.902c0.028-0.022,0.101-0.069,0.222-0.14L42.293,42.1"/>
	<path fill="#E1EAE8" d="M25.831,35.768c1.377,1.672,2.965,2.793,4.916,3.68c0.366,0.17,0.735,0.344,1.111,0.523
		c-0.912,0.674-1.64,1.254-2.186,1.75c-0.516,0.463-0.923,0.815-1.219,1.057c-2.233-0.314-3.998-1.367-5.296-3.166
		c-0.015-0.014-0.025-0.025-0.029-0.043c0.085-0.028,0.127-0.088,0.128-0.186c0.001-0.027,0.01-0.059,0.026-0.08
		c0.272-0.392,0.539-0.787,0.796-1.188c0.285-0.44,0.783-1.082,1.496-1.924c0.05-0.06,0.095-0.131,0.135-0.207
		C25.748,35.91,25.788,35.837,25.831,35.768z"/>
	<path fill="#627A6F" d="M38.284,36.552c0.022,0.048,0.024,0.081,0.006,0.103c-3.245,3.984-5.294,8.613-6.032,13.693
		c-0.273,1.881-0.3,3.672-0.219,5.535c0.037,0.846,0.153,1.736,0.238,2.604c0.023,0.225,0.098,0.5,0.228,0.828
		c-0.303,0.006-0.596,0.071-0.872,0.078c-0.401,0.014-0.846,0.073-1.196,0.086c-3.437,0.115-6.758-0.446-9.962-1.699
		c0.059-0.182,0.138-0.361,0.175-0.547c1.134-5.59,3.787-10.416,7.802-14.455c0.296-0.24,0.703-0.594,1.219-1.057
		c0.546-0.496,1.274-1.076,2.186-1.75c1.216-0.826,2.518-1.601,3.904-2.318c0.025-0.01,0.037-0.03,0.04-0.051l0.188-0.026
		c0.03-0.003,0.053-0.019,0.068-0.042c0.146-0.227,0.367-0.208,0.532-0.285C37.144,36.982,37.709,36.751,38.284,36.552z"/>
	<path fill="#749F92" d="M23.157,39.609c1.298,1.8,3.063,2.853,5.296,3.168c-4.015,4.039-6.668,8.863-7.802,14.453
		c-0.038,0.187-0.116,0.365-0.175,0.547l-1.567-0.68c0.013-0.117,0.029-0.232,0.05-0.348c0.022-0.119,0.029-0.232,0.019-0.343
		c-0.076-0.749-0.076-1.308-0.081-2.212c-0.012-2.36,0.309-4.557,0.86-6.846c0.064-0.158,0.118-0.324,0.16-0.496
		c0.196-0.813,0.477-1.652,0.643-2.123c0.489-1.377,1.208-2.896,2.158-4.564c0.074-0.128,0.215-0.34,0.299-0.521
		c0.012-0.025,0.033-0.041,0.06-0.041C23.101,39.602,23.128,39.604,23.157,39.609z"/>
</g>
<g enable-background="new    ">
	<path fill="#1F2A29" d="M80.365,32.968h7.457v12.357c-1.704,1.222-3.665,2.158-5.88,2.812c-2.216,0.653-4.432,0.98-6.647,0.98
		c-3.125,0-5.938-0.66-8.437-1.981c-2.5-1.321-4.46-3.16-5.88-5.519c-1.42-2.357-2.13-5.027-2.13-8.011
		c0-2.982,0.71-5.652,2.13-8.01s3.395-4.197,5.923-5.518c2.528-1.321,5.383-1.981,8.565-1.981c2.784,0,5.284,0.469,7.5,1.406
		c2.216,0.937,4.062,2.287,5.54,4.048l-5.369,4.857c-2.018-2.216-4.432-3.324-7.244-3.324c-2.557,0-4.617,0.774-6.179,2.322
		c-1.563,1.549-2.344,3.616-2.344,6.2c0,1.648,0.355,3.118,1.065,4.41c0.71,1.293,1.705,2.302,2.983,3.025
		c1.278,0.725,2.741,1.087,4.389,1.087c1.619,0,3.139-0.326,4.56-0.98V32.968z"/>
	<path fill="#1F2A29" d="M103.736,25.831c1.32-0.525,2.833-0.789,4.538-0.789v7.286c-0.739-0.085-1.35-0.128-1.833-0.128
		c-1.732,0-3.089,0.469-4.069,1.406c-0.98,0.938-1.47,2.373-1.47,4.304v10.61h-8.096V25.426h7.712v2.77
		C101.342,27.145,102.415,26.356,103.736,25.831z"/>
	<path fill="#1F2A29" d="M130.048,27.663c2.017,1.747,3.025,4.425,3.025,8.032v12.826h-7.542v-2.982
		c-1.165,2.244-3.438,3.366-6.817,3.366c-1.79,0-3.338-0.313-4.645-0.938c-1.307-0.625-2.294-1.471-2.962-2.535
		c-0.667-1.065-1.001-2.28-1.001-3.644c0-2.188,0.838-3.884,2.514-5.092c1.676-1.207,4.262-1.812,7.756-1.812h4.602
		c-0.143-2.442-1.775-3.664-4.9-3.664c-1.107,0-2.23,0.178-3.366,0.532c-1.137,0.355-2.103,0.846-2.897,1.471l-2.727-5.497
		c1.278-0.852,2.833-1.513,4.665-1.981c1.833-0.469,3.672-0.703,5.519-0.703C125.105,25.042,128.031,25.916,130.048,27.663z
		 M123.443,43.109c0.71-0.454,1.222-1.122,1.534-2.003v-2.003h-3.494c-2.358,0-3.536,0.781-3.536,2.344
		c0,0.71,0.27,1.278,0.81,1.704c0.539,0.427,1.278,0.64,2.215,0.64C121.909,43.791,122.733,43.563,123.443,43.109z"/>
	<path fill="#1F2A29" d="M140.871,48.243c-1.875-0.439-3.382-1.015-4.518-1.726l2.429-5.539c1.051,0.653,2.302,1.172,3.75,1.556
		c1.449,0.383,2.883,0.575,4.304,0.575c1.307,0,2.237-0.135,2.791-0.405c0.554-0.27,0.831-0.66,0.831-1.172
		c0-0.511-0.334-0.873-1.001-1.087c-0.668-0.213-1.727-0.418-3.175-0.617c-1.847-0.228-3.416-0.525-4.709-0.895
		s-2.407-1.051-3.345-2.046c-0.938-0.994-1.406-2.386-1.406-4.176c0-1.477,0.44-2.791,1.321-3.941
		c0.88-1.15,2.166-2.059,3.856-2.727c1.689-0.667,3.714-1.001,6.072-1.001c1.676,0,3.337,0.17,4.985,0.511
		c1.646,0.341,3.025,0.824,4.133,1.449l-2.429,5.497c-2.045-1.136-4.261-1.704-6.647-1.704c-1.278,0-2.216,0.148-2.813,0.447
		c-0.596,0.298-0.895,0.688-0.895,1.172c0,0.54,0.326,0.916,0.98,1.129c0.652,0.213,1.732,0.434,3.238,0.66
		c1.902,0.284,3.479,0.611,4.729,0.98s2.336,1.044,3.26,2.023c0.923,0.98,1.385,2.352,1.385,4.112c0,1.449-0.44,2.748-1.321,3.898
		c-0.881,1.151-2.18,2.053-3.898,2.706s-3.786,0.98-6.2,0.98C144.648,48.904,142.745,48.684,140.871,48.243z"/>
	<path fill="#1F2A29" d="M164.179,48.243c-1.875-0.439-3.382-1.015-4.518-1.726l2.429-5.539c1.051,0.653,2.302,1.172,3.75,1.556
		c1.449,0.383,2.883,0.575,4.304,0.575c1.307,0,2.237-0.135,2.791-0.405c0.554-0.27,0.831-0.66,0.831-1.172
		c0-0.511-0.334-0.873-1.001-1.087c-0.668-0.213-1.727-0.418-3.175-0.617c-1.847-0.228-3.416-0.525-4.709-0.895
		s-2.407-1.051-3.345-2.046c-0.938-0.994-1.406-2.386-1.406-4.176c0-1.477,0.44-2.791,1.321-3.941
		c0.88-1.15,2.166-2.059,3.856-2.727c1.689-0.667,3.714-1.001,6.072-1.001c1.676,0,3.337,0.17,4.985,0.511
		c1.646,0.341,3.025,0.824,4.133,1.449l-2.429,5.497c-2.045-1.136-4.261-1.704-6.647-1.704c-1.278,0-2.216,0.148-2.813,0.447
		c-0.596,0.298-0.895,0.688-0.895,1.172c0,0.54,0.326,0.916,0.98,1.129c0.652,0.213,1.732,0.434,3.238,0.66
		c1.902,0.284,3.479,0.611,4.729,0.98s2.336,1.044,3.26,2.023c0.923,0.98,1.385,2.352,1.385,4.112c0,1.449-0.44,2.748-1.321,3.898
		c-0.881,1.151-2.18,2.053-3.898,2.706s-3.786,0.98-6.2,0.98C167.956,48.904,166.053,48.684,164.179,48.243z"/>
	<path fill="#1F2A29" d="M195.731,25.831c1.32-0.525,2.833-0.789,4.537-0.789v7.286c-0.738-0.085-1.349-0.128-1.832-0.128
		c-1.732,0-3.089,0.469-4.069,1.406c-0.979,0.938-1.47,2.373-1.47,4.304v10.61h-8.096V25.426h7.712v2.77
		C193.338,27.145,194.41,26.356,195.731,25.831z"/>
	<path fill="#1F2A29" d="M208.28,47.37c-1.988-1.022-3.544-2.443-4.665-4.261c-1.123-1.818-1.684-3.878-1.684-6.179
		c0-2.272,0.561-4.318,1.684-6.136c1.121-1.818,2.67-3.231,4.645-4.24c1.974-1.008,4.211-1.513,6.711-1.513
		c2.499,0,4.743,0.505,6.732,1.513c1.988,1.009,3.536,2.415,4.645,4.219c1.107,1.804,1.662,3.856,1.662,6.157
		s-0.555,4.36-1.662,6.179c-1.108,1.817-2.656,3.238-4.645,4.261c-1.989,1.022-4.233,1.534-6.732,1.534
		C212.499,48.904,210.269,48.393,208.28,47.37z M218.465,41c0.908-0.98,1.363-2.337,1.363-4.069c0-1.705-0.455-3.04-1.363-4.006
		c-0.909-0.965-2.074-1.448-3.494-1.448c-1.421,0-2.585,0.483-3.494,1.448c-0.909,0.966-1.363,2.301-1.363,4.006
		c0,1.732,0.454,3.089,1.363,4.069c0.909,0.979,2.073,1.47,3.494,1.47C216.391,42.47,217.556,41.979,218.465,41z"/>
	<path fill="#1F2A29" d="M236.658,47.37c-1.988-1.022-3.544-2.443-4.665-4.261c-1.123-1.818-1.684-3.878-1.684-6.179
		c0-2.272,0.561-4.318,1.684-6.136c1.121-1.818,2.67-3.231,4.645-4.24c1.974-1.008,4.211-1.513,6.711-1.513
		c2.499,0,4.743,0.505,6.732,1.513c1.988,1.009,3.536,2.415,4.645,4.219c1.107,1.804,1.662,3.856,1.662,6.157
		s-0.555,4.36-1.662,6.179c-1.108,1.817-2.656,3.238-4.645,4.261c-1.989,1.022-4.233,1.534-6.732,1.534
		C240.877,48.904,238.646,48.393,236.658,47.37z M246.843,41c0.908-0.98,1.363-2.337,1.363-4.069c0-1.705-0.455-3.04-1.363-4.006
		c-0.909-0.965-2.074-1.448-3.494-1.448c-1.421,0-2.585,0.483-3.494,1.448c-0.909,0.966-1.363,2.301-1.363,4.006
		c0,1.732,0.454,3.089,1.363,4.069c0.909,0.979,2.073,1.47,3.494,1.47C244.769,42.47,245.934,41.979,246.843,41z"/>
	<path fill="#1F2A29" d="M276.072,47.583c-0.682,0.426-1.513,0.753-2.492,0.98c-0.98,0.227-2.024,0.341-3.132,0.341
		c-3.012,0-5.326-0.738-6.945-2.216c-1.619-1.477-2.429-3.679-2.429-6.604v-7.756h-3.366v-6.05h3.366V20.27h8.096v6.008h5.283v6.05
		h-5.283v7.67c0,0.824,0.22,1.471,0.66,1.939s1.029,0.703,1.769,0.703c0.938,0,1.761-0.241,2.472-0.725L276.072,47.583z"/>
	<path fill="#1F2A29" d="M281.868,48.243c-1.875-0.439-3.382-1.015-4.518-1.726l2.429-5.539c1.051,0.653,2.302,1.172,3.75,1.556
		c1.449,0.383,2.883,0.575,4.304,0.575c1.307,0,2.237-0.135,2.791-0.405c0.554-0.27,0.831-0.66,0.831-1.172
		c0-0.511-0.334-0.873-1.001-1.087c-0.668-0.213-1.727-0.418-3.175-0.617c-1.847-0.228-3.416-0.525-4.709-0.895
		s-2.407-1.051-3.345-2.046c-0.938-0.994-1.406-2.386-1.406-4.176c0-1.477,0.44-2.791,1.321-3.941
		c0.88-1.15,2.166-2.059,3.856-2.727c1.689-0.667,3.714-1.001,6.072-1.001c1.676,0,3.337,0.17,4.985,0.511
		c1.646,0.341,3.025,0.824,4.133,1.449l-2.429,5.497c-2.045-1.136-4.261-1.704-6.647-1.704c-1.278,0-2.216,0.148-2.813,0.447
		c-0.596,0.298-0.895,0.688-0.895,1.172c0,0.54,0.326,0.916,0.98,1.129c0.652,0.213,1.732,0.434,3.238,0.66
		c1.902,0.284,3.479,0.611,4.729,0.98s2.336,1.044,3.26,2.023c0.923,0.98,1.385,2.352,1.385,4.112c0,1.449-0.44,2.748-1.321,3.898
		c-0.881,1.151-2.18,2.053-3.898,2.706s-3.786,0.98-6.2,0.98C285.646,48.904,283.742,48.684,281.868,48.243z"/>
</g>
<g>
	<path fill-rule="evenodd" clip-rule="evenodd" fill="#8BE27F" d="M213.679,29.246c0.868,0,1.735,0,2.604,0
		c2.116,0.557,3.794,1.331,4.978,2.73c3.742,4.416,0.856,12.087-4.978,12.558c-0.906,0-1.812,0-2.717,0
		c-3.735-0.828-6.739-3.7-6.677-7.753C206.949,32.899,209.669,30.119,213.679,29.246z M221.486,36.017
		c-0.401-3.146-2.943-5.031-6.336-5.46c-0.264,4.005-0.038,8.481-0.113,12.667C218.993,42.825,222.021,40.186,221.486,36.017z"/>
	<path fill-rule="evenodd" clip-rule="evenodd" fill="#8BE27F" d="M242.424,29.246c0.867,0,1.734,0,2.603,0
		c3.861,0.897,6.292,3.173,6.79,7.315c0,0.22,0,0.438,0,0.656c-0.488,4.153-2.933,6.415-6.79,7.316c-0.868,0-1.735,0-2.603,0
		c-4.217-0.811-7.264-4.266-6.677-8.846C236.2,32.152,238.896,30.16,242.424,29.246z M250.231,37.764
		c0.507-4.159-2.434-6.759-6.337-7.207c-0.265,4.005-0.037,8.481-0.112,12.667C247.27,42.85,249.842,40.97,250.231,37.764z"/>
	<path fill-rule="evenodd" clip-rule="evenodd" fill="#8BE27F" d="M193.422,33.287c3.622,0,7.243,0,10.864,0
		c-0.073,0.583,0.148,1.453-0.112,1.855c-2.906,0-5.81,0-8.714,0c0,1.566,0,3.131,0,4.695c-0.68,0-1.359,0-2.038,0
		C193.422,37.654,193.422,35.47,193.422,33.287z"/>
	<path fill-rule="evenodd" clip-rule="evenodd" fill="#8BE27F" d="M233.143,36.452c0,0.911,0,1.821,0,2.73c-2.564,0-5.129,0-7.694,0
		c0-0.909,0-1.819,0-2.73C228.014,36.452,230.578,36.452,233.143,36.452z"/>
</g>
</svg>
