<?xml version="1.0" encoding="utf-8"?>
<!-- Generator: Adobe Illustrator 15.0.0, SVG Export Plug-In . SVG Version: 6.00 Build 0)  -->
<!DOCTYPE svg PUBLIC "-//W3C//DTD SVG 1.1//EN" "http://www.w3.org/Graphics/SVG/1.1/DTD/svg11.dtd">
<svg version="1.1" id="Layer_1" xmlns="http://www.w3.org/2000/svg" xmlns:xlink="http://www.w3.org/1999/xlink" x="0px" y="0px"
	 width="90px" height="40px" viewBox="0 0 90 40" enable-background="new 0 0 90 40" xml:space="preserve">
<path fill="#354138" d="M81.927,24.42c4.121-6.86,3.526-13.224-0.501-19.744c-0.268-0.43-0.178-0.987,0.209-1.31l0.166-0.139
	c0.635-0.536,1.195-0.467,1.68,0.203c4.838,6.684,4.86,14.955,0.743,21.936c-0.408,0.693-0.967,0.851-1.675,0.473L82.284,25.7
	c-0.448-0.238-0.619-0.794-0.382-1.239C81.91,24.447,81.918,24.433,81.927,24.42z"/>
<path fill="#354138" d="M59.822,16.721v-4.293c0.503-1.792,1.575-1.606,3.129-1.758c0.11-0.009,0.204-0.053,0.281-0.133
	c1.201-1.219,2.414-2.427,3.635-3.625c0.312-0.307,0.8-0.377,1.466-0.213c0.923,0.227,1.394,0.822,1.409,1.785
	c0.061,3.95,0.089,7.904,0.084,11.859c-0.003,1.785-1.904,2.721-3.269,1.438c-1.112-1.047-2.226-2.095-3.335-3.142
	c-0.092-0.085-0.199-0.128-0.32-0.131C61.447,18.484,60.23,18.48,59.822,16.721z"/>
<path fill="#354138" d="M80.516,20.929c-0.27,0.646-1.016,2.627-2.176,2.506c-1.147-0.12-1.342-1.122-0.827-2.046
	c2.664-4.769,2.458-9.479-0.617-14.133c-0.284-0.43-0.166-1.009,0.264-1.294c0.003-0.001,0.007-0.003,0.01-0.006l0.251-0.158
	c0.662-0.423,1.213-0.309,1.652,0.344C82.197,10.79,82.679,15.719,80.516,20.929z"/>
<path fill="#354138" d="M75.363,19.165c-0.314,0.728-0.843,0.951-1.582,0.674l-0.32-0.121c-0.461-0.172-0.695-0.686-0.523-1.146
	c0.008-0.022,0.017-0.044,0.027-0.066c1.206-2.58,1.229-5.18,0.068-7.797c-0.367-0.832-0.111-1.366,0.767-1.602l0.223-0.06
	c0.491-0.133,1.007,0.111,1.221,0.575C76.701,12.788,76.74,15.97,75.363,19.165z"/>
<g>
	<path fill="#627A6F" d="M19.61,32.108c-0.584-1.813-1.404-3.514-2.414-5.199c-0.029-0.046-0.035-0.097-0.018-0.15
		c1.583-4.751,4.379-9.645,8.317-12.835c0.021-0.017,0.037-0.014,0.048,0.01c0.008,0.014,0.016,0.027,0.023,0.041
		c0.008,0.015,0.007,0.029-0.003,0.043c-1.794,2.138-3.098,4.794-3.964,7.377c-1.16,3.46-1.711,7.092-1.742,10.675
		C19.854,32.592,19.771,32.604,19.61,32.108z"/>
	<path fill="#627A6F" d="M13.475,34.743c0.063,0.042,0.096,0.024,0.094-0.052c-0.089-5.617-2.181-10.477-6.108-14.505
		c-0.768-0.786-1.5-1.425-2.195-1.916c-0.018-0.013-0.033-0.027-0.043-0.043c-0.013-0.021-0.022-0.04-0.029-0.056
		c-0.012-0.027,0.001-0.06,0.029-0.072c0.011-0.005,0.025-0.005,0.037-0.001c0.12,0.031,0.243,0.074,0.371,0.126
		c4.038,1.636,7.322,4.174,9.853,7.613c2.12,2.878,3.27,6.153,4.256,9.549c0.017,0.062,0.058,0.093,0.122,0.096
		c0.057,0.001,0.097-0.043,0.122-0.132c1.327-4.88,4.337-9.409,9.106-11.38c0.24-0.099,0.26-0.065,0.06,0.1
		c-2.544,2.091-4.176,4.809-4.897,8.153c-0.404,1.872-0.459,3.299-0.542,5.01c-0.002,0.053-0.029,0.078-0.081,0.078l-14.13-0.003
		c-0.057,0-0.087-0.029-0.089-0.087c-0.119-3.005-0.82-5.409-3.036-7.52c-1.348-1.285-2.894-2.358-4.636-3.223
		c-0.387-0.191-0.755-0.321-1.105-0.394c-0.024-0.005-0.04-0.026-0.037-0.049l0.01-0.08c0.003-0.027,0.019-0.04,0.046-0.037
		c0.375,0.037,0.738,0.089,1.09,0.153c4.9,0.916,9.615,3.528,11.615,8.376c0.016,0.036,0.029,0.085,0.042,0.147
		C13.411,34.67,13.437,34.718,13.475,34.743z"/>
</g>
</svg>
